<svg width="1271" height="473" viewBox="0 0 1271 473" fill="none" xmlns="http://www.w3.org/2000/svg">
<mask id="path-1-outside-1_530_596" maskUnits="userSpaceOnUse" x="-1" y="-1" width="1273" height="475" fill="black">
<rect fill="white" x="-1" y="-1" width="1273" height="475"/>
<path d="M32.6756 158H0.965647V156.95C8.94565 156.95 12.0956 149.81 12.5156 144.56V24.23C12.0956 19.19 8.94565 12.05 0.965647 12.05V11H62.2856C97.3556 11 114.786 27.59 114.786 44.39C114.786 58.46 102.396 72.32 77.8256 76.52C115.626 81.77 133.056 101.93 133.056 120.83C133.056 140.57 114.576 159.05 81.3956 159.05C60.1856 159.05 38.9756 147.92 32.6756 118.94V158ZM32.6756 13.52V75.26H56.1956C82.8656 75.26 94.8356 60.77 94.8356 46.07C94.8356 30.11 80.9756 13.52 56.1956 13.52H32.6756ZM51.9956 77.78H32.6756V100.88C34.3556 140.36 54.3056 154.64 74.0456 154.64C99.4556 154.64 113.316 138.47 113.316 120.83C113.316 100.25 94.2056 77.78 51.9956 77.78ZM212.926 95.63L211.456 93.74C218.806 87.44 222.166 78.41 222.166 70.64C222.166 62.03 217.966 55.1 210.616 55.1C188.566 55.1 177.226 92.9 177.226 143.09C177.226 144.35 177.436 145.82 177.856 147.5C178.276 148.97 178.906 150.65 179.956 151.91C180.796 153.38 182.056 154.64 183.526 155.48C184.996 156.53 186.886 156.95 189.196 156.95V158H146.566V156.95C155.596 156.95 158.326 148.34 158.326 143.09V72.32C158.326 63.29 155.596 54.05 146.566 54.05V53H177.226V106.13C181.846 71.48 194.026 50.9 217.126 50.9C233.716 50.9 241.906 60.98 241.906 71.48C241.906 83.03 232.036 95.21 212.926 95.63ZM242.016 121.67C242.016 110.33 247.476 101.72 255.456 95.42C255.666 67.91 271.626 50.9 301.866 50.9C357.306 50.9 346.806 156.95 380.196 156.95V158H366.546C347.226 158 338.196 138.26 331.266 116.21C331.686 143.93 312.156 161.15 289.056 161.15C260.916 161.15 242.016 144.98 242.016 121.67ZM257.556 93.95C270.156 85.13 288.216 81.14 303.546 81.14C310.056 81.14 316.356 81.98 320.976 83.24C315.306 67.28 308.166 55.1 295.356 55.1C272.886 55.1 259.026 71.48 257.556 93.95ZM260.916 121.67C260.916 142.88 277.716 156.95 294.726 156.95C310.896 156.95 329.166 141.41 329.166 116.84C329.166 112.85 328.536 108.44 327.486 104.03C325.806 97.94 323.916 92.06 322.236 86.39C318.246 85.13 313.626 84.5 309.006 84.5C287.586 84.5 260.916 97.31 260.916 121.67ZM527.682 158C483.372 158 493.662 55.1 456.492 55.1C431.712 55.1 414.912 92.9 414.912 143.09C414.912 144.35 415.122 145.82 415.542 147.5C415.962 148.97 416.592 150.65 417.642 151.91C418.482 153.38 419.742 154.64 421.212 155.48C422.682 156.53 424.572 156.95 426.882 156.95V158H384.252V156.95C393.282 156.95 396.012 148.34 396.012 143.09V72.32C396.012 63.29 393.282 54.05 384.252 54.05V53H414.912V111.8C420.582 73.58 436.962 50.9 463.002 50.9C518.442 50.9 507.942 156.95 541.332 156.95V158H527.682ZM638.421 55.1V19.82C638.421 10.79 635.481 1.54999 626.451 1.54999V0.499987H657.321V143.09C657.321 144.35 657.531 145.82 657.741 147.5C658.161 148.97 658.791 150.44 659.841 151.91C661.521 154.64 664.671 156.95 669.081 156.95V158H638.421V118.31C632.121 144.77 614.901 161.15 592.431 161.15C559.881 161.15 544.761 140.99 544.761 117.89C544.761 87.23 571.431 51.53 618.471 51.53C626.871 51.53 633.801 53 638.421 55.1ZM598.101 156.95C618.261 156.95 638.421 133.22 638.421 97.52V57.83C634.221 55.94 628.761 54.89 622.881 54.89C584.661 54.89 564.291 88.91 564.291 117.68C564.291 138.68 575.211 156.95 598.101 156.95ZM693.283 38.51C688.873 38.51 686.983 36.2 686.983 33.05C686.983 26.54 694.753 16.88 703.783 16.88C708.403 16.88 710.293 19.19 710.293 22.34C710.293 28.85 702.523 38.51 693.283 38.51ZM688.453 72.32C688.453 63.29 685.723 54.05 676.693 54.05V53H707.353V143.09C707.353 144.35 707.563 145.82 707.983 147.5C708.403 148.97 709.033 150.65 710.083 151.91C710.923 153.38 712.183 154.64 713.653 155.48C715.123 156.53 717.013 156.95 719.323 156.95V158H676.693V156.95C685.723 156.95 688.453 148.34 688.453 143.09V72.32ZM870.367 158C826.057 158 836.347 55.1 799.177 55.1C774.397 55.1 757.597 92.9 757.597 143.09C757.597 144.35 757.807 145.82 758.227 147.5C758.647 148.97 759.277 150.65 760.327 151.91C761.167 153.38 762.427 154.64 763.897 155.48C765.367 156.53 767.257 156.95 769.567 156.95V158H726.937V156.95C735.967 156.95 738.697 148.34 738.697 143.09V72.32C738.697 63.29 735.967 54.05 726.937 54.05V53H757.597V111.8C763.267 73.58 779.647 50.9 805.687 50.9C861.127 50.9 850.627 156.95 884.017 156.95V158H870.367ZM937.636 141.83C934.906 141.83 932.386 141.83 929.866 141.62C907.396 141.62 893.956 158.63 893.956 167.24C893.956 170.18 895.426 172.28 898.786 172.28C912.226 172.28 958.006 147.5 987.406 147.5C1000.85 147.5 1010.72 158.21 1010.72 173.33C1010.72 215.96 965.146 241.79 935.326 241.79C921.046 241.79 910.126 235.7 910.126 222.47C910.126 201.47 939.526 187.4 957.586 188.87L957.376 191.39C940.576 189.92 912.646 203.15 912.646 222.47C912.646 229.19 917.476 231.92 924.616 231.92C950.236 231.92 1008.2 197.27 1008.2 173.12C1008.2 162.83 1002.11 158.84 992.866 158.84C967.036 158.84 916.006 189.29 900.466 189.29C889.756 189.29 885.346 182.15 885.346 175.22C885.346 160.52 904.456 143.3 920.626 139.73C902.356 134.9 893.956 121.46 893.956 106.76C893.956 80.93 919.156 50.69 961.576 50.69C967.456 50.69 972.706 51.32 977.536 52.58C994.966 48.59 1006.1 37.04 1006.1 28.85C1006.1 21.92 1001.48 18.56 995.386 18.56C988.246 18.56 979.636 23.18 974.386 32.21L973.126 31.16C973.126 15.62 986.146 4.7 996.856 4.7C1004.21 4.7 1010.51 9.94999 1010.3 22.55C1010.3 36.2 1002.32 47.54 981.736 53.84C997.696 59.51 1005.05 71.9 1005.05 85.97C1005.05 111.59 980.056 141.83 937.636 141.83ZM960.736 53.42C931.756 53.42 912.646 85.34 912.646 110.33C912.646 126.08 920.416 139.1 938.476 139.1C966.826 139.1 986.566 106.55 986.566 81.77C986.566 66.02 978.796 53.42 960.736 53.42ZM1172.53 73.79C1133.05 74.84 1110.37 100.88 1110.37 123.77C1110.37 141.83 1124.65 158 1155.94 158C1200.46 158 1218.52 129.86 1218.52 115.37C1218.52 110.33 1216.21 106.76 1212.22 106.76C1209.7 106.76 1206.34 108.23 1202.35 111.59C1189.33 125.45 1175.68 136.79 1162.45 136.79C1139.98 136.79 1130.11 126.71 1130.11 117.68C1130.11 110.12 1136.83 103.19 1148.59 103.19C1154.89 103.19 1162.45 105.08 1171.27 109.91L1170.43 110.96C1164.76 108.02 1159.72 106.76 1155.31 106.76C1144.39 106.76 1138.3 114.74 1138.3 121.88C1138.3 127.76 1142.29 133.01 1151.32 133.01C1182.19 133.01 1214.32 56.15 1248.55 56.15C1265.14 56.15 1270.6 64.55 1270.6 72.53C1270.6 75.68 1269.76 78.62 1268.5 81.35L1267.66 80.93C1268.29 78.83 1268.71 76.52 1268.71 74.21C1268.71 67.07 1265.14 59.93 1256.53 59.93C1243.93 59.93 1226.71 84.29 1207.81 105.71C1209.7 104.66 1211.59 104.24 1213.06 104.24C1217.68 104.24 1220.41 108.23 1220.41 114.32C1220.41 131.54 1198.99 165.14 1146.07 165.14C1107.64 165.14 1089.37 146.24 1089.37 125.66C1089.37 102.35 1112.47 76.73 1156.36 72.74C1135.78 72.74 1125.91 62.45 1125.91 50.27C1125.91 32.42 1147.54 9.94999 1187.65 9.94999C1216.84 9.94999 1229.02 21.71 1229.02 33.47C1229.02 45.86 1216 58.46 1195.63 58.46C1188.28 58.46 1180.09 56.78 1171.27 53L1171.69 51.32C1176.73 53.42 1181.56 54.26 1185.97 54.26C1202.77 54.26 1213.9 41.66 1213.9 30.32C1213.9 20.87 1206.34 12.26 1188.07 12.26C1162.66 12.26 1143.76 33.68 1143.76 50.69C1143.76 62.03 1152.37 71.48 1172.95 71.06L1172.53 73.79ZM18.7812 269.51C14.3712 269.51 12.4812 267.2 12.4812 264.05C12.4812 257.54 20.2512 247.88 29.2812 247.88C33.9012 247.88 35.7912 250.19 35.7912 253.34C35.7912 259.85 28.0212 269.51 18.7812 269.51ZM13.9512 303.32C13.9512 294.29 11.2212 285.05 2.19119 285.05V284H32.8512V374.09C32.8512 375.35 33.0612 376.82 33.4812 378.5C33.9012 379.97 34.5312 381.65 35.5812 382.91C36.4212 384.38 37.6812 385.64 39.1512 386.48C40.6212 387.53 42.5112 387.95 44.8212 387.95V389H2.19119V387.95C11.2212 387.95 13.9512 379.34 13.9512 374.09V303.32ZM195.865 389C151.555 389 161.845 286.1 124.675 286.1C99.8953 286.1 83.0953 323.9 83.0953 374.09C83.0953 375.35 83.3053 376.82 83.7253 378.5C84.1453 379.97 84.7753 381.65 85.8253 382.91C86.6653 384.38 87.9253 385.64 89.3953 386.48C90.8653 387.53 92.7553 387.95 95.0653 387.95V389H52.4353V387.95C61.4653 387.95 64.1953 379.34 64.1953 374.09V303.32C64.1953 294.29 61.4653 285.05 52.4353 285.05V284H83.0953V342.8C88.7653 304.58 105.145 281.9 131.185 281.9C186.625 281.9 176.125 387.95 209.515 387.95V389H195.865ZM217.832 375.98L242.402 286.52H224.972V284H252.482C243.242 281.27 238.832 274.13 239.882 266.57C242.402 249.56 268.022 239.9 286.712 239.9C298.472 239.9 307.502 243.68 306.452 252.08C305.612 258.38 297.422 269.09 285.452 272.87L284.192 272.24C289.652 268.67 296.372 260.9 296.372 253.97C296.372 246.62 290.072 242.42 282.092 242.42C270.962 242.42 256.472 251.03 253.532 270.98C252.692 278.33 255.002 284 261.722 284H297.842V286.52H261.092L236.732 374.09C225.182 415.25 205.022 433.73 180.662 433.73C164.282 433.73 155.672 426.59 155.672 418.61C155.672 412.1 161.552 404.96 173.942 401.39L174.992 402.02C170.162 407.27 168.062 412.1 168.062 416.3C168.062 424.91 176.882 430.58 186.962 430.58C201.242 430.58 207.752 412.31 217.832 375.98ZM330.277 391.73C296.677 391.73 282.187 373.46 282.187 351.83C282.187 320.33 312.847 282.11 360.937 282.11C394.327 282.11 408.817 300.38 408.817 322.01C408.817 353.3 378.157 391.73 330.277 391.73ZM360.097 284.63C325.657 284.63 300.037 325.58 300.037 356.45C300.037 374.72 309.277 389.21 330.907 389.21C365.557 389.21 391.177 348.26 391.177 317.6C391.177 299.12 381.937 284.63 360.097 284.63ZM470.058 372.83C467.328 372.83 464.808 372.83 462.288 372.62C439.818 372.62 426.378 389.63 426.378 398.24C426.378 401.18 427.848 403.28 431.208 403.28C444.648 403.28 490.428 378.5 519.828 378.5C533.268 378.5 543.138 389.21 543.138 404.33C543.138 446.96 497.568 472.79 467.748 472.79C453.468 472.79 442.548 466.7 442.548 453.47C442.548 432.47 471.948 418.4 490.008 419.87L489.798 422.39C472.998 420.92 445.068 434.15 445.068 453.47C445.068 460.19 449.898 462.92 457.038 462.92C482.658 462.92 540.618 428.27 540.618 404.12C540.618 393.83 534.528 389.84 525.288 389.84C499.458 389.84 448.428 420.29 432.888 420.29C422.178 420.29 417.768 413.15 417.768 406.22C417.768 391.52 436.878 374.3 453.048 370.73C434.778 365.9 426.378 352.46 426.378 337.76C426.378 311.93 451.578 281.69 493.998 281.69C499.878 281.69 505.128 282.32 509.958 283.58C527.388 279.59 538.518 268.04 538.518 259.85C538.518 252.92 533.898 249.56 527.808 249.56C520.668 249.56 512.058 254.18 506.808 263.21L505.548 262.16C505.548 246.62 518.568 235.7 529.278 235.7C536.628 235.7 542.928 240.95 542.718 253.55C542.718 267.2 534.738 278.54 514.158 284.84C530.118 290.51 537.468 302.9 537.468 316.97C537.468 342.59 512.478 372.83 470.058 372.83ZM493.158 284.42C464.178 284.42 445.068 316.34 445.068 341.33C445.068 357.08 452.838 370.1 470.898 370.1C499.248 370.1 518.988 337.55 518.988 312.77C518.988 297.02 511.218 284.42 493.158 284.42ZM620.211 326.63L618.741 324.74C626.091 318.44 629.451 309.41 629.451 301.64C629.451 293.03 625.251 286.1 617.901 286.1C595.851 286.1 584.511 323.9 584.511 374.09C584.511 375.35 584.721 376.82 585.141 378.5C585.561 379.97 586.191 381.65 587.241 382.91C588.081 384.38 589.341 385.64 590.811 386.48C592.281 387.53 594.171 387.95 596.481 387.95V389H553.851V387.95C562.881 387.95 565.611 379.34 565.611 374.09V303.32C565.611 294.29 562.881 285.05 553.851 285.05V284H584.511V337.13C589.131 302.48 601.311 281.9 624.411 281.9C641.001 281.9 649.191 291.98 649.191 302.48C649.191 314.03 639.321 326.21 620.211 326.63ZM649.301 352.67C649.301 341.33 654.761 332.72 662.741 326.42C662.951 298.91 678.911 281.9 709.151 281.9C764.591 281.9 754.091 387.95 787.481 387.95V389H773.831C754.511 389 745.481 369.26 738.551 347.21C738.971 374.93 719.441 392.15 696.341 392.15C668.201 392.15 649.301 375.98 649.301 352.67ZM664.841 324.95C677.441 316.13 695.501 312.14 710.831 312.14C717.341 312.14 723.641 312.98 728.261 314.24C722.591 298.28 715.451 286.1 702.641 286.1C680.171 286.1 666.311 302.48 664.841 324.95ZM668.201 352.67C668.201 373.88 685.001 387.95 702.011 387.95C718.181 387.95 736.451 372.41 736.451 347.84C736.451 343.85 735.821 339.44 734.771 335.03C733.091 328.94 731.201 323.06 729.521 317.39C725.531 316.13 720.911 315.5 716.291 315.5C694.871 315.5 668.201 328.31 668.201 352.67ZM842.147 282.53C889.187 282.53 915.857 318.23 915.857 348.89C915.857 371.99 900.737 392.15 868.187 392.15C845.717 392.15 828.497 375.77 822.197 349.31V428.27C822.407 429.11 822.617 429.95 822.827 431C823.247 432.47 823.877 433.94 824.717 435.41C825.767 436.88 826.817 438.14 828.287 438.98C829.757 440.03 831.647 440.45 833.957 440.45V441.5H791.537V440.45C799.937 440.45 803.087 432.89 803.297 427.85V303.32C803.297 294.29 800.567 285.05 791.537 285.05V284H822.197C826.607 284 833.327 282.53 842.147 282.53ZM862.727 387.95C885.617 387.95 896.537 369.68 896.537 348.68C896.537 319.91 875.957 285.89 837.947 285.89C831.647 285.89 826.397 286.1 822.197 286.31L822.407 328.31C822.407 364.22 842.567 387.95 862.727 387.95ZM1073.8 389C1029.49 389 1039.78 286.1 1002.61 286.1C977.835 286.1 961.035 323.9 961.035 374.09C961.035 375.35 961.245 376.82 961.665 378.5C962.085 379.97 962.715 381.44 963.765 382.91C965.445 385.64 968.595 387.95 973.005 387.95V389H930.375V387.95C939.405 387.95 942.135 379.34 942.135 374.09V250.82C942.135 241.79 939.405 232.55 930.375 232.55V231.5H961.035V342.8C966.705 304.58 983.085 281.9 1009.12 281.9C1064.56 281.9 1054.06 387.95 1087.45 387.95V389H1073.8ZM1107.95 269.51C1103.54 269.51 1101.65 267.2 1101.65 264.05C1101.65 257.54 1109.42 247.88 1118.45 247.88C1123.07 247.88 1124.96 250.19 1124.96 253.34C1124.96 259.85 1117.19 269.51 1107.95 269.51ZM1103.12 303.32C1103.12 294.29 1100.39 285.05 1091.36 285.05V284H1122.02V374.09C1122.02 375.35 1122.23 376.82 1122.65 378.5C1123.07 379.97 1123.7 381.65 1124.75 382.91C1125.59 384.38 1126.85 385.64 1128.32 386.48C1129.79 387.53 1131.68 387.95 1133.99 387.95V389H1091.36V387.95C1100.39 387.95 1103.12 379.34 1103.12 374.09V303.32ZM1243.67 359.81L1245.98 361.07C1234.43 378.5 1213.85 391.73 1192.43 391.73C1158.83 391.73 1144.34 373.46 1144.34 351.83C1144.34 320.33 1175 282.11 1223.09 282.11C1247.66 282.11 1259.21 293.87 1259.21 307.94C1259.21 328.94 1233.8 354.98 1187.81 354.98C1180.04 354.98 1171.43 354.35 1162.61 352.67C1161.98 371.36 1170.8 386.69 1193.48 386.69C1213.22 386.69 1234.01 375.35 1243.67 359.81ZM1222.25 284.63C1189.49 284.63 1164.71 321.17 1162.61 350.36C1168.49 351.83 1174.16 352.46 1179.62 352.46C1217 352.46 1243.25 322.01 1243.25 301.85C1243.25 291.98 1236.74 284.63 1222.25 284.63Z"/>
</mask>
<path d="M32.6756 158V159H33.6756V158H32.6756ZM0.965647 158H-0.0343533V159H0.965647V158ZM0.965647 156.95V155.95H-0.0343533V156.95H0.965647ZM12.5156 144.56L13.5125 144.64L13.5156 144.6V144.56H12.5156ZM12.5156 24.23H13.5156V24.1884L13.5122 24.1469L12.5156 24.23ZM0.965647 12.05H-0.0343533V13.05H0.965647V12.05ZM0.965647 11V9.99999H-0.0343533V11H0.965647ZM77.8256 76.52L77.6572 75.5343L77.6881 77.5105L77.8256 76.52ZM32.6756 118.94L33.6528 118.728L31.6756 118.94H32.6756ZM32.6756 13.52V12.52H31.6756V13.52H32.6756ZM32.6756 75.26H31.6756V76.26H32.6756V75.26ZM32.6756 77.78V76.78H31.6756V77.78H32.6756ZM32.6756 100.88H31.6756V100.901L31.6765 100.923L32.6756 100.88ZM32.6756 157H0.965647V159H32.6756V157ZM1.96565 158V156.95H-0.0343533V158H1.96565ZM0.965647 157.95C5.3029 157.95 8.36903 155.99 10.3746 153.325C12.3533 150.696 13.2914 147.403 13.5125 144.64L11.5188 144.48C11.3199 146.967 10.473 149.869 8.77668 152.122C7.10727 154.34 4.60839 155.95 0.965647 155.95V157.95ZM13.5156 144.56V24.23H11.5156V144.56H13.5156ZM13.5122 24.1469C13.2903 21.4843 12.3499 18.2446 10.3715 15.6445C8.36656 13.0094 5.30215 11.05 0.965647 11.05V13.05C4.60914 13.05 7.10973 14.6605 8.77982 16.8555C10.4764 19.0854 11.321 21.9357 11.5191 24.313L13.5122 24.1469ZM1.96565 12.05V11H-0.0343533V12.05H1.96565ZM0.965647 12H62.2856V9.99999H0.965647V12ZM62.2856 12C97.1384 12 113.786 28.4262 113.786 44.39H115.786C115.786 26.7538 97.5729 9.99999 62.2856 9.99999V12ZM113.786 44.39C113.786 57.7789 101.967 71.3787 77.6572 75.5343L77.9941 77.5057C102.824 73.2612 115.786 59.141 115.786 44.39H113.786ZM77.6881 77.5105C115.235 82.7253 132.056 102.639 132.056 120.83H134.056C134.056 101.221 116.016 80.8147 77.9632 75.5295L77.6881 77.5105ZM132.056 120.83C132.056 139.83 114.233 158.05 81.3956 158.05V160.05C114.919 160.05 134.056 141.31 134.056 120.83H132.056ZM81.3956 158.05C70.9604 158.05 60.5737 155.312 52.0354 149.056C43.5099 142.809 36.7561 133.003 33.6528 118.728L31.6985 119.152C34.8952 133.857 41.8964 144.106 50.8533 150.669C59.7976 157.223 70.6208 160.05 81.3956 160.05V158.05ZM31.6756 118.94V158H33.6756V118.94H31.6756ZM31.6756 13.52V75.26H33.6756V13.52H31.6756ZM32.6756 76.26H56.1956V74.26H32.6756V76.26ZM56.1956 76.26C69.7091 76.26 79.6208 72.5872 86.1703 66.9345C92.7245 61.2778 95.8356 53.7001 95.8356 46.07H93.8356C93.8356 53.1398 90.9618 60.1572 84.8635 65.4205C78.7605 70.6878 69.3522 74.26 56.1956 74.26V76.26ZM95.8356 46.07C95.8356 29.4964 81.4646 12.52 56.1956 12.52V14.52C80.4867 14.52 93.8356 30.7235 93.8356 46.07H95.8356ZM56.1956 12.52H32.6756V14.52H56.1956V12.52ZM51.9956 76.78H32.6756V78.78H51.9956V76.78ZM31.6756 77.78V100.88H33.6756V77.78H31.6756ZM31.6765 100.923C32.5232 120.818 37.9797 134.507 45.8453 143.234C53.7211 151.973 63.9257 155.64 74.0456 155.64V153.64C64.4256 153.64 54.7851 150.167 47.331 141.896C39.8666 133.613 34.5081 120.422 33.6747 100.837L31.6765 100.923ZM74.0456 155.64C86.9682 155.64 97.0425 151.524 103.895 145.078C110.744 138.635 114.316 129.916 114.316 120.83H112.316C112.316 129.384 108.958 137.57 102.524 143.622C96.0938 149.671 86.5331 153.64 74.0456 153.64V155.64ZM114.316 120.83C114.316 99.5158 94.5565 76.78 51.9956 76.78V78.78C93.8548 78.78 112.316 100.984 112.316 120.83H114.316ZM212.926 95.63L212.137 96.2439L212.446 96.6408L212.948 96.6297L212.926 95.63ZM211.456 93.74L210.805 92.9807L210.081 93.6013L210.667 94.3539L211.456 93.74ZM177.856 147.5L176.886 147.743L176.89 147.759L176.895 147.775L177.856 147.5ZM179.956 151.91L180.824 151.414L180.781 151.337L180.724 151.27L179.956 151.91ZM183.526 155.48L184.107 154.666L184.066 154.637L184.022 154.612L183.526 155.48ZM189.196 156.95H190.196V155.95H189.196V156.95ZM189.196 158V159H190.196V158H189.196ZM146.566 158H145.566V159H146.566V158ZM146.566 156.95V155.95H145.566V156.95H146.566ZM146.566 54.05H145.566V55.05H146.566V54.05ZM146.566 53V52H145.566V53H146.566ZM177.226 53H178.226V52H177.226V53ZM177.226 106.13H176.226L178.217 106.262L177.226 106.13ZM213.716 95.016L212.246 93.126L210.667 94.3539L212.137 96.2439L213.716 95.016ZM212.107 94.4992C219.699 87.9921 223.166 78.6745 223.166 70.64H221.166C221.166 78.1455 217.914 86.8879 210.805 92.9807L212.107 94.4992ZM223.166 70.64C223.166 66.1872 222.082 62.0859 219.966 59.0673C217.83 56.02 214.651 54.1 210.616 54.1V56.1C213.932 56.1 216.527 57.645 218.329 60.2152C220.15 62.8141 221.166 66.4828 221.166 70.64H223.166ZM210.616 54.1C198.901 54.1 190.326 64.1462 184.71 79.9387C179.065 95.8139 176.226 117.939 176.226 143.09H178.226C178.226 118.051 181.057 96.1811 186.595 80.6088C192.161 64.9538 200.281 56.1 210.616 56.1V54.1ZM176.226 143.09C176.226 144.456 176.453 146.01 176.886 147.743L178.826 147.257C178.419 145.629 178.226 144.244 178.226 143.09H176.226ZM176.895 147.775C177.325 149.28 178.001 151.126 179.188 152.55L180.724 151.27C179.812 150.174 179.228 148.66 178.818 147.225L176.895 147.775ZM179.088 152.406C180.017 154.031 181.405 155.42 183.03 156.348L184.022 154.612C182.707 153.86 181.576 152.729 180.824 151.414L179.088 152.406ZM182.945 156.294C184.651 157.512 186.778 157.95 189.196 157.95V155.95C186.994 155.95 185.341 155.548 184.107 154.666L182.945 156.294ZM188.196 156.95V158H190.196V156.95H188.196ZM189.196 157H146.566V159H189.196V157ZM147.566 158V156.95H145.566V158H147.566ZM146.566 157.95C151.463 157.95 154.702 155.587 156.673 152.531C158.613 149.522 159.326 145.856 159.326 143.09H157.326C157.326 145.574 156.674 148.838 154.992 151.447C153.341 154.008 150.699 155.95 146.566 155.95V157.95ZM159.326 143.09V72.32H157.326V143.09H159.326ZM159.326 72.32C159.326 67.7326 158.637 62.9779 156.717 59.3327C154.763 55.6233 151.513 53.05 146.566 53.05V55.05C150.649 55.05 153.279 57.0967 154.948 60.2648C156.65 63.4971 157.326 67.8774 157.326 72.32H159.326ZM147.566 54.05V53H145.566V54.05H147.566ZM146.566 54H177.226V52H146.566V54ZM176.226 53V106.13H178.226V53H176.226ZM178.217 106.262C180.519 88.9999 184.691 75.3743 191.07 66.0875C197.412 56.8559 205.937 51.9 217.126 51.9V49.9C205.215 49.9 196.1 55.2341 189.422 64.955C182.782 74.6207 178.553 88.61 176.235 105.998L178.217 106.262ZM217.126 51.9C225.215 51.9 231.152 54.3534 235.056 57.9848C238.964 61.6186 240.906 66.4935 240.906 71.48H242.906C242.906 65.9665 240.753 60.5514 236.418 56.5202C232.081 52.4865 225.628 49.9 217.126 49.9V51.9ZM240.906 71.48C240.906 82.4052 231.555 94.2203 212.904 94.6302L212.948 96.6297C232.517 96.1997 242.906 83.6548 242.906 71.48H240.906ZM255.456 95.42L256.076 96.2049L256.452 95.9075L256.456 95.4276L255.456 95.42ZM380.196 156.95H381.196V155.95H380.196V156.95ZM380.196 158V159H381.196V158H380.196ZM331.266 116.21L332.22 115.91L330.266 116.225L331.266 116.21ZM257.556 93.95L256.558 93.8847L256.422 95.9644L258.13 94.7692L257.556 93.95ZM320.976 83.24L320.713 84.2048L322.559 84.7082L321.918 82.9052L320.976 83.24ZM327.486 104.03L328.459 103.798L328.455 103.781L328.45 103.764L327.486 104.03ZM322.236 86.39L323.195 86.1059L323.044 85.5964L322.537 85.4364L322.236 86.39ZM243.016 121.67C243.016 110.7 248.281 102.359 256.076 96.2049L254.836 94.6351C246.672 101.081 241.016 109.96 241.016 121.67H243.016ZM256.456 95.4276C256.56 81.8623 260.542 71.0139 268.102 63.5556C275.662 56.0973 286.931 51.9 301.866 51.9V49.9C286.561 49.9 274.73 54.2077 266.698 62.1319C258.665 70.0561 254.563 81.4677 254.456 95.4124L256.456 95.4276ZM301.866 51.9C315.337 51.9 324.801 58.3133 331.994 68.0639C339.221 77.8614 344.109 90.976 348.347 104.23C352.562 117.409 356.147 130.782 360.759 140.798C365.35 150.772 371.197 157.95 380.196 157.95V155.95C372.5 155.95 367.138 149.872 362.575 139.961C358.032 130.093 354.516 116.953 350.252 103.62C346.012 90.3614 341.043 76.9635 333.603 66.8767C326.128 56.743 316.116 49.9 301.866 49.9V51.9ZM379.196 156.95V158H381.196V156.95H379.196ZM380.196 157H366.546V159H380.196V157ZM366.546 157C357.299 157 350.483 152.304 345.071 144.789C339.633 137.238 335.681 126.924 332.22 115.91L330.312 116.51C333.781 127.546 337.809 138.127 343.448 145.958C349.114 153.826 356.473 159 366.546 159V157ZM330.266 116.225C330.678 143.379 311.606 160.15 289.056 160.15V162.15C312.706 162.15 332.695 144.481 332.266 116.195L330.266 116.225ZM289.056 160.15C275.173 160.15 263.656 156.162 255.629 149.387C247.614 142.623 243.016 133.034 243.016 121.67H241.016C241.016 133.616 245.868 143.767 254.339 150.915C262.796 158.053 274.8 162.15 289.056 162.15V160.15ZM258.13 94.7692C270.51 86.103 288.348 82.14 303.546 82.14V80.14C288.084 80.14 269.802 84.157 256.983 93.1308L258.13 94.7692ZM303.546 82.14C309.981 82.14 316.191 82.9715 320.713 84.2048L321.239 82.2752C316.521 80.9885 310.131 80.14 303.546 80.14V82.14ZM321.918 82.9052C319.074 74.8982 315.826 67.7309 311.62 62.5544C307.388 57.3456 302.137 54.1 295.356 54.1V56.1C301.385 56.1 306.11 58.9444 310.067 63.8156C314.052 68.7191 317.208 75.6218 320.034 83.5748L321.918 82.9052ZM295.356 54.1C283.86 54.1 274.508 58.2982 267.851 65.4156C261.206 72.5198 257.305 82.4663 256.558 93.8847L258.554 94.0153C259.277 82.9637 263.041 73.4851 269.311 66.7818C275.569 60.0918 284.382 56.1 295.356 56.1V54.1ZM259.916 121.67C259.916 143.456 277.188 157.95 294.726 157.95V155.95C278.244 155.95 261.916 142.304 261.916 121.67H259.916ZM294.726 157.95C311.499 157.95 330.166 141.91 330.166 116.84H328.166C328.166 140.91 310.293 155.95 294.726 155.95V157.95ZM330.166 116.84C330.166 112.751 329.521 108.261 328.459 103.798L326.513 104.262C327.551 108.619 328.166 112.949 328.166 116.84H330.166ZM328.45 103.764C326.768 97.665 324.865 91.7438 323.195 86.1059L321.277 86.6741C322.967 92.3762 324.845 98.215 326.522 104.296L328.45 103.764ZM322.537 85.4364C318.434 84.1407 313.71 83.5 309.006 83.5V85.5C313.542 85.5 318.058 86.1193 321.935 87.3436L322.537 85.4364ZM309.006 83.5C298.12 83.5 285.9 86.7497 276.373 93.1187C266.828 99.4995 259.916 109.072 259.916 121.67H261.916C261.916 109.908 268.339 100.896 277.484 94.7813C286.648 88.6553 298.472 85.5 309.006 85.5V83.5ZM415.542 147.5L414.572 147.743L414.576 147.759L414.58 147.775L415.542 147.5ZM417.642 151.91L418.51 151.414L418.466 151.337L418.41 151.27L417.642 151.91ZM421.212 155.48L421.793 154.666L421.752 154.637L421.708 154.612L421.212 155.48ZM426.882 156.95H427.882V155.95H426.882V156.95ZM426.882 158V159H427.882V158H426.882ZM384.252 158H383.252V159H384.252V158ZM384.252 156.95V155.95H383.252V156.95H384.252ZM384.252 54.05H383.252V55.05H384.252V54.05ZM384.252 53V52H383.252V53H384.252ZM414.912 53H415.912V52H414.912V53ZM414.912 111.8H413.912L415.901 111.947L414.912 111.8ZM541.332 156.95H542.332V155.95H541.332V156.95ZM541.332 158V159H542.332V158H541.332ZM527.682 157C517.088 157 509.696 150.888 503.947 141.404C498.178 131.886 494.181 119.15 490.368 106.266C486.576 93.4502 482.963 80.473 477.955 70.7212C472.947 60.9718 466.362 54.1 456.492 54.1V56.1C465.206 56.1 471.274 62.0907 476.176 71.635C481.076 81.177 484.63 93.9247 488.45 106.834C492.25 119.675 496.311 132.664 502.237 142.44C508.182 152.249 516.12 159 527.682 159V157ZM456.492 54.1C443.517 54.1 432.861 63.9972 425.502 79.8528C418.125 95.7475 413.912 117.9 413.912 143.09H415.912C415.912 118.09 420.098 96.2474 427.316 80.6947C434.553 65.1028 444.687 56.1 456.492 56.1V54.1ZM413.912 143.09C413.912 144.456 414.139 146.01 414.572 147.743L416.512 147.257C416.105 145.629 415.912 144.244 415.912 143.09H413.912ZM414.58 147.775C415.01 149.28 415.686 151.126 416.873 152.55L418.41 151.27C417.497 150.174 416.913 148.66 416.503 147.225L414.58 147.775ZM416.773 152.406C417.702 154.031 419.091 155.42 420.716 156.348L421.708 154.612C420.393 153.86 419.261 152.729 418.51 151.414L416.773 152.406ZM420.63 156.294C422.337 157.512 424.464 157.95 426.882 157.95V155.95C424.68 155.95 423.027 155.548 421.793 154.666L420.63 156.294ZM425.882 156.95V158H427.882V156.95H425.882ZM426.882 157H384.252V159H426.882V157ZM385.252 158V156.95H383.252V158H385.252ZM384.252 157.95C389.149 157.95 392.387 155.587 394.358 152.531C396.299 149.522 397.012 145.856 397.012 143.09H395.012C395.012 145.574 394.36 148.838 392.678 151.447C391.026 154.008 388.385 155.95 384.252 155.95V157.95ZM397.012 143.09V72.32H395.012V143.09H397.012ZM397.012 72.32C397.012 67.7326 396.323 62.9779 394.403 59.3327C392.449 55.6233 389.199 53.05 384.252 53.05V55.05C388.335 55.05 390.965 57.0967 392.633 60.2648C394.336 63.4971 395.012 67.8774 395.012 72.32H397.012ZM385.252 54.05V53H383.252V54.05H385.252ZM384.252 54H414.912V52H384.252V54ZM413.912 53V111.8H415.912V53H413.912ZM415.901 111.947C418.722 92.9279 424.195 77.8895 432.11 67.6283C439.997 57.4036 450.319 51.9 463.002 51.9V49.9C449.644 49.9 438.757 55.7364 430.526 66.4067C422.324 77.0405 416.771 92.4521 413.923 111.653L415.901 111.947ZM463.002 51.9C476.472 51.9 485.937 58.3133 493.129 68.0639C500.356 77.8614 505.244 90.976 509.483 104.23C513.698 117.409 517.283 130.782 521.894 140.798C526.486 150.772 532.333 157.95 541.332 157.95V155.95C533.636 155.95 528.274 149.872 523.711 139.961C519.168 130.093 515.652 116.953 511.388 103.62C507.148 90.3614 502.179 76.9635 494.739 66.8767C487.264 56.743 477.251 49.9 463.002 49.9V51.9ZM540.332 156.95V158H542.332V156.95H540.332ZM541.332 157H527.682V159H541.332V157ZM638.421 55.1L638.007 56.0104L639.421 56.653V55.1H638.421ZM626.451 1.54999H625.451V2.54999H626.451V1.54999ZM626.451 0.499987V-0.500013H625.451V0.499987H626.451ZM657.321 0.499987H658.321V-0.500013H657.321V0.499987ZM657.741 147.5L656.748 147.624L656.758 147.701L656.779 147.775L657.741 147.5ZM659.841 151.91L660.692 151.386L660.674 151.357L660.654 151.329L659.841 151.91ZM669.081 156.95H670.081V155.95H669.081V156.95ZM669.081 158V159H670.081V158H669.081ZM638.421 158H637.421V159H638.421V158ZM638.421 118.31H639.421L637.448 118.078L638.421 118.31ZM638.421 57.83H639.421V57.1834L638.831 56.9181L638.421 57.83ZM639.421 55.1V19.82H637.421V55.1H639.421ZM639.421 19.82C639.421 15.2235 638.677 10.4672 636.701 6.82224C634.694 3.11815 631.393 0.549986 626.451 0.549986V2.54999C630.538 2.54999 633.223 4.60183 634.943 7.77524C636.695 11.0078 637.421 15.3865 637.421 19.82H639.421ZM627.451 1.54999V0.499987H625.451V1.54999H627.451ZM626.451 1.49999H657.321V-0.500013H626.451V1.49999ZM656.321 0.499987V143.09H658.321V0.499987H656.321ZM656.321 143.09C656.321 144.43 656.543 145.983 656.748 147.624L658.733 147.376C658.518 145.657 658.321 144.27 658.321 143.09H656.321ZM656.779 147.775C657.225 149.335 657.899 150.913 659.027 152.491L660.654 151.329C659.682 149.967 659.096 148.605 658.702 147.225L656.779 147.775ZM658.989 152.434C660.83 155.425 664.285 157.95 669.081 157.95V155.95C665.056 155.95 662.211 153.855 660.692 151.386L658.989 152.434ZM668.081 156.95V158H670.081V156.95H668.081ZM669.081 157H638.421V159H669.081V157ZM639.421 158V118.31H637.421V158H639.421ZM637.448 118.078C631.22 144.234 614.302 160.15 592.431 160.15V162.15C615.499 162.15 633.021 145.305 639.393 118.542L637.448 118.078ZM592.431 160.15C576.368 160.15 564.726 155.181 557.1 147.479C549.467 139.77 545.761 129.224 545.761 117.89H543.761C543.761 129.656 547.614 140.74 555.679 148.886C563.75 157.039 575.943 162.15 592.431 162.15V160.15ZM545.761 117.89C545.761 87.7666 571.999 52.53 618.471 52.53V50.53C570.863 50.53 543.761 86.6934 543.761 117.89H545.761ZM618.471 52.53C626.768 52.53 633.549 53.9842 638.007 56.0104L638.834 54.1896C634.052 52.0158 626.973 50.53 618.471 50.53V52.53ZM598.101 157.95C608.587 157.95 618.938 151.786 626.629 141.211C634.329 130.624 639.421 115.554 639.421 97.52H637.421C637.421 115.186 632.432 129.831 625.012 140.034C617.583 150.249 607.775 155.95 598.101 155.95V157.95ZM639.421 97.52V57.83H637.421V97.52H639.421ZM638.831 56.9181C634.474 54.9575 628.868 53.89 622.881 53.89V55.89C628.653 55.89 633.967 56.9225 638.01 58.7419L638.831 56.9181ZM622.881 53.89C583.927 53.89 563.291 88.5579 563.291 117.68H565.291C565.291 89.2621 585.394 55.89 622.881 55.89V53.89ZM563.291 117.68C563.291 128.339 566.06 138.391 571.822 145.804C577.609 153.248 586.357 157.95 598.101 157.95V155.95C586.954 155.95 578.797 151.517 573.401 144.576C567.981 137.604 565.291 128.021 565.291 117.68H563.291ZM676.693 54.05H675.693V55.05H676.693V54.05ZM676.693 53V52H675.693V53H676.693ZM707.353 53H708.353V52H707.353V53ZM707.983 147.5L707.013 147.743L707.017 147.759L707.022 147.775L707.983 147.5ZM710.083 151.91L710.951 151.414L710.908 151.337L710.851 151.27L710.083 151.91ZM713.653 155.48L714.234 154.666L714.193 154.637L714.149 154.612L713.653 155.48ZM719.323 156.95H720.323V155.95H719.323V156.95ZM719.323 158V159H720.323V158H719.323ZM676.693 158H675.693V159H676.693V158ZM676.693 156.95V155.95H675.693V156.95H676.693ZM693.283 37.51C691.245 37.51 689.95 36.9778 689.168 36.2358C688.391 35.4992 687.983 34.4253 687.983 33.05H685.983C685.983 34.8247 686.52 36.4807 687.791 37.6867C689.056 38.8872 690.911 39.51 693.283 39.51V37.51ZM687.983 33.05C687.983 30.1376 689.757 26.3292 692.721 23.213C695.67 20.1131 699.625 17.88 703.783 17.88V15.88C698.911 15.88 694.466 18.4768 691.272 21.8345C688.094 25.1758 685.983 29.4524 685.983 33.05H687.983ZM703.783 17.88C705.937 17.88 707.287 18.4182 708.092 19.1628C708.886 19.8977 709.293 20.9657 709.293 22.34H711.293C711.293 20.5642 710.755 18.9023 709.45 17.6946C708.155 16.4968 706.249 15.88 703.783 15.88V17.88ZM709.293 22.34C709.293 25.2516 707.52 29.0591 704.532 32.174C701.56 35.2709 697.552 37.51 693.283 37.51V39.51C698.254 39.51 702.751 36.9191 705.975 33.5585C709.181 30.2159 711.293 25.9384 711.293 22.34H709.293ZM689.453 72.32C689.453 67.7326 688.764 62.9779 686.844 59.3327C684.89 55.6233 681.64 53.05 676.693 53.05V55.05C680.776 55.05 683.406 57.0967 685.075 60.2648C686.777 63.4971 687.453 67.8774 687.453 72.32H689.453ZM677.693 54.05V53H675.693V54.05H677.693ZM676.693 54H707.353V52H676.693V54ZM706.353 53V143.09H708.353V53H706.353ZM706.353 143.09C706.353 144.456 706.58 146.01 707.013 147.743L708.953 147.257C708.546 145.629 708.353 144.244 708.353 143.09H706.353ZM707.022 147.775C707.452 149.28 708.128 151.126 709.315 152.55L710.851 151.27C709.938 150.174 709.354 148.66 708.945 147.225L707.022 147.775ZM709.215 152.406C710.143 154.031 711.532 155.42 713.157 156.348L714.149 154.612C712.834 153.86 711.703 152.729 710.951 151.414L709.215 152.406ZM713.072 156.294C714.778 157.512 716.905 157.95 719.323 157.95V155.95C717.121 155.95 715.468 155.548 714.234 154.666L713.072 156.294ZM718.323 156.95V158H720.323V156.95H718.323ZM719.323 157H676.693V159H719.323V157ZM677.693 158V156.95H675.693V158H677.693ZM676.693 157.95C681.59 157.95 684.829 155.587 686.8 152.531C688.74 149.522 689.453 145.856 689.453 143.09H687.453C687.453 145.574 686.801 148.838 685.119 151.447C683.468 154.008 680.826 155.95 676.693 155.95V157.95ZM689.453 143.09V72.32H687.453V143.09H689.453ZM758.227 147.5L757.257 147.743L757.261 147.759L757.266 147.775L758.227 147.5ZM760.327 151.91L761.196 151.414L761.152 151.337L761.095 151.27L760.327 151.91ZM763.897 155.48L764.478 154.666L764.437 154.637L764.393 154.612L763.897 155.48ZM769.567 156.95H770.567V155.95H769.567V156.95ZM769.567 158V159H770.567V158H769.567ZM726.937 158H725.937V159H726.937V158ZM726.937 156.95V155.95H725.937V156.95H726.937ZM726.937 54.05H725.937V55.05H726.937V54.05ZM726.937 53V52H725.937V53H726.937ZM757.597 53H758.597V52H757.597V53ZM757.597 111.8H756.597L758.586 111.947L757.597 111.8ZM884.017 156.95H885.017V155.95H884.017V156.95ZM884.017 158V159H885.017V158H884.017ZM870.367 157C859.774 157 852.381 150.888 846.633 141.404C840.864 131.886 836.866 119.15 833.054 106.266C829.261 93.4502 825.649 80.473 820.64 70.7212C815.633 60.9718 809.048 54.1 799.177 54.1V56.1C807.892 56.1 813.959 62.0907 818.861 71.635C823.762 81.177 827.316 93.9247 831.136 106.834C834.936 119.675 838.997 132.664 844.922 142.44C850.868 152.249 858.805 159 870.367 159V157ZM799.177 54.1C786.202 54.1 775.546 63.9972 768.188 79.8528C760.811 95.7475 756.597 117.9 756.597 143.09H758.597C758.597 118.09 762.784 96.2474 770.002 80.6947C777.238 65.1028 787.372 56.1 799.177 56.1V54.1ZM756.597 143.09C756.597 144.456 756.824 146.01 757.257 147.743L759.197 147.257C758.79 145.629 758.597 144.244 758.597 143.09H756.597ZM757.266 147.775C757.696 149.28 758.372 151.126 759.559 152.55L761.095 151.27C760.183 150.174 759.599 148.66 759.189 147.225L757.266 147.775ZM759.459 152.406C760.388 154.031 761.776 155.42 763.401 156.348L764.393 154.612C763.078 153.86 761.947 152.729 761.196 151.414L759.459 152.406ZM763.316 156.294C765.022 157.512 767.149 157.95 769.567 157.95V155.95C767.365 155.95 765.712 155.548 764.478 154.666L763.316 156.294ZM768.567 156.95V158H770.567V156.95H768.567ZM769.567 157H726.937V159H769.567V157ZM727.937 158V156.95H725.937V158H727.937ZM726.937 157.95C731.834 157.95 735.073 155.587 737.044 152.531C738.984 149.522 739.697 145.856 739.697 143.09H737.697C737.697 145.574 737.045 148.838 735.363 151.447C733.712 154.008 731.07 155.95 726.937 155.95V157.95ZM739.697 143.09V72.32H737.697V143.09H739.697ZM739.697 72.32C739.697 67.7326 739.008 62.9779 737.088 59.3327C735.134 55.6233 731.884 53.05 726.937 53.05V55.05C731.02 55.05 733.65 57.0967 735.319 60.2648C737.021 63.4971 737.697 67.8774 737.697 72.32H739.697ZM727.937 54.05V53H725.937V54.05H727.937ZM726.937 54H757.597V52H726.937V54ZM756.597 53V111.8H758.597V53H756.597ZM758.586 111.947C761.408 92.9279 766.88 77.8895 774.795 67.6283C782.682 57.4036 793.005 51.9 805.687 51.9V49.9C792.33 49.9 781.442 55.7364 773.212 66.4067C765.009 77.0405 759.457 92.4521 756.608 111.653L758.586 111.947ZM805.687 51.9C819.158 51.9 828.623 58.3133 835.815 68.0639C843.042 77.8614 847.93 90.976 852.169 104.23C856.383 117.409 859.968 130.782 864.58 140.798C869.172 150.772 875.018 157.95 884.017 157.95V155.95C876.321 155.95 870.959 149.872 866.396 139.961C861.853 130.093 858.337 116.953 854.073 103.62C849.833 90.3614 844.865 76.9635 837.424 66.8767C829.949 56.743 819.937 49.9 805.687 49.9V51.9ZM883.017 156.95V158H885.017V156.95H883.017ZM884.017 157H870.367V159H884.017V157ZM929.866 141.62L929.949 140.623L929.908 140.62H929.866V141.62ZM957.586 188.87L958.583 188.953L958.666 187.955L957.667 187.873L957.586 188.87ZM957.376 191.39L957.289 192.386L958.289 192.474L958.373 191.473L957.376 191.39ZM920.626 139.73L920.842 140.706L920.882 138.763L920.626 139.73ZM977.536 52.58L977.284 53.5476L977.521 53.6094L977.759 53.5548L977.536 52.58ZM974.386 32.21L973.746 32.9782L974.656 33.7362L975.251 32.7126L974.386 32.21ZM973.126 31.16H972.126V31.6284L972.486 31.9282L973.126 31.16ZM1010.3 22.55L1009.3 22.5333L1009.3 22.5417V22.55H1010.3ZM981.736 53.84L981.443 52.8838L978.55 53.7694L981.401 54.7823L981.736 53.84ZM937.636 140.83C934.898 140.83 932.421 140.829 929.949 140.623L929.783 142.617C932.352 142.831 934.914 142.83 937.636 142.83V140.83ZM929.866 140.62C918.368 140.62 909.163 144.975 902.831 150.444C899.667 153.177 897.211 156.197 895.54 159.107C893.878 162.001 892.956 164.852 892.956 167.24H894.956C894.956 165.323 895.714 162.819 897.274 160.103C898.826 157.401 901.134 154.554 904.139 151.958C910.144 146.77 918.894 142.62 929.866 142.62V140.62ZM892.956 167.24C892.956 168.863 893.361 170.391 894.361 171.524C895.38 172.679 896.889 173.28 898.786 173.28V171.28C897.324 171.28 896.417 170.831 895.861 170.201C895.286 169.549 894.956 168.557 894.956 167.24H892.956ZM898.786 173.28C900.596 173.28 902.879 172.867 905.5 172.183C908.133 171.495 911.168 170.517 914.499 169.352C921.147 167.026 929.088 163.914 937.457 160.828C954.282 154.624 972.913 148.5 987.406 148.5V146.5C972.5 146.5 953.54 152.766 936.765 158.952C928.334 162.061 920.473 165.144 913.838 167.464C910.528 168.622 907.552 169.58 904.994 170.248C902.423 170.919 900.337 171.28 898.786 171.28V173.28ZM987.406 148.5C1000.21 148.5 1009.72 158.669 1009.72 173.33H1011.72C1011.72 157.751 1001.49 146.5 987.406 146.5V148.5ZM1009.72 173.33C1009.72 194.255 998.538 211.104 983.589 222.758C968.623 234.423 949.988 240.79 935.326 240.79V242.79C950.485 242.79 969.544 236.242 984.818 224.335C1000.11 212.416 1011.72 195.035 1011.72 173.33H1009.72ZM935.326 240.79C928.308 240.79 922.235 239.29 917.947 236.273C913.704 233.289 911.126 228.767 911.126 222.47H909.126C909.126 229.403 912.008 234.541 916.796 237.909C921.537 241.245 928.064 242.79 935.326 242.79V240.79ZM911.126 222.47C911.126 212.471 918.136 203.97 927.611 198.094C937.072 192.225 948.727 189.152 957.505 189.867L957.667 187.873C948.386 187.118 936.31 190.344 926.557 196.394C916.816 202.435 909.126 211.469 909.126 222.47H911.126ZM956.59 188.787L956.38 191.307L958.373 191.473L958.583 188.953L956.59 188.787ZM957.463 190.394C948.808 189.636 937.415 192.654 928.19 198.28C918.984 203.894 911.646 212.297 911.646 222.47H913.646C913.646 213.323 920.273 205.451 929.232 199.988C938.172 194.536 949.144 191.673 957.289 192.386L957.463 190.394ZM911.646 222.47C911.646 226.1 912.969 228.786 915.367 230.525C917.709 232.223 920.945 232.92 924.616 232.92V230.92C921.147 230.92 918.398 230.252 916.541 228.905C914.738 227.599 913.646 225.56 913.646 222.47H911.646ZM924.616 232.92C931.209 232.92 939.774 230.701 948.856 227.057C957.96 223.404 967.666 218.286 976.565 212.411C985.459 206.538 993.581 199.887 999.491 193.156C1005.37 186.456 1009.2 179.529 1009.2 173.12H1007.2C1007.2 178.786 1003.77 185.246 997.988 191.836C992.23 198.394 984.261 204.933 975.463 210.742C966.669 216.548 957.081 221.602 948.112 225.201C939.121 228.808 930.834 230.92 924.616 230.92V232.92ZM1009.2 173.12C1009.2 167.773 1007.61 163.886 1004.65 161.36C1001.71 158.861 997.607 157.84 992.866 157.84V159.84C997.365 159.84 1000.92 160.814 1003.35 162.882C1005.74 164.924 1007.2 168.177 1007.2 173.12H1009.2ZM992.866 157.84C986.244 157.84 978.088 159.785 969.404 162.648C960.702 165.517 951.384 169.337 942.417 173.145C933.433 176.959 924.819 180.753 917.466 183.6C913.793 185.022 910.456 186.199 907.566 187.02C904.661 187.844 902.27 188.29 900.466 188.29V190.29C902.548 190.29 905.15 189.784 908.112 188.944C911.087 188.099 914.489 186.897 918.188 185.465C925.581 182.602 934.253 178.783 943.198 174.985C952.16 171.18 961.413 167.388 970.03 164.548C978.664 161.701 986.573 159.84 992.866 159.84V157.84ZM900.466 188.29C895.348 188.29 891.85 186.593 889.626 184.176C887.384 181.743 886.346 178.482 886.346 175.22H884.346C884.346 178.888 885.513 182.662 888.154 185.531C890.812 188.417 894.874 190.29 900.466 190.29V188.29ZM886.346 175.22C886.346 168.268 890.898 160.532 897.618 154.019C904.315 147.529 912.976 142.443 920.842 140.706L920.411 138.754C912.106 140.587 903.127 145.896 896.226 152.583C889.349 159.248 884.346 167.472 884.346 175.22H886.346ZM920.882 138.763C903.065 134.053 894.956 121.021 894.956 106.76H892.956C892.956 121.899 901.647 135.747 920.371 140.697L920.882 138.763ZM894.956 106.76C894.956 81.5495 919.639 51.69 961.576 51.69V49.69C918.674 49.69 892.956 80.3105 892.956 106.76H894.956ZM961.576 51.69C967.384 51.69 972.548 52.3122 977.284 53.5476L977.789 51.6124C972.864 50.3278 967.528 49.69 961.576 49.69V51.69ZM977.759 53.5548C986.629 51.5243 993.923 47.565 999.017 43.0374C1004.07 38.5432 1007.1 33.3582 1007.1 28.85H1005.1C1005.1 32.5318 1002.55 37.2168 997.688 41.5426C992.859 45.835 985.873 49.6457 977.313 51.6052L977.759 53.5548ZM1007.1 28.85C1007.1 25.1494 1005.85 22.2861 1003.69 20.3594C1001.54 18.4486 998.606 17.56 995.386 17.56V19.56C998.256 19.56 1000.67 20.3514 1002.36 21.8531C1004.03 23.3388 1005.1 25.6206 1005.1 28.85H1007.1ZM995.386 17.56C987.844 17.56 978.926 22.4114 973.522 31.7074L975.251 32.7126C980.346 23.9485 988.648 19.56 995.386 19.56V17.56ZM975.026 31.4418L973.766 30.3918L972.486 31.9282L973.746 32.9782L975.026 31.4418ZM974.126 31.16C974.126 23.6801 977.258 17.3098 981.688 12.8036C986.134 8.28146 991.822 5.7 996.856 5.7V3.7C991.181 3.7 985.003 6.57853 980.262 11.4014C975.505 16.2401 972.126 23.0999 972.126 31.16H974.126ZM996.856 5.7C1000.28 5.7 1003.4 6.91674 1005.65 9.54965C1007.91 12.1964 1009.4 16.393 1009.3 22.5333L1011.3 22.5667C1011.4 16.107 1009.84 11.3786 1007.17 8.25034C1004.49 5.10825 1000.78 3.7 996.856 3.7V5.7ZM1009.3 22.55C1009.3 29.1657 1007.37 35.1741 1002.97 40.3005C998.567 45.4425 991.615 49.7701 981.443 52.8838L982.029 54.7962C992.438 51.6098 999.765 47.1175 1004.49 41.602C1009.23 36.0709 1011.3 29.5843 1011.3 22.55H1009.3ZM981.401 54.7823C996.945 60.3043 1004.05 72.3041 1004.05 85.97H1006.05C1006.05 71.4959 998.447 58.7157 982.071 52.8977L981.401 54.7823ZM1004.05 85.97C1004.05 110.972 979.572 140.83 937.636 140.83V142.83C980.541 142.83 1006.05 112.208 1006.05 85.97H1004.05ZM960.736 52.42C945.847 52.42 933.557 60.6243 925.026 71.9004C916.502 83.1684 911.646 97.6056 911.646 110.33H913.646C913.646 98.0643 918.345 84.0466 926.621 73.1071C934.891 62.1757 946.645 54.42 960.736 54.42V52.42ZM911.646 110.33C911.646 118.353 913.623 125.793 918.009 131.248C922.422 136.736 929.181 140.1 938.476 140.1V138.1C929.711 138.1 923.556 134.954 919.568 129.995C915.554 125.002 913.646 118.057 913.646 110.33H911.646ZM938.476 140.1C953.062 140.1 965.35 131.726 973.951 120.33C982.548 108.938 987.566 94.397 987.566 81.77H985.566C985.566 93.923 980.714 108.047 972.354 119.125C963.997 130.199 952.24 138.1 938.476 138.1V140.1ZM987.566 81.77C987.566 73.7464 985.589 66.4069 981.197 61.0544C976.78 55.671 970.02 52.42 960.736 52.42V54.42C969.512 54.42 975.668 57.469 979.651 62.3231C983.659 67.2081 985.566 74.0436 985.566 81.77H987.566ZM1172.53 73.79L1172.56 74.7896L1173.39 74.7674L1173.52 73.942L1172.53 73.79ZM1202.35 111.59L1201.71 110.825L1201.66 110.863L1201.62 110.905L1202.35 111.59ZM1171.27 109.91L1172.05 110.535L1172.79 109.605L1171.75 109.033L1171.27 109.91ZM1170.43 110.96L1169.97 111.848L1170.7 112.226L1171.21 111.585L1170.43 110.96ZM1268.5 81.35L1268.05 82.2444L1268.97 82.7058L1269.41 81.7691L1268.5 81.35ZM1267.66 80.93L1266.7 80.6426L1266.46 81.4483L1267.21 81.8244L1267.66 80.93ZM1207.81 105.71L1207.06 105.048L1208.29 106.584L1207.81 105.71ZM1156.36 72.74L1156.45 73.7359L1156.36 71.74V72.74ZM1171.27 53L1170.3 52.7575L1170.09 53.5837L1170.88 53.9191L1171.27 53ZM1171.69 51.32L1172.07 50.3969L1171 49.9499L1170.72 51.0775L1171.69 51.32ZM1172.95 71.06L1173.94 71.212L1174.12 70.0359L1172.93 70.0602L1172.95 71.06ZM1172.5 72.7903C1132.61 73.8513 1109.37 100.216 1109.37 123.77H1111.37C1111.37 101.544 1133.49 75.8287 1172.56 74.7896L1172.5 72.7903ZM1109.37 123.77C1109.37 133.077 1113.06 141.921 1120.78 148.422C1128.49 154.914 1140.13 159 1155.94 159V157C1140.46 157 1129.32 153.001 1122.06 146.893C1114.82 140.794 1111.37 132.523 1111.37 123.77H1109.37ZM1155.94 159C1200.88 159 1219.52 130.531 1219.52 115.37H1217.52C1217.52 129.189 1200.03 157 1155.94 157V159ZM1219.52 115.37C1219.52 112.713 1218.91 110.338 1217.68 108.598C1216.43 106.824 1214.56 105.76 1212.22 105.76V107.76C1213.87 107.76 1215.15 108.481 1216.05 109.752C1216.97 111.057 1217.52 112.987 1217.52 115.37H1219.52ZM1212.22 105.76C1209.35 105.76 1205.76 107.411 1201.71 110.825L1202.99 112.355C1206.92 109.049 1210.05 107.76 1212.22 107.76V105.76ZM1201.62 110.905C1195.13 117.815 1188.52 124.054 1181.91 128.561C1175.3 133.073 1168.78 135.79 1162.45 135.79V137.79C1169.35 137.79 1176.27 134.837 1183.04 130.214C1189.82 125.586 1196.55 119.225 1203.08 112.275L1201.62 110.905ZM1162.45 135.79C1140.16 135.79 1131.11 125.85 1131.11 117.68H1129.11C1129.11 127.57 1139.8 137.79 1162.45 137.79V135.79ZM1131.11 117.68C1131.11 110.818 1137.22 104.19 1148.59 104.19V102.19C1136.44 102.19 1129.11 109.421 1129.11 117.68H1131.11ZM1148.59 104.19C1154.69 104.19 1162.08 106.019 1170.79 110.787L1171.75 109.033C1162.82 104.141 1155.09 102.19 1148.59 102.19V104.19ZM1170.49 109.285L1169.65 110.335L1171.21 111.585L1172.05 110.535L1170.49 109.285ZM1170.89 110.072C1165.11 107.075 1159.91 105.76 1155.31 105.76V107.76C1159.53 107.76 1164.41 108.965 1169.97 111.848L1170.89 110.072ZM1155.31 105.76C1143.84 105.76 1137.3 114.188 1137.3 121.88H1139.3C1139.3 115.292 1144.94 107.76 1155.31 107.76V105.76ZM1137.3 121.88C1137.3 125.047 1138.38 128.105 1140.73 130.37C1143.08 132.637 1146.61 134.01 1151.32 134.01V132.01C1147 132.01 1144.02 130.758 1142.12 128.93C1140.22 127.1 1139.3 124.593 1139.3 121.88H1137.3ZM1151.32 134.01C1159.44 134.01 1167.47 128.974 1175.4 121.739C1183.34 114.479 1191.37 104.812 1199.44 95.2239C1207.53 85.6053 1215.67 76.0601 1223.91 68.9148C1232.17 61.755 1240.36 57.15 1248.55 57.15V55.15C1239.62 55.15 1230.96 60.1525 1222.6 67.4039C1214.22 74.6698 1205.98 84.3397 1197.91 93.9361C1189.81 103.563 1181.88 113.111 1174.05 120.262C1166.19 127.438 1158.64 132.01 1151.32 132.01V134.01ZM1248.55 57.15C1256.68 57.15 1261.93 59.2083 1265.13 62.0905C1268.32 64.9655 1269.6 68.7702 1269.6 72.53H1271.6C1271.6 68.3098 1270.15 63.9245 1266.46 60.6045C1262.79 57.2917 1257.01 55.15 1248.55 55.15V57.15ZM1269.6 72.53C1269.6 75.4986 1268.81 78.2943 1267.59 80.9309L1269.41 81.7691C1270.71 78.9457 1271.6 75.8614 1271.6 72.53H1269.6ZM1268.95 80.4556L1268.11 80.0356L1267.21 81.8244L1268.05 82.2444L1268.95 80.4556ZM1268.62 81.2173C1269.27 79.0454 1269.71 76.6373 1269.71 74.21H1267.71C1267.71 76.4027 1267.31 78.6146 1266.7 80.6426L1268.62 81.2173ZM1269.71 74.21C1269.71 70.4922 1268.78 66.6953 1266.65 63.8001C1264.5 60.8657 1261.15 58.93 1256.53 58.93V60.93C1260.52 60.93 1263.26 62.5643 1265.04 64.9849C1266.85 67.4446 1267.71 70.7878 1267.71 74.21H1269.71ZM1256.53 58.93C1253.07 58.93 1249.42 60.5928 1245.68 63.256C1241.92 65.9312 1237.94 69.7013 1233.8 74.1025C1225.56 82.8704 1216.44 94.4137 1207.06 105.048L1208.56 106.372C1218.08 95.5863 1227.02 84.2396 1235.26 75.4725C1239.37 71.1061 1243.24 67.4475 1246.84 64.8858C1250.46 62.3122 1253.69 60.93 1256.53 60.93V58.93ZM1208.29 106.584C1210.04 105.613 1211.77 105.24 1213.06 105.24V103.24C1211.41 103.24 1209.36 103.707 1207.32 104.836L1208.29 106.584ZM1213.06 105.24C1215.04 105.24 1216.58 106.078 1217.65 107.579C1218.75 109.115 1219.41 111.408 1219.41 114.32H1221.41C1221.41 111.142 1220.7 108.395 1219.28 106.414C1217.83 104.397 1215.7 103.24 1213.06 103.24V105.24ZM1219.41 114.32C1219.41 130.873 1198.56 164.14 1146.07 164.14V166.14C1199.42 166.14 1221.41 132.207 1221.41 114.32H1219.41ZM1146.07 164.14C1127.01 164.14 1113.07 159.453 1103.92 152.328C1094.79 145.215 1090.37 135.633 1090.37 125.66H1088.37C1088.37 136.267 1093.09 146.425 1102.69 153.906C1112.29 161.377 1126.7 166.14 1146.07 166.14V164.14ZM1090.37 125.66C1090.37 103.059 1112.86 77.6988 1156.45 73.7359L1156.27 71.7441C1112.08 75.7612 1088.37 101.641 1088.37 125.66H1090.37ZM1156.36 71.74C1146.23 71.74 1138.86 69.207 1134.05 65.2964C1129.25 61.399 1126.91 56.0714 1126.91 50.27H1124.91C1124.91 56.6486 1127.5 62.5559 1132.79 66.8486C1138.05 71.128 1145.91 73.74 1156.36 73.74V71.74ZM1126.91 50.27C1126.91 33.2168 1147.81 10.95 1187.65 10.95V8.94999C1147.27 8.94999 1124.91 31.6232 1124.91 50.27H1126.91ZM1187.65 10.95C1202.13 10.95 1212.25 13.8683 1218.73 18.1351C1225.18 22.3869 1228.02 27.9723 1228.02 33.47H1230.02C1230.02 27.2077 1226.76 21.0331 1219.83 16.4649C1212.92 11.9117 1202.36 8.94999 1187.65 8.94999V10.95ZM1228.02 33.47C1228.02 45.1211 1215.65 57.46 1195.63 57.46V59.46C1216.34 59.46 1230.02 46.5989 1230.02 33.47H1228.02ZM1195.63 57.46C1188.43 57.46 1180.38 55.815 1171.66 52.0809L1170.88 53.9191C1179.8 57.745 1188.13 59.46 1195.63 59.46V57.46ZM1172.24 53.2425L1172.66 51.5625L1170.72 51.0775L1170.3 52.7575L1172.24 53.2425ZM1171.3 52.2431C1176.47 54.3949 1181.43 55.26 1185.97 55.26V53.26C1181.69 53.26 1176.99 52.445 1172.07 50.3969L1171.3 52.2431ZM1185.97 55.26C1203.26 55.26 1214.9 42.274 1214.9 30.32H1212.9C1212.9 41.0459 1202.28 53.26 1185.97 53.26V55.26ZM1214.9 30.32C1214.9 25.3101 1212.89 20.5001 1208.46 16.9649C1204.05 13.446 1197.35 11.26 1188.07 11.26V13.26C1197.06 13.26 1203.27 15.379 1207.21 18.5276C1211.13 21.6599 1212.9 25.8799 1212.9 30.32H1214.9ZM1188.07 11.26C1175.08 11.26 1163.76 16.7365 1155.7 24.3701C1147.65 31.9856 1142.76 41.8399 1142.76 50.69H1144.76C1144.76 42.5301 1149.31 33.1694 1157.07 25.8224C1164.81 18.4935 1175.65 13.26 1188.07 13.26V11.26ZM1142.76 50.69C1142.76 56.6306 1145.03 62.132 1150.02 66.0701C1154.98 69.9885 1162.54 72.2727 1172.97 72.0598L1172.93 70.0602C1162.78 70.2673 1155.74 68.0365 1151.26 64.4999C1146.8 60.983 1144.76 56.0893 1144.76 50.69H1142.76ZM1171.96 70.9079L1171.54 73.6379L1173.52 73.942L1173.94 71.212L1171.96 70.9079ZM2.19119 285.05H1.19119V286.05H2.19119V285.05ZM2.19119 284V283H1.19119V284H2.19119ZM32.8512 284H33.8512V283H32.8512V284ZM33.4812 378.5L32.5111 378.743L32.5151 378.759L32.5197 378.775L33.4812 378.5ZM35.5812 382.91L36.4494 382.414L36.4058 382.337L36.3494 382.27L35.5812 382.91ZM39.1512 386.48L39.7324 385.666L39.6913 385.637L39.6473 385.612L39.1512 386.48ZM44.8212 387.95H45.8212V386.95H44.8212V387.95ZM44.8212 389V390H45.8212V389H44.8212ZM2.19119 389H1.19119V390H2.19119V389ZM2.19119 387.95V386.95H1.19119V387.95H2.19119ZM18.7812 268.51C16.7434 268.51 15.4479 267.978 14.6657 267.236C13.8893 266.499 13.4812 265.425 13.4812 264.05H11.4812C11.4812 265.825 12.018 267.481 13.2892 268.687C14.5545 269.887 16.409 270.51 18.7812 270.51V268.51ZM13.4812 264.05C13.4812 261.138 15.2553 257.329 18.2195 254.213C21.1681 251.113 25.1231 248.88 29.2812 248.88V246.88C24.4092 246.88 19.9643 249.477 16.7704 252.835C13.5921 256.176 11.4812 260.452 11.4812 264.05H13.4812ZM29.2812 248.88C31.4356 248.88 32.7846 249.418 33.5897 250.163C34.3841 250.898 34.7912 251.966 34.7912 253.34H36.7912C36.7912 251.564 36.2533 249.902 34.9477 248.695C33.6528 247.497 31.7468 246.88 29.2812 246.88V248.88ZM34.7912 253.34C34.7912 256.252 33.0178 260.059 30.0296 263.174C27.0585 266.271 23.0505 268.51 18.7812 268.51V270.51C23.7519 270.51 28.2488 267.919 31.4728 264.559C34.6796 261.216 36.7912 256.938 36.7912 253.34H34.7912ZM14.9512 303.32C14.9512 298.733 14.2622 293.978 12.3422 290.333C10.3884 286.623 7.13833 284.05 2.19119 284.05V286.05C6.27406 286.05 8.90401 288.097 10.5727 291.265C12.2752 294.497 12.9512 298.877 12.9512 303.32H14.9512ZM3.19119 285.05V284H1.19119V285.05H3.19119ZM2.19119 285H32.8512V283H2.19119V285ZM31.8512 284V374.09H33.8512V284H31.8512ZM31.8512 374.09C31.8512 375.456 32.078 377.01 32.5111 378.743L34.4513 378.257C34.0443 376.629 33.8512 375.244 33.8512 374.09H31.8512ZM32.5197 378.775C32.9498 380.28 33.6258 382.126 34.813 383.55L36.3494 382.27C35.4366 381.174 34.8526 379.66 34.4427 378.225L32.5197 378.775ZM34.7129 383.406C35.6415 385.031 37.03 386.42 38.6551 387.348L39.6473 385.612C38.3324 384.86 37.2008 383.729 36.4494 382.414L34.7129 383.406ZM38.57 387.294C40.2762 388.512 42.4032 388.95 44.8212 388.95V386.95C42.6192 386.95 40.9662 386.547 39.7324 385.666L38.57 387.294ZM43.8212 387.95V389H45.8212V387.95H43.8212ZM44.8212 388H2.19119V390H44.8212V388ZM3.19119 389V387.95H1.19119V389H3.19119ZM2.19119 388.95C7.08831 388.95 10.3267 386.587 12.2979 383.531C14.238 380.522 14.9512 376.856 14.9512 374.09H12.9512C12.9512 376.574 12.2994 379.838 10.617 382.447C8.96572 385.008 6.32407 386.95 2.19119 386.95V388.95ZM14.9512 374.09V303.32H12.9512V374.09H14.9512ZM83.7253 378.5L82.7552 378.743L82.7592 378.759L82.7638 378.775L83.7253 378.5ZM85.8253 382.91L86.6936 382.414L86.6499 382.337L86.5936 382.27L85.8253 382.91ZM89.3953 386.48L89.9766 385.666L89.9354 385.637L89.8915 385.612L89.3953 386.48ZM95.0653 387.95H96.0653V386.95H95.0653V387.95ZM95.0653 389V390H96.0653V389H95.0653ZM52.4353 389H51.4353V390H52.4353V389ZM52.4353 387.95V386.95H51.4353V387.95H52.4353ZM52.4353 285.05H51.4353V286.05H52.4353V285.05ZM52.4353 284V283H51.4353V284H52.4353ZM83.0953 284H84.0953V283H83.0953V284ZM83.0953 342.8H82.0953L84.0845 342.947L83.0953 342.8ZM209.515 387.95H210.515V386.95H209.515V387.95ZM209.515 389V390H210.515V389H209.515ZM195.865 388C185.272 388 177.88 381.888 172.131 372.404C166.362 362.886 162.364 350.15 158.552 337.266C154.759 324.45 151.147 311.473 146.138 301.721C141.131 291.972 134.546 285.1 124.675 285.1V287.1C133.39 287.1 139.457 293.091 144.359 302.635C149.26 312.177 152.814 324.925 156.634 337.834C160.434 350.675 164.495 363.664 170.42 373.44C176.366 383.249 184.304 390 195.865 390V388ZM124.675 285.1C111.7 285.1 101.044 294.997 93.6858 310.853C86.3089 326.748 82.0953 348.9 82.0953 374.09H84.0953C84.0953 349.09 88.2818 327.247 95.4999 311.695C102.736 296.103 112.87 287.1 124.675 287.1V285.1ZM82.0953 374.09C82.0953 375.456 82.3222 377.01 82.7552 378.743L84.6955 378.257C84.2885 376.629 84.0953 375.244 84.0953 374.09H82.0953ZM82.7638 378.775C83.194 380.28 83.8699 382.126 85.0571 383.55L86.5936 382.27C85.6808 381.174 85.0967 379.66 84.6869 378.225L82.7638 378.775ZM84.9571 383.406C85.8857 385.031 87.2742 386.42 88.8992 387.348L89.8915 385.612C88.5765 384.86 87.445 383.729 86.6936 382.414L84.9571 383.406ZM88.8141 387.294C90.5203 388.512 92.6473 388.95 95.0653 388.95V386.95C92.8633 386.95 91.2103 386.547 89.9766 385.666L88.8141 387.294ZM94.0653 387.95V389H96.0653V387.95H94.0653ZM95.0653 388H52.4353V390H95.0653V388ZM53.4353 389V387.95H51.4353V389H53.4353ZM52.4353 388.95C57.3325 388.95 60.5708 386.587 62.542 383.531C64.4822 380.522 65.1953 376.856 65.1953 374.09H63.1953C63.1953 376.574 62.5435 379.838 60.8612 382.447C59.2099 385.008 56.5682 386.95 52.4353 386.95V388.95ZM65.1953 374.09V303.32H63.1953V374.09H65.1953ZM65.1953 303.32C65.1953 298.733 64.5063 293.978 62.5864 290.333C60.6325 286.623 57.3825 284.05 52.4353 284.05V286.05C56.5182 286.05 59.1481 288.097 60.8168 291.265C62.5193 294.497 63.1953 298.877 63.1953 303.32H65.1953ZM53.4353 285.05V284H51.4353V285.05H53.4353ZM52.4353 285H83.0953V283H52.4353V285ZM82.0953 284V342.8H84.0953V284H82.0953ZM84.0845 342.947C86.906 323.928 92.3783 308.889 100.293 298.628C108.18 288.404 118.503 282.9 131.185 282.9V280.9C117.828 280.9 106.94 286.736 98.7098 297.407C90.5073 308.04 84.9547 323.452 82.1062 342.653L84.0845 342.947ZM131.185 282.9C144.656 282.9 154.121 289.313 161.313 299.064C168.54 308.861 173.428 321.976 177.667 335.23C181.881 348.409 185.466 361.782 190.078 371.798C194.67 381.772 200.516 388.95 209.515 388.95V386.95C201.819 386.95 196.457 380.872 191.894 370.961C187.351 361.093 183.835 347.953 179.572 334.62C175.331 321.361 170.363 307.964 162.922 297.877C155.448 287.743 145.435 280.9 131.185 280.9V282.9ZM208.515 387.95V389H210.515V387.95H208.515ZM209.515 388H195.865V390H209.515V388ZM217.832 375.98L218.795 376.247L218.796 376.245L217.832 375.98ZM242.402 286.52L243.366 286.785L243.713 285.52H242.402V286.52ZM224.972 286.52H223.972V287.52H224.972V286.52ZM224.972 284V283H223.972V284H224.972ZM252.482 284V285L252.765 283.041L252.482 284ZM239.882 266.57L238.892 266.423L238.891 266.432L239.882 266.57ZM306.452 252.08L307.443 252.212L307.444 252.204L306.452 252.08ZM285.452 272.87L285.004 273.764L285.367 273.946L285.753 273.824L285.452 272.87ZM284.192 272.24L283.644 271.403L282.187 272.356L283.744 273.134L284.192 272.24ZM253.532 270.98L252.542 270.834L252.54 270.85L252.538 270.866L253.532 270.98ZM297.842 284H298.842V283H297.842V284ZM297.842 286.52V287.52H298.842V286.52H297.842ZM261.092 286.52V285.52H260.332L260.128 286.252L261.092 286.52ZM236.732 374.09L237.694 374.36L237.695 374.358L236.732 374.09ZM173.942 401.39L174.456 400.532L174.083 400.309L173.665 400.429L173.942 401.39ZM174.992 402.02L175.728 402.697L176.558 401.794L175.506 401.162L174.992 402.02ZM218.796 376.245L243.366 286.785L241.437 286.255L216.867 375.715L218.796 376.245ZM242.402 285.52H224.972V287.52H242.402V285.52ZM225.972 286.52V284H223.972V286.52H225.972ZM224.972 285H252.482V283H224.972V285ZM252.765 283.041C243.943 280.435 239.898 273.721 240.872 266.708L238.891 266.432C237.765 274.539 242.54 282.105 252.198 284.959L252.765 283.041ZM240.871 266.717C242.06 258.691 248.738 252.235 257.681 247.75C266.592 243.282 277.515 240.9 286.712 240.9V238.9C277.218 238.9 265.986 241.348 256.785 245.962C247.616 250.56 240.223 257.439 238.892 266.423L240.871 266.717ZM286.712 240.9C292.514 240.9 297.516 241.837 300.9 243.714C302.581 244.647 303.826 245.79 304.597 247.131C305.362 248.462 305.697 250.051 305.459 251.956L307.444 252.204C307.731 249.909 307.332 247.876 306.331 246.135C305.336 244.405 303.786 243.028 301.87 241.966C298.062 239.853 292.669 238.9 286.712 238.9V240.9ZM305.46 251.948C305.078 254.814 302.966 258.883 299.392 262.74C295.841 266.572 290.944 270.087 285.151 271.916L285.753 273.824C291.93 271.873 297.113 268.142 300.859 264.1C304.582 260.082 306.985 255.646 307.443 252.212L305.46 251.948ZM285.899 271.976L284.639 271.346L283.744 273.134L285.004 273.764L285.899 271.976ZM284.739 273.077C287.574 271.223 290.707 268.303 293.138 264.952C295.559 261.618 297.372 257.736 297.372 253.97H295.372C295.372 257.134 293.825 260.602 291.52 263.778C289.227 266.937 286.269 269.687 283.644 271.403L284.739 273.077ZM297.372 253.97C297.372 249.975 295.645 246.797 292.832 244.645C290.045 242.512 286.245 241.42 282.092 241.42V243.42C285.918 243.42 289.258 244.428 291.616 246.233C293.949 248.018 295.372 250.615 295.372 253.97H297.372ZM282.092 241.42C270.466 241.42 255.555 250.394 252.542 270.834L254.521 271.126C257.389 251.666 271.458 243.42 282.092 243.42V241.42ZM252.538 270.866C252.107 274.643 252.462 278.14 253.92 280.736C255.422 283.41 258.027 285 261.722 285V283C258.697 283 256.786 281.755 255.663 279.756C254.497 277.679 254.117 274.667 254.525 271.094L252.538 270.866ZM261.722 285H297.842V283H261.722V285ZM296.842 284V286.52H298.842V284H296.842ZM297.842 285.52H261.092V287.52H297.842V285.52ZM260.128 286.252L235.768 373.822L237.695 374.358L262.055 286.788L260.128 286.252ZM235.769 373.82C230.021 394.304 222.157 409.042 212.785 418.647C203.435 428.228 192.559 432.73 180.662 432.73V434.73C193.124 434.73 204.509 429.992 214.216 420.043C223.902 410.118 231.893 395.036 237.694 374.36L235.769 373.82ZM180.662 432.73C172.605 432.73 166.567 430.972 162.576 428.329C158.6 425.694 156.672 422.203 156.672 418.61H154.672C154.672 422.997 157.048 427.066 161.472 429.996C165.882 432.918 172.339 434.73 180.662 434.73V432.73ZM156.672 418.61C156.672 412.751 162.02 405.866 174.219 402.351L173.665 400.429C161.084 404.054 154.672 411.449 154.672 418.61H156.672ZM173.427 402.247L174.477 402.877L175.506 401.162L174.456 400.532L173.427 402.247ZM174.256 401.343C169.329 406.698 167.062 411.759 167.062 416.3H169.062C169.062 412.441 170.994 407.842 175.728 402.697L174.256 401.343ZM167.062 416.3C167.062 420.985 169.473 424.836 173.148 427.48C176.808 430.115 181.746 431.58 186.962 431.58V429.58C182.097 429.58 177.585 428.21 174.316 425.857C171.06 423.514 169.062 420.225 169.062 416.3H167.062ZM186.962 431.58C194.669 431.58 200.128 426.588 204.861 417.36C209.589 408.144 213.761 394.39 218.795 376.247L216.868 375.713C211.822 393.9 207.699 407.446 203.082 416.447C198.47 425.437 193.534 429.58 186.962 429.58V431.58ZM330.277 390.73C313.654 390.73 301.902 386.213 294.313 379.159C286.728 372.109 283.187 362.418 283.187 351.83H281.187C281.187 362.872 284.89 373.131 292.951 380.624C301.007 388.112 313.299 392.73 330.277 392.73V390.73ZM283.187 351.83C283.187 320.895 313.386 283.11 360.937 283.11V281.11C312.307 281.11 281.187 319.765 281.187 351.83H283.187ZM360.937 283.11C377.453 283.11 389.153 287.626 396.716 294.68C404.275 301.73 407.817 311.422 407.817 322.01H409.817C409.817 310.968 406.113 300.71 398.08 293.217C390.051 285.729 377.811 281.11 360.937 281.11V283.11ZM407.817 322.01C407.817 352.739 377.614 390.73 330.277 390.73V392.73C378.7 392.73 409.817 353.861 409.817 322.01H407.817ZM360.097 283.63C342.458 283.63 327.18 294.112 316.356 308.359C305.531 322.606 299.037 340.769 299.037 356.45H301.037C301.037 341.261 307.353 323.514 317.948 309.569C328.544 295.623 343.295 285.63 360.097 285.63V283.63ZM299.037 356.45C299.037 365.739 301.385 374.187 306.598 380.328C311.834 386.496 319.852 390.21 330.907 390.21V388.21C320.332 388.21 312.914 384.678 308.123 379.034C303.309 373.363 301.037 365.431 301.037 356.45H299.037ZM330.907 390.21C348.648 390.21 363.979 379.73 374.831 365.509C385.682 351.289 392.177 333.177 392.177 317.6H390.177C390.177 332.683 383.862 350.376 373.241 364.296C362.619 378.215 347.815 388.21 330.907 388.21V390.21ZM392.177 317.6C392.177 308.208 389.83 299.707 384.589 293.538C379.325 287.342 371.254 283.63 360.097 283.63V285.63C370.78 285.63 378.249 289.163 383.065 294.832C387.904 300.528 390.177 308.512 390.177 317.6H392.177ZM462.288 372.62L462.371 371.623L462.33 371.62H462.288V372.62ZM490.008 419.87L491.005 419.953L491.088 418.955L490.089 418.873L490.008 419.87ZM489.798 422.39L489.711 423.386L490.711 423.474L490.795 422.473L489.798 422.39ZM453.048 370.73L453.264 371.706L453.304 369.763L453.048 370.73ZM509.958 283.58L509.706 284.548L509.943 284.609L510.181 284.555L509.958 283.58ZM506.808 263.21L506.168 263.978L507.077 264.736L507.673 263.713L506.808 263.21ZM505.548 262.16H504.548V262.628L504.908 262.928L505.548 262.16ZM542.718 253.55L541.718 253.533L541.718 253.542V253.55H542.718ZM514.158 284.84L513.865 283.884L510.972 284.769L513.823 285.782L514.158 284.84ZM470.058 371.83C467.32 371.83 464.842 371.829 462.371 371.623L462.205 373.617C464.774 373.831 467.336 373.83 470.058 373.83V371.83ZM462.288 371.62C450.79 371.62 441.585 375.975 435.253 381.444C432.089 384.177 429.633 387.197 427.962 390.107C426.3 393.001 425.378 395.852 425.378 398.24H427.378C427.378 396.323 428.136 393.819 429.696 391.103C431.248 388.401 433.556 385.554 436.56 382.958C442.566 377.77 451.316 373.62 462.288 373.62V371.62ZM425.378 398.24C425.378 399.863 425.783 401.391 426.783 402.524C427.802 403.679 429.311 404.28 431.208 404.28V402.28C429.745 402.28 428.839 401.831 428.283 401.201C427.708 400.549 427.378 399.557 427.378 398.24H425.378ZM431.208 404.28C433.017 404.28 435.301 403.867 437.921 403.183C440.555 402.495 443.59 401.517 446.921 400.352C453.569 398.026 461.51 394.914 469.879 391.828C486.704 385.624 505.335 379.5 519.828 379.5V377.5C504.922 377.5 485.962 383.766 469.187 389.952C460.756 393.061 452.895 396.143 446.26 398.464C442.95 399.622 439.974 400.58 437.416 401.248C434.845 401.919 432.759 402.28 431.208 402.28V404.28ZM519.828 379.5C532.627 379.5 542.138 389.669 542.138 404.33H544.138C544.138 388.751 533.909 377.5 519.828 377.5V379.5ZM542.138 404.33C542.138 425.255 530.96 442.104 516.011 453.758C501.045 465.423 482.41 471.79 467.748 471.79V473.79C482.906 473.79 501.966 467.241 517.24 455.335C532.531 443.416 544.138 426.035 544.138 404.33H542.138ZM467.748 471.79C460.73 471.79 454.657 470.29 450.368 467.273C446.126 464.289 443.548 459.767 443.548 453.47H441.548C441.548 460.403 444.43 465.541 449.218 468.909C453.959 472.245 460.486 473.79 467.748 473.79V471.79ZM443.548 453.47C443.548 443.47 450.558 434.97 460.033 429.094C469.494 423.225 481.148 420.152 489.927 420.867L490.089 418.873C480.808 418.118 468.732 421.344 458.978 427.394C449.238 433.435 441.548 442.469 441.548 453.47H443.548ZM489.012 419.787L488.801 422.307L490.795 422.473L491.005 419.953L489.012 419.787ZM489.885 421.394C481.23 420.636 469.837 423.654 460.612 429.28C451.406 434.894 444.068 443.297 444.068 453.47H446.068C446.068 444.323 452.695 436.451 461.654 430.987C470.594 425.536 481.566 422.673 489.711 423.386L489.885 421.394ZM444.068 453.47C444.068 457.1 445.391 459.786 447.789 461.525C450.131 463.223 453.367 463.92 457.038 463.92V461.92C453.569 461.92 450.82 461.252 448.962 459.905C447.16 458.599 446.068 456.56 446.068 453.47H444.068ZM457.038 463.92C463.63 463.92 472.196 461.701 481.278 458.057C490.382 454.404 500.088 449.286 508.987 443.411C517.881 437.538 526.003 430.887 531.913 424.156C537.795 417.456 541.618 410.529 541.618 404.12H539.618C539.618 409.786 536.196 416.246 530.41 422.836C524.652 429.394 516.683 435.933 507.885 441.742C499.091 447.548 489.503 452.601 480.533 456.201C471.543 459.808 463.256 461.92 457.038 461.92V463.92ZM541.618 404.12C541.618 398.773 540.028 394.886 537.067 392.36C534.136 389.861 530.029 388.84 525.288 388.84V390.84C529.787 390.84 533.345 391.814 535.769 393.882C538.163 395.924 539.618 399.177 539.618 404.12H541.618ZM525.288 388.84C518.666 388.84 510.51 390.785 501.826 393.648C493.124 396.517 483.806 400.337 474.838 404.145C465.855 407.959 457.241 411.753 449.888 414.6C446.215 416.022 442.878 417.199 439.988 418.02C437.083 418.844 434.692 419.29 432.888 419.29V421.29C434.97 421.29 437.572 420.784 440.534 419.944C443.509 419.099 446.911 417.897 450.61 416.465C458.003 413.602 466.675 409.783 475.62 405.985C484.582 402.18 493.835 398.388 502.452 395.548C511.086 392.701 518.995 390.84 525.288 390.84V388.84ZM432.888 419.29C427.77 419.29 424.272 417.593 422.047 415.176C419.806 412.742 418.768 409.482 418.768 406.22H416.768C416.768 409.888 417.935 413.662 420.576 416.531C423.234 419.417 427.296 421.29 432.888 421.29V419.29ZM418.768 406.22C418.768 399.268 423.32 391.532 430.04 385.019C436.737 378.529 445.398 373.443 453.264 371.706L452.832 369.753C444.528 371.587 435.549 376.896 428.648 383.583C421.771 390.248 416.768 398.472 416.768 406.22H418.768ZM453.304 369.763C435.487 365.053 427.378 352.021 427.378 337.76H425.378C425.378 352.898 434.069 366.747 452.792 371.697L453.304 369.763ZM427.378 337.76C427.378 312.55 452.061 282.69 493.998 282.69V280.69C451.095 280.69 425.378 311.31 425.378 337.76H427.378ZM493.998 282.69C499.806 282.69 504.97 283.312 509.706 284.548L510.21 282.612C505.286 281.328 499.95 280.69 493.998 280.69V282.69ZM510.181 284.555C519.051 282.524 526.345 278.565 531.439 274.037C536.495 269.543 539.518 264.358 539.518 259.85H537.518C537.518 263.532 534.976 268.217 530.11 272.543C525.281 276.835 518.295 280.646 509.735 282.605L510.181 284.555ZM539.518 259.85C539.518 256.149 538.276 253.286 536.112 251.359C533.966 249.449 531.028 248.56 527.808 248.56V250.56C530.678 250.56 533.095 251.351 534.782 252.853C536.45 254.339 537.518 256.621 537.518 259.85H539.518ZM527.808 248.56C520.266 248.56 511.348 253.411 505.944 262.707L507.673 263.713C512.768 254.949 521.07 250.56 527.808 250.56V248.56ZM507.448 262.442L506.188 261.392L504.908 262.928L506.168 263.978L507.448 262.442ZM506.548 262.16C506.548 254.68 509.68 248.31 514.11 243.804C518.556 239.281 524.243 236.7 529.278 236.7V234.7C523.603 234.7 517.425 237.579 512.684 242.401C507.927 247.24 504.548 254.1 504.548 262.16H506.548ZM529.278 236.7C532.706 236.7 535.823 237.917 538.073 240.55C540.335 243.196 541.821 247.393 541.718 253.533L543.718 253.567C543.826 247.107 542.267 242.379 539.593 239.25C536.908 236.108 533.2 234.7 529.278 234.7V236.7ZM541.718 253.55C541.718 260.166 539.79 266.174 535.396 271.3C530.989 276.442 524.037 280.77 513.865 283.884L514.451 285.796C524.86 282.61 532.187 278.117 536.915 272.602C541.656 267.071 543.718 260.584 543.718 253.55H541.718ZM513.823 285.782C529.367 291.304 536.468 303.304 536.468 316.97H538.468C538.468 302.496 530.869 289.716 514.493 283.898L513.823 285.782ZM536.468 316.97C536.468 341.972 511.993 371.83 470.058 371.83V373.83C512.963 373.83 538.468 343.208 538.468 316.97H536.468ZM493.158 283.42C478.269 283.42 465.978 291.624 457.448 302.9C448.924 314.168 444.068 328.606 444.068 341.33H446.068C446.068 329.064 450.767 315.047 459.043 304.107C467.313 293.176 479.067 285.42 493.158 285.42V283.42ZM444.068 341.33C444.068 349.353 446.045 356.793 450.431 362.248C454.844 367.736 461.603 371.1 470.898 371.1V369.1C462.133 369.1 455.978 365.954 451.99 360.995C447.976 356.002 446.068 349.057 446.068 341.33H444.068ZM470.898 371.1C485.484 371.1 497.772 362.726 506.372 351.33C514.97 339.938 519.988 325.397 519.988 312.77H517.988C517.988 324.923 513.136 339.047 504.776 350.125C496.419 361.199 484.662 369.1 470.898 369.1V371.1ZM519.988 312.77C519.988 304.746 518.01 297.407 513.619 292.054C509.201 286.671 502.442 283.42 493.158 283.42V285.42C501.934 285.42 508.09 288.469 512.072 293.323C516.081 298.208 517.988 305.044 517.988 312.77H519.988ZM620.211 326.63L619.422 327.244L619.731 327.641L620.233 327.63L620.211 326.63ZM618.741 324.74L618.091 323.981L617.367 324.601L617.952 325.354L618.741 324.74ZM585.141 378.5L584.171 378.743L584.175 378.759L584.18 378.775L585.141 378.5ZM587.241 382.91L588.11 382.414L588.066 382.337L588.01 382.27L587.241 382.91ZM590.811 386.48L591.393 385.666L591.351 385.637L591.307 385.612L590.811 386.48ZM596.481 387.95H597.481V386.95H596.481V387.95ZM596.481 389V390H597.481V389H596.481ZM553.851 389H552.851V390H553.851V389ZM553.851 387.95V386.95H552.851V387.95H553.851ZM553.851 285.05H552.851V286.05H553.851V285.05ZM553.851 284V283H552.851V284H553.851ZM584.511 284H585.511V283H584.511V284ZM584.511 337.13H583.511L585.503 337.262L584.511 337.13ZM621.001 326.016L619.531 324.126L617.952 325.354L619.422 327.244L621.001 326.016ZM619.392 325.499C626.984 318.992 630.451 309.674 630.451 301.64H628.451C628.451 309.145 625.199 317.888 618.091 323.981L619.392 325.499ZM630.451 301.64C630.451 297.187 629.367 293.086 627.251 290.067C625.116 287.02 621.936 285.1 617.901 285.1V287.1C621.217 287.1 623.812 288.645 625.614 291.215C627.435 293.814 628.451 297.483 628.451 301.64H630.451ZM617.901 285.1C606.186 285.1 597.611 295.146 591.995 310.939C586.35 326.814 583.511 348.939 583.511 374.09H585.511C585.511 349.051 588.342 327.181 593.88 311.609C599.447 295.954 607.566 287.1 617.901 287.1V285.1ZM583.511 374.09C583.511 375.456 583.738 377.01 584.171 378.743L586.111 378.257C585.704 376.629 585.511 375.244 585.511 374.09H583.511ZM584.18 378.775C584.61 380.28 585.286 382.126 586.473 383.55L588.01 382.27C587.097 381.174 586.513 379.66 586.103 378.225L584.18 378.775ZM586.373 383.406C587.302 385.031 588.69 386.42 590.315 387.348L591.307 385.612C589.992 384.86 588.861 383.729 588.11 382.414L586.373 383.406ZM590.23 387.294C591.936 388.512 594.063 388.95 596.481 388.95V386.95C594.279 386.95 592.626 386.547 591.393 385.666L590.23 387.294ZM595.481 387.95V389H597.481V387.95H595.481ZM596.481 388H553.851V390H596.481V388ZM554.851 389V387.95H552.851V389H554.851ZM553.851 388.95C558.748 388.95 561.987 386.587 563.958 383.531C565.898 380.522 566.611 376.856 566.611 374.09H564.611C564.611 376.574 563.959 379.838 562.277 382.447C560.626 385.008 557.984 386.95 553.851 386.95V388.95ZM566.611 374.09V303.32H564.611V374.09H566.611ZM566.611 303.32C566.611 298.733 565.922 293.978 564.002 290.333C562.048 286.623 558.798 284.05 553.851 284.05V286.05C557.934 286.05 560.564 288.097 562.233 291.265C563.935 294.497 564.611 298.877 564.611 303.32H566.611ZM554.851 285.05V284H552.851V285.05H554.851ZM553.851 285H584.511V283H553.851V285ZM583.511 284V337.13H585.511V284H583.511ZM585.503 337.262C587.804 320 591.976 306.374 598.356 297.087C604.697 287.856 613.222 282.9 624.411 282.9V280.9C612.501 280.9 603.385 286.234 596.707 295.955C590.067 305.621 585.838 319.61 583.52 336.998L585.503 337.262ZM624.411 282.9C632.5 282.9 638.437 285.353 642.342 288.985C646.249 292.619 648.191 297.494 648.191 302.48H650.191C650.191 296.966 648.038 291.551 643.704 287.52C639.366 283.487 632.913 280.9 624.411 280.9V282.9ZM648.191 302.48C648.191 313.405 638.841 325.22 620.189 325.63L620.233 327.63C639.802 327.2 650.191 314.655 650.191 302.48H648.191ZM662.741 326.42L663.361 327.205L663.738 326.907L663.741 326.428L662.741 326.42ZM787.481 387.95H788.481V386.95H787.481V387.95ZM787.481 389V390H788.481V389H787.481ZM738.551 347.21L739.505 346.91L737.551 347.225L738.551 347.21ZM664.841 324.95L663.843 324.885L663.707 326.964L665.415 325.769L664.841 324.95ZM728.261 314.24L727.998 315.205L729.844 315.708L729.204 313.905L728.261 314.24ZM734.771 335.03L735.744 334.798L735.74 334.781L735.735 334.764L734.771 335.03ZM729.521 317.39L730.48 317.106L730.329 316.596L729.822 316.436L729.521 317.39ZM650.301 352.67C650.301 341.7 655.566 333.359 663.361 327.205L662.122 325.635C653.957 332.081 648.301 340.96 648.301 352.67H650.301ZM663.741 326.428C663.845 312.862 667.827 302.014 675.387 294.556C682.947 287.097 694.216 282.9 709.151 282.9V280.9C693.846 280.9 682.015 285.208 673.983 293.132C665.95 301.056 661.848 312.468 661.741 326.412L663.741 326.428ZM709.151 282.9C722.622 282.9 732.087 289.313 739.279 299.064C746.506 308.861 751.394 321.976 755.633 335.23C759.847 348.409 763.432 361.782 768.044 371.798C772.636 381.772 778.482 388.95 787.481 388.95V386.95C779.785 386.95 774.423 380.872 769.86 370.961C765.317 361.093 761.801 347.953 757.537 334.62C753.297 321.361 748.329 307.964 740.888 297.877C733.413 287.743 723.401 280.9 709.151 280.9V282.9ZM786.481 387.95V389H788.481V387.95H786.481ZM787.481 388H773.831V390H787.481V388ZM773.831 388C764.585 388 757.768 383.304 752.356 375.789C746.918 368.238 742.967 357.924 739.505 346.91L737.597 347.51C741.066 358.546 745.094 369.127 750.733 376.958C756.399 384.826 763.758 390 773.831 390V388ZM737.551 347.225C737.963 374.379 718.891 391.15 696.341 391.15V393.15C719.991 393.15 739.98 375.481 739.551 347.195L737.551 347.225ZM696.341 391.15C682.458 391.15 670.941 387.162 662.914 380.387C654.899 373.623 650.301 364.034 650.301 352.67H648.301C648.301 364.616 653.153 374.767 661.624 381.915C670.081 389.053 682.085 393.15 696.341 393.15V391.15ZM665.415 325.769C677.795 317.103 695.633 313.14 710.831 313.14V311.14C695.37 311.14 677.087 315.157 664.268 324.131L665.415 325.769ZM710.831 313.14C717.266 313.14 723.476 313.971 727.998 315.205L728.524 313.275C723.806 311.988 717.416 311.14 710.831 311.14V313.14ZM729.204 313.905C726.359 305.898 723.111 298.731 718.905 293.554C714.673 288.346 709.422 285.1 702.641 285.1V287.1C708.67 287.1 713.395 289.944 717.353 294.816C721.337 299.719 724.494 306.622 727.319 314.575L729.204 313.905ZM702.641 285.1C691.146 285.1 681.793 289.298 675.136 296.416C668.491 303.52 664.59 313.466 663.843 324.885L665.839 325.015C666.562 313.964 670.327 304.485 676.597 297.782C682.854 291.092 691.667 287.1 702.641 287.1V285.1ZM667.201 352.67C667.201 374.456 684.473 388.95 702.011 388.95V386.95C685.53 386.95 669.201 373.304 669.201 352.67H667.201ZM702.011 388.95C718.784 388.95 737.451 372.91 737.451 347.84H735.451C735.451 371.91 717.579 386.95 702.011 386.95V388.95ZM737.451 347.84C737.451 343.751 736.807 339.261 735.744 334.798L733.798 335.262C734.836 339.619 735.451 343.949 735.451 347.84H737.451ZM735.735 334.764C734.053 328.665 732.151 322.744 730.48 317.106L728.562 317.674C730.252 323.376 732.13 329.215 733.807 335.296L735.735 334.764ZM729.822 316.436C725.719 315.141 720.996 314.5 716.291 314.5V316.5C720.827 316.5 725.343 317.119 729.22 318.344L729.822 316.436ZM716.291 314.5C705.405 314.5 693.185 317.75 683.658 324.119C674.114 330.499 667.201 340.072 667.201 352.67H669.201C669.201 340.908 675.624 331.896 684.769 325.781C693.933 319.655 705.757 316.5 716.291 316.5V314.5ZM822.197 349.31L823.17 349.078L821.197 349.31H822.197ZM822.197 428.27H821.197V428.393L821.227 428.513L822.197 428.27ZM822.827 431L821.846 431.196L821.854 431.236L821.865 431.275L822.827 431ZM824.717 435.41L823.849 435.906L823.874 435.95L823.903 435.991L824.717 435.41ZM828.287 438.98L828.868 438.166L828.827 438.137L828.783 438.112L828.287 438.98ZM833.957 440.45H834.957V439.45H833.957V440.45ZM833.957 441.5V442.5H834.957V441.5H833.957ZM791.537 441.5H790.537V442.5H791.537V441.5ZM791.537 440.45V439.45H790.537V440.45H791.537ZM803.297 427.85L804.296 427.892L804.297 427.871V427.85H803.297ZM791.537 285.05H790.537V286.05H791.537V285.05ZM791.537 284V283H790.537V284H791.537ZM822.197 286.31L822.147 285.311L821.192 285.359L821.197 286.315L822.197 286.31ZM822.407 328.31H823.407L823.407 328.305L822.407 328.31ZM842.147 283.53C888.619 283.53 914.857 318.767 914.857 348.89H916.857C916.857 317.693 889.755 281.53 842.147 281.53V283.53ZM914.857 348.89C914.857 360.224 911.15 370.77 903.517 378.479C895.892 386.181 884.249 391.15 868.187 391.15V393.15C884.675 393.15 896.867 388.039 904.939 379.886C913.004 371.74 916.857 360.656 916.857 348.89H914.857ZM868.187 391.15C846.315 391.15 829.397 375.234 823.17 349.078L821.224 349.542C827.596 376.305 845.118 393.15 868.187 393.15V391.15ZM821.197 349.31V428.27H823.197V349.31H821.197ZM821.227 428.513C821.437 429.353 821.641 430.172 821.846 431.196L823.807 430.804C823.592 429.728 823.377 428.867 823.167 428.027L821.227 428.513ZM821.865 431.275C822.31 432.83 822.973 434.374 823.849 435.906L825.585 434.914C824.781 433.506 824.184 432.11 823.788 430.725L821.865 431.275ZM823.903 435.991C824.97 437.485 826.124 438.896 827.791 439.848L828.783 438.112C827.51 437.384 826.564 436.275 825.531 434.829L823.903 435.991ZM827.706 439.794C829.412 441.012 831.539 441.45 833.957 441.45V439.45C831.755 439.45 830.102 439.048 828.868 438.166L827.706 439.794ZM832.957 440.45V441.5H834.957V440.45H832.957ZM833.957 440.5H791.537V442.5H833.957V440.5ZM792.537 441.5V440.45H790.537V441.5H792.537ZM791.537 441.45C796.086 441.45 799.26 439.383 801.292 436.635C803.297 433.924 804.184 430.571 804.296 427.892L802.298 427.808C802.199 430.169 801.407 433.116 799.684 435.445C797.989 437.737 795.388 439.45 791.537 439.45V441.45ZM804.297 427.85V303.32H802.297V427.85H804.297ZM804.297 303.32C804.297 298.733 803.608 293.978 801.688 290.333C799.734 286.623 796.484 284.05 791.537 284.05V286.05C795.62 286.05 798.25 288.097 799.918 291.265C801.621 294.497 802.297 298.877 802.297 303.32H804.297ZM792.537 285.05V284H790.537V285.05H792.537ZM791.537 285H822.197V283H791.537V285ZM822.197 285C824.474 285 827.339 284.621 830.628 284.259C833.949 283.893 837.792 283.53 842.147 283.53V281.53C837.682 281.53 833.754 281.902 830.409 282.271C827.029 282.644 824.33 283 822.197 283V285ZM862.727 388.95C874.471 388.95 883.218 384.248 889.005 376.804C894.767 369.391 897.537 359.339 897.537 348.68H895.537C895.537 359.021 892.846 368.604 887.426 375.576C882.03 382.517 873.873 386.95 862.727 386.95V388.95ZM897.537 348.68C897.537 319.555 876.688 284.89 837.947 284.89V286.89C875.226 286.89 895.537 320.265 895.537 348.68H897.537ZM837.947 284.89C831.624 284.89 826.356 285.101 822.147 285.311L822.247 287.309C826.438 287.099 831.67 286.89 837.947 286.89V284.89ZM821.197 286.315L821.407 328.315L823.407 328.305L823.197 286.305L821.197 286.315ZM821.407 328.31C821.407 346.448 826.498 361.57 834.197 372.183C841.889 382.786 852.241 388.95 862.727 388.95V386.95C853.053 386.95 843.245 381.249 835.816 371.009C828.396 360.78 823.407 346.082 823.407 328.31H821.407ZM961.665 378.5L960.695 378.743L960.699 378.759L960.703 378.775L961.665 378.5ZM963.765 382.91L964.616 382.386L964.598 382.357L964.578 382.329L963.765 382.91ZM973.005 387.95H974.005V386.95H973.005V387.95ZM973.005 389V390H974.005V389H973.005ZM930.375 389H929.375V390H930.375V389ZM930.375 387.95V386.95H929.375V387.95H930.375ZM930.375 232.55H929.375V233.55H930.375V232.55ZM930.375 231.5V230.5H929.375V231.5H930.375ZM961.035 231.5H962.035V230.5H961.035V231.5ZM961.035 342.8H960.035L962.024 342.947L961.035 342.8ZM1087.45 387.95H1088.45V386.95H1087.45V387.95ZM1087.45 389V390H1088.45V389H1087.45ZM1073.8 388C1063.21 388 1055.82 381.888 1050.07 372.404C1044.3 362.886 1040.3 350.15 1036.49 337.266C1032.7 324.45 1029.09 311.473 1024.08 301.721C1019.07 291.972 1012.49 285.1 1002.61 285.1V287.1C1011.33 287.1 1017.4 293.091 1022.3 302.635C1027.2 312.177 1030.75 324.925 1034.57 337.834C1038.37 350.675 1042.43 363.664 1048.36 373.44C1054.31 383.249 1062.24 390 1073.8 390V388ZM1002.61 285.1C989.64 285.1 978.984 294.997 971.625 310.853C964.248 326.748 960.035 348.9 960.035 374.09H962.035C962.035 349.09 966.221 327.247 973.439 311.695C980.676 296.103 990.81 287.1 1002.61 287.1V285.1ZM960.035 374.09C960.035 375.456 960.262 377.01 960.695 378.743L962.635 378.257C962.228 376.629 962.035 375.244 962.035 374.09H960.035ZM960.703 378.775C961.149 380.335 961.824 381.913 962.951 383.491L964.578 382.329C963.606 380.967 963.021 379.605 962.626 378.225L960.703 378.775ZM962.913 383.434C964.754 386.425 968.209 388.95 973.005 388.95V386.95C968.981 386.95 966.136 384.855 964.616 382.386L962.913 383.434ZM972.005 387.95V389H974.005V387.95H972.005ZM973.005 388H930.375V390H973.005V388ZM931.375 389V387.95H929.375V389H931.375ZM930.375 388.95C935.272 388.95 938.51 386.587 940.481 383.531C942.422 380.522 943.135 376.856 943.135 374.09H941.135C941.135 376.574 940.483 379.838 938.801 382.447C937.149 385.008 934.508 386.95 930.375 386.95V388.95ZM943.135 374.09V250.82H941.135V374.09H943.135ZM943.135 250.82C943.135 246.233 942.446 241.478 940.526 237.833C938.572 234.123 935.322 231.55 930.375 231.55V233.55C934.458 233.55 937.088 235.597 938.756 238.765C940.459 241.997 941.135 246.377 941.135 250.82H943.135ZM931.375 232.55V231.5H929.375V232.55H931.375ZM930.375 232.5H961.035V230.5H930.375V232.5ZM960.035 231.5V342.8H962.035V231.5H960.035ZM962.024 342.947C964.845 323.928 970.318 308.889 978.233 298.628C986.12 288.404 996.442 282.9 1009.12 282.9V280.9C995.767 280.9 984.88 286.736 976.649 297.407C968.447 308.04 962.894 323.452 960.046 342.653L962.024 342.947ZM1009.12 282.9C1022.6 282.9 1032.06 289.313 1039.25 299.064C1046.48 308.861 1051.37 321.976 1055.61 335.23C1059.82 348.409 1063.41 361.782 1068.02 371.798C1072.61 381.772 1078.46 388.95 1087.45 388.95V386.95C1079.76 386.95 1074.4 380.872 1069.83 370.961C1065.29 361.093 1061.77 347.953 1057.51 334.62C1053.27 321.361 1048.3 307.964 1040.86 297.877C1033.39 287.743 1023.37 280.9 1009.12 280.9V282.9ZM1086.45 387.95V389H1088.45V387.95H1086.45ZM1087.45 388H1073.8V390H1087.45V388ZM1091.36 285.05H1090.36V286.05H1091.36V285.05ZM1091.36 284V283H1090.36V284H1091.36ZM1122.02 284H1123.02V283H1122.02V284ZM1122.65 378.5L1121.68 378.743L1121.68 378.759L1121.69 378.775L1122.65 378.5ZM1124.75 382.91L1125.62 382.414L1125.58 382.337L1125.52 382.27L1124.75 382.91ZM1128.32 386.48L1128.9 385.666L1128.86 385.637L1128.82 385.612L1128.32 386.48ZM1133.99 387.95H1134.99V386.95H1133.99V387.95ZM1133.99 389V390H1134.99V389H1133.99ZM1091.36 389H1090.36V390H1091.36V389ZM1091.36 387.95V386.95H1090.36V387.95H1091.36ZM1107.95 268.51C1105.91 268.51 1104.62 267.978 1103.84 267.236C1103.06 266.499 1102.65 265.425 1102.65 264.05H1100.65C1100.65 265.825 1101.19 267.481 1102.46 268.687C1103.72 269.887 1105.58 270.51 1107.95 270.51V268.51ZM1102.65 264.05C1102.65 261.138 1104.43 257.329 1107.39 254.213C1110.34 251.113 1114.29 248.88 1118.45 248.88V246.88C1113.58 246.88 1109.13 249.477 1105.94 252.835C1102.76 256.176 1100.65 260.452 1100.65 264.05H1102.65ZM1118.45 248.88C1120.61 248.88 1121.95 249.418 1122.76 250.163C1123.55 250.898 1123.96 251.966 1123.96 253.34H1125.96C1125.96 251.564 1125.42 249.902 1124.12 248.695C1122.82 247.497 1120.92 246.88 1118.45 246.88V248.88ZM1123.96 253.34C1123.96 256.252 1122.19 260.059 1119.2 263.174C1116.23 266.271 1112.22 268.51 1107.95 268.51V270.51C1112.92 270.51 1117.42 267.919 1120.64 264.559C1123.85 261.216 1125.96 256.938 1125.96 253.34H1123.96ZM1104.12 303.32C1104.12 298.733 1103.43 293.978 1101.51 290.333C1099.56 286.623 1096.31 284.05 1091.36 284.05V286.05C1095.44 286.05 1098.07 288.097 1099.74 291.265C1101.45 294.497 1102.12 298.877 1102.12 303.32H1104.12ZM1092.36 285.05V284H1090.36V285.05H1092.36ZM1091.36 285H1122.02V283H1091.36V285ZM1121.02 284V374.09H1123.02V284H1121.02ZM1121.02 374.09C1121.02 375.456 1121.25 377.01 1121.68 378.743L1123.62 378.257C1123.21 376.629 1123.02 375.244 1123.02 374.09H1121.02ZM1121.69 378.775C1122.12 380.28 1122.8 382.126 1123.98 383.55L1125.52 382.27C1124.61 381.174 1124.02 379.66 1123.61 378.225L1121.69 378.775ZM1123.88 383.406C1124.81 385.031 1126.2 386.42 1127.82 387.348L1128.82 385.612C1127.5 384.86 1126.37 383.729 1125.62 382.414L1123.88 383.406ZM1127.74 387.294C1129.45 388.512 1131.57 388.95 1133.99 388.95V386.95C1131.79 386.95 1130.14 386.547 1128.9 385.666L1127.74 387.294ZM1132.99 387.95V389H1134.99V387.95H1132.99ZM1133.99 388H1091.36V390H1133.99V388ZM1092.36 389V387.95H1090.36V389H1092.36ZM1091.36 388.95C1096.26 388.95 1099.5 386.587 1101.47 383.531C1103.41 380.522 1104.12 376.856 1104.12 374.09H1102.12C1102.12 376.574 1101.47 379.838 1099.79 382.447C1098.14 385.008 1095.49 386.95 1091.36 386.95V388.95ZM1104.12 374.09V303.32H1102.12V374.09H1104.12ZM1243.67 359.81L1244.14 358.932L1243.31 358.48L1242.82 359.282L1243.67 359.81ZM1245.98 361.07L1246.81 361.622L1247.41 360.714L1246.45 360.192L1245.98 361.07ZM1162.61 352.67L1162.79 351.688L1161.65 351.469L1161.61 352.636L1162.61 352.67ZM1162.61 350.36L1161.61 350.288L1161.55 351.126L1162.36 351.33L1162.61 350.36ZM1243.19 360.688L1245.5 361.948L1246.45 360.192L1244.14 358.932L1243.19 360.688ZM1245.14 360.518C1233.74 377.723 1213.45 390.73 1192.43 390.73V392.73C1214.24 392.73 1235.11 379.277 1246.81 361.622L1245.14 360.518ZM1192.43 390.73C1175.8 390.73 1164.05 386.213 1156.46 379.159C1148.88 372.109 1145.34 362.418 1145.34 351.83H1143.34C1143.34 362.872 1147.04 373.131 1155.1 380.624C1163.16 388.112 1175.45 392.73 1192.43 392.73V390.73ZM1145.34 351.83C1145.34 320.895 1175.53 283.11 1223.09 283.11V281.11C1174.46 281.11 1143.34 319.765 1143.34 351.83H1145.34ZM1223.09 283.11C1235.22 283.11 1244.01 286.015 1249.74 290.534C1255.45 295.036 1258.21 301.2 1258.21 307.94H1260.21C1260.21 300.61 1257.19 293.858 1250.98 288.963C1244.79 284.085 1235.52 281.11 1223.09 281.11V283.11ZM1258.21 307.94C1258.21 318.043 1252.07 329.534 1240.15 338.537C1228.24 347.524 1210.61 353.98 1187.81 353.98V355.98C1210.99 355.98 1229.06 349.416 1241.35 340.133C1253.63 330.866 1260.21 318.837 1260.21 307.94H1258.21ZM1187.81 353.98C1180.09 353.98 1171.54 353.354 1162.79 351.688L1162.42 353.652C1171.31 355.346 1179.98 355.98 1187.81 355.98V353.98ZM1161.61 352.636C1161.29 362.13 1163.36 370.9 1168.52 377.315C1173.71 383.764 1181.89 387.69 1193.48 387.69V385.69C1182.38 385.69 1174.81 381.951 1170.08 376.062C1165.32 370.14 1163.29 361.9 1163.6 352.704L1161.61 352.636ZM1193.48 387.69C1213.54 387.69 1234.66 376.189 1244.51 360.338L1242.82 359.282C1233.35 374.511 1212.89 385.69 1193.48 385.69V387.69ZM1222.25 283.63C1205.47 283.63 1190.83 292.981 1180.16 305.912C1169.48 318.842 1162.67 335.468 1161.61 350.288L1163.6 350.432C1164.64 336.062 1171.27 319.823 1181.7 307.185C1192.13 294.549 1206.26 285.63 1222.25 285.63V283.63ZM1162.36 351.33C1168.33 352.821 1174.08 353.46 1179.62 353.46V351.46C1174.23 351.46 1168.64 350.839 1162.85 349.39L1162.36 351.33ZM1179.62 353.46C1198.58 353.46 1214.72 345.733 1226.12 335.458C1237.48 325.213 1244.25 312.311 1244.25 301.85H1242.25C1242.25 311.549 1235.89 323.952 1224.78 333.972C1213.7 343.962 1198.03 351.46 1179.62 351.46V353.46ZM1244.25 301.85C1244.25 296.688 1242.54 292.089 1238.85 288.793C1235.17 285.508 1229.65 283.63 1222.25 283.63V285.63C1229.33 285.63 1234.31 287.426 1237.51 290.285C1240.7 293.131 1242.25 297.142 1242.25 301.85H1244.25Z" fill="#FF0000" fill-opacity="0.6" mask="url(#path-1-outside-1_530_596)"/>
</svg>
