<svg width="375" height="144" viewBox="0 0 375 144" fill="none" xmlns="http://www.w3.org/2000/svg">
<mask id="path-1-outside-1_530_401" maskUnits="userSpaceOnUse" x="-4.00003" y="-1" width="390" height="146" fill="black">
<rect fill="white" x="-4.00003" y="-1" width="390" height="146"/>
<path d="M7.34878 48H-2.31522V47.68C0.116784 47.68 1.07678 45.504 1.20478 43.904V7.232C1.07678 5.696 0.116784 3.52 -2.31522 3.52V3.2H16.3728C27.0608 3.2 32.3728 8.256 32.3728 13.376C32.3728 17.664 28.5968 21.888 21.1088 23.168C32.6288 24.768 37.9408 30.912 37.9408 36.672C37.9408 42.688 32.3088 48.32 22.1968 48.32C15.7328 48.32 9.26878 44.928 7.34878 36.096V48ZM7.34878 3.968V22.784H14.5168C22.6448 22.784 26.2928 18.368 26.2928 13.888C26.2928 9.024 22.0688 3.968 14.5168 3.968H7.34878ZM13.2368 23.552H7.34878V30.592C7.86078 42.624 13.9408 46.976 19.9568 46.976C27.7008 46.976 31.9248 42.048 31.9248 36.672C31.9248 30.4 26.1008 23.552 13.2368 23.552ZM62.2823 28.992L61.8343 28.416C64.0743 26.496 65.0983 23.744 65.0983 21.376C65.0983 18.752 63.8183 16.64 61.5783 16.64C54.8583 16.64 51.4023 28.16 51.4023 43.456C51.4023 43.84 51.4663 44.288 51.5943 44.8C51.7223 45.248 51.9143 45.76 52.2343 46.144C52.4903 46.592 52.8743 46.976 53.3223 47.232C53.7703 47.552 54.3463 47.68 55.0503 47.68V48H42.0583V47.68C44.8103 47.68 45.6423 45.056 45.6423 43.456V21.888C45.6423 19.136 44.8103 16.32 42.0583 16.32V16H51.4023V32.192C52.8103 21.632 56.5223 15.36 63.5623 15.36C68.6183 15.36 71.1143 18.432 71.1143 21.632C71.1143 25.152 68.1063 28.864 62.2823 28.992ZM71.1478 36.928C71.1478 33.472 72.8118 30.848 75.2438 28.928C75.3078 20.544 80.1718 15.36 89.3878 15.36C106.284 15.36 103.084 47.68 113.26 47.68V48H109.1C103.212 48 100.46 41.984 98.3478 35.264C98.4758 43.712 92.5238 48.96 85.4838 48.96C76.9078 48.96 71.1478 44.032 71.1478 36.928ZM75.8838 28.48C79.7238 25.792 85.2278 24.576 89.8998 24.576C91.8838 24.576 93.8038 24.832 95.2118 25.216C93.4838 20.352 91.3078 16.64 87.4038 16.64C80.5558 16.64 76.3318 21.632 75.8838 28.48ZM76.9078 36.928C76.9078 43.392 82.0278 47.68 87.2118 47.68C92.1398 47.68 97.7078 42.944 97.7078 35.456C97.7078 34.24 97.5158 32.896 97.1958 31.552C96.6838 29.696 96.1078 27.904 95.5958 26.176C94.3798 25.792 92.9718 25.6 91.5638 25.6C85.0358 25.6 76.9078 29.504 76.9078 36.928ZM158.208 48C144.704 48 147.84 16.64 136.512 16.64C128.96 16.64 123.84 28.16 123.84 43.456C123.84 43.84 123.904 44.288 124.032 44.8C124.16 45.248 124.352 45.76 124.672 46.144C124.928 46.592 125.312 46.976 125.76 47.232C126.208 47.552 126.784 47.68 127.488 47.68V48H114.496V47.68C117.248 47.68 118.08 45.056 118.08 43.456V21.888C118.08 19.136 117.248 16.32 114.496 16.32V16H123.84V33.92C125.568 22.272 130.56 15.36 138.496 15.36C155.392 15.36 152.192 47.68 162.368 47.68V48H158.208ZM191.957 16.64V5.888C191.957 3.136 191.061 0.319996 188.309 0.319996V-3.99351e-06H197.717V43.456C197.717 43.84 197.781 44.288 197.845 44.8C197.973 45.248 198.165 45.696 198.485 46.144C198.997 46.976 199.957 47.68 201.301 47.68V48H191.957V35.904C190.037 43.968 184.789 48.96 177.941 48.96C168.021 48.96 163.413 42.816 163.413 35.776C163.413 26.432 171.541 15.552 185.877 15.552C188.437 15.552 190.549 16 191.957 16.64ZM179.669 47.68C185.813 47.68 191.957 40.448 191.957 29.568V17.472C190.677 16.896 189.013 16.576 187.221 16.576C175.573 16.576 169.365 26.944 169.365 35.712C169.365 42.112 172.693 47.68 179.669 47.68ZM208.677 11.584C207.333 11.584 206.757 10.88 206.757 9.92C206.757 7.936 209.125 4.992 211.877 4.992C213.285 4.992 213.861 5.696 213.861 6.656C213.861 8.64 211.493 11.584 208.677 11.584ZM207.205 21.888C207.205 19.136 206.373 16.32 203.621 16.32V16H212.965V43.456C212.965 43.84 213.029 44.288 213.157 44.8C213.285 45.248 213.477 45.76 213.797 46.144C214.053 46.592 214.437 46.976 214.885 47.232C215.333 47.552 215.909 47.68 216.613 47.68V48H203.621V47.68C206.373 47.68 207.205 45.056 207.205 43.456V21.888ZM262.645 48C249.141 48 252.277 16.64 240.949 16.64C233.397 16.64 228.277 28.16 228.277 43.456C228.277 43.84 228.341 44.288 228.469 44.8C228.597 45.248 228.789 45.76 229.109 46.144C229.365 46.592 229.749 46.976 230.197 47.232C230.645 47.552 231.221 47.68 231.925 47.68V48H218.933V47.68C221.685 47.68 222.517 45.056 222.517 43.456V21.888C222.517 19.136 221.685 16.32 218.933 16.32V16H228.277V33.92C230.005 22.272 234.997 15.36 242.933 15.36C259.829 15.36 256.629 47.68 266.805 47.68V48H262.645ZM283.146 43.072C282.314 43.072 281.546 43.072 280.778 43.008C273.93 43.008 269.834 48.192 269.834 50.816C269.834 51.712 270.282 52.352 271.306 52.352C275.402 52.352 289.354 44.8 298.314 44.8C302.41 44.8 305.418 48.064 305.418 52.672C305.418 65.664 291.53 73.536 282.442 73.536C278.09 73.536 274.762 71.68 274.762 67.648C274.762 61.248 283.722 56.96 289.226 57.408L289.162 58.176C284.042 57.728 275.53 61.76 275.53 67.648C275.53 69.696 277.002 70.528 279.178 70.528C286.986 70.528 304.65 59.968 304.65 52.608C304.65 49.472 302.794 48.256 299.978 48.256C292.106 48.256 276.554 57.536 271.818 57.536C268.554 57.536 267.21 55.36 267.21 53.248C267.21 48.768 273.034 43.52 277.962 42.432C272.394 40.96 269.834 36.864 269.834 32.384C269.834 24.512 277.514 15.296 290.442 15.296C292.234 15.296 293.834 15.488 295.306 15.872C300.618 14.656 304.01 11.136 304.01 8.64C304.01 6.528 302.602 5.504 300.746 5.504C298.57 5.504 295.946 6.912 294.346 9.664L293.962 9.344C293.962 4.608 297.93 1.28 301.194 1.28C303.434 1.28 305.354 2.88 305.29 6.72C305.29 10.88 302.858 14.336 296.586 16.256C301.45 17.984 303.69 21.76 303.69 26.048C303.69 33.856 296.074 43.072 283.146 43.072ZM290.186 16.128C281.354 16.128 275.53 25.856 275.53 33.472C275.53 38.272 277.898 42.24 283.402 42.24C292.042 42.24 298.058 32.32 298.058 24.768C298.058 19.968 295.69 16.128 290.186 16.128ZM354.733 22.336C342.701 22.656 335.789 30.592 335.789 37.568C335.789 43.072 340.141 48 349.677 48C363.245 48 368.749 39.424 368.749 35.008C368.749 33.472 368.045 32.384 366.829 32.384C366.061 32.384 365.037 32.832 363.821 33.856C359.853 38.08 355.693 41.536 351.661 41.536C344.813 41.536 341.805 38.464 341.805 35.712C341.805 33.408 343.853 31.296 347.437 31.296C349.357 31.296 351.661 31.872 354.349 33.344L354.093 33.664C352.365 32.768 350.829 32.384 349.485 32.384C346.157 32.384 344.301 34.816 344.301 36.992C344.301 38.784 345.517 40.384 348.269 40.384C357.677 40.384 367.469 16.96 377.901 16.96C382.957 16.96 384.621 19.52 384.621 21.952C384.621 22.912 384.365 23.808 383.981 24.64L383.725 24.512C383.917 23.872 384.045 23.168 384.045 22.464C384.045 20.288 382.957 18.112 380.333 18.112C376.493 18.112 371.245 25.536 365.485 32.064C366.061 31.744 366.637 31.616 367.085 31.616C368.493 31.616 369.325 32.832 369.325 34.688C369.325 39.936 362.797 50.176 346.669 50.176C334.957 50.176 329.389 44.416 329.389 38.144C329.389 31.04 336.429 23.232 349.805 22.016C343.533 22.016 340.525 18.88 340.525 15.168C340.525 9.728 347.117 2.88 359.341 2.88C368.237 2.88 371.949 6.464 371.949 10.048C371.949 13.824 367.981 17.664 361.773 17.664C359.533 17.664 357.037 17.152 354.349 16L354.477 15.488C356.013 16.128 357.485 16.384 358.829 16.384C363.949 16.384 367.341 12.544 367.341 9.088C367.341 6.208 365.037 3.584 359.469 3.584C351.725 3.584 345.965 10.112 345.965 15.296C345.965 18.752 348.589 21.632 354.861 21.504L354.733 22.336ZM3.11428 81.584C1.77028 81.584 1.19428 80.88 1.19428 79.92C1.19428 77.936 3.56228 74.992 6.31428 74.992C7.72228 74.992 8.29828 75.696 8.29828 76.656C8.29828 78.64 5.93028 81.584 3.11428 81.584ZM1.64228 91.888C1.64228 89.136 0.810284 86.32 -1.94172 86.32V86H7.40228V113.456C7.40228 113.84 7.46628 114.288 7.59428 114.8C7.72228 115.248 7.91428 115.76 8.23428 116.144C8.49028 116.592 8.87428 116.976 9.32228 117.232C9.77028 117.552 10.3463 117.68 11.0503 117.68V118H-1.94172V117.68C0.810284 117.68 1.64228 115.056 1.64228 113.456V91.888ZM57.0828 118C43.5788 118 46.7148 86.64 35.3868 86.64C27.8348 86.64 22.7148 98.16 22.7148 113.456C22.7148 113.84 22.7788 114.288 22.9068 114.8C23.0348 115.248 23.2268 115.76 23.5468 116.144C23.8028 116.592 24.1868 116.976 24.6348 117.232C25.0828 117.552 25.6588 117.68 26.3628 117.68V118H13.3708V117.68C16.1228 117.68 16.9548 115.056 16.9548 113.456V91.888C16.9548 89.136 16.1228 86.32 13.3708 86.32V86H22.7148V103.92C24.4428 92.272 29.4348 85.36 37.3708 85.36C54.2668 85.36 51.0668 117.68 61.2428 117.68V118H57.0828ZM63.7773 114.032L71.2653 86.768H65.9533V86H74.3373C71.5213 85.168 70.1773 82.992 70.4973 80.688C71.2653 75.504 79.0733 72.56 84.7693 72.56C88.3533 72.56 91.1053 73.712 90.7853 76.272C90.5293 78.192 88.0333 81.456 84.3853 82.608L84.0013 82.416C85.6653 81.328 87.7133 78.96 87.7133 76.848C87.7133 74.608 85.7933 73.328 83.3613 73.328C79.9693 73.328 75.5533 75.952 74.6573 82.032C74.4013 84.272 75.1053 86 77.1533 86H88.1613V86.768H76.9613L69.5373 113.456C66.0173 126 59.8733 131.632 52.4493 131.632C47.4573 131.632 44.8333 129.456 44.8333 127.024C44.8333 125.04 46.6253 122.864 50.4013 121.776L50.7213 121.968C49.2493 123.568 48.6093 125.04 48.6093 126.32C48.6093 128.944 51.2973 130.672 54.3693 130.672C58.7213 130.672 60.7053 125.104 63.7773 114.032ZM98.0463 118.832C87.8063 118.832 83.3903 113.264 83.3903 106.672C83.3903 97.072 92.7343 85.424 107.39 85.424C117.566 85.424 121.982 90.992 121.982 97.584C121.982 107.12 112.638 118.832 98.0463 118.832ZM107.134 86.192C96.6383 86.192 88.8303 98.672 88.8303 108.08C88.8303 113.648 91.6463 118.064 98.2383 118.064C108.798 118.064 116.606 105.584 116.606 96.24C116.606 90.608 113.79 86.192 107.134 86.192ZM140.646 113.072C139.814 113.072 139.046 113.072 138.278 113.008C131.43 113.008 127.334 118.192 127.334 120.816C127.334 121.712 127.782 122.352 128.806 122.352C132.902 122.352 146.854 114.8 155.814 114.8C159.91 114.8 162.918 118.064 162.918 122.672C162.918 135.664 149.03 143.536 139.942 143.536C135.59 143.536 132.262 141.68 132.262 137.648C132.262 131.248 141.222 126.96 146.726 127.408L146.662 128.176C141.542 127.728 133.03 131.76 133.03 137.648C133.03 139.696 134.502 140.528 136.678 140.528C144.486 140.528 162.15 129.968 162.15 122.608C162.15 119.472 160.294 118.256 157.478 118.256C149.606 118.256 134.054 127.536 129.318 127.536C126.054 127.536 124.71 125.36 124.71 123.248C124.71 118.768 130.534 113.52 135.462 112.432C129.894 110.96 127.334 106.864 127.334 102.384C127.334 94.512 135.014 85.296 147.942 85.296C149.734 85.296 151.334 85.488 152.806 85.872C158.118 84.656 161.51 81.136 161.51 78.64C161.51 76.528 160.102 75.504 158.246 75.504C156.07 75.504 153.446 76.912 151.846 79.664L151.462 79.344C151.462 74.608 155.43 71.28 158.694 71.28C160.934 71.28 162.854 72.88 162.79 76.72C162.79 80.88 160.358 84.336 154.086 86.256C158.95 87.984 161.19 91.76 161.19 96.048C161.19 103.856 153.574 113.072 140.646 113.072ZM147.686 86.128C138.854 86.128 133.03 95.856 133.03 103.472C133.03 108.272 135.398 112.24 140.902 112.24C149.542 112.24 155.558 102.32 155.558 94.768C155.558 89.968 153.19 86.128 147.686 86.128ZM186.407 98.992L185.959 98.416C188.199 96.496 189.223 93.744 189.223 91.376C189.223 88.752 187.943 86.64 185.703 86.64C178.983 86.64 175.527 98.16 175.527 113.456C175.527 113.84 175.591 114.288 175.719 114.8C175.847 115.248 176.039 115.76 176.359 116.144C176.615 116.592 176.999 116.976 177.447 117.232C177.895 117.552 178.471 117.68 179.175 117.68V118H166.183V117.68C168.935 117.68 169.767 115.056 169.767 113.456V91.888C169.767 89.136 168.935 86.32 166.183 86.32V86H175.527V102.192C176.935 91.632 180.647 85.36 187.687 85.36C192.743 85.36 195.239 88.432 195.239 91.632C195.239 95.152 192.231 98.864 186.407 98.992ZM195.273 106.928C195.273 103.472 196.937 100.848 199.369 98.928C199.433 90.544 204.297 85.36 213.513 85.36C230.409 85.36 227.209 117.68 237.385 117.68V118H233.225C227.337 118 224.585 111.984 222.473 105.264C222.601 113.712 216.649 118.96 209.609 118.96C201.033 118.96 195.273 114.032 195.273 106.928ZM200.009 98.48C203.849 95.792 209.353 94.576 214.025 94.576C216.009 94.576 217.929 94.832 219.337 95.216C217.609 90.352 215.433 86.64 211.529 86.64C204.681 86.64 200.457 91.632 200.009 98.48ZM201.033 106.928C201.033 113.392 206.153 117.68 211.337 117.68C216.265 117.68 221.833 112.944 221.833 105.456C221.833 104.24 221.641 102.896 221.321 101.552C220.809 99.696 220.233 97.904 219.721 96.176C218.505 95.792 217.097 95.6 215.689 95.6C209.161 95.6 201.033 99.504 201.033 106.928ZM254.045 85.552C268.381 85.552 276.509 96.432 276.509 105.776C276.509 112.816 271.901 118.96 261.981 118.96C255.133 118.96 249.885 113.968 247.965 105.904V129.968C248.029 130.224 248.093 130.48 248.157 130.8C248.285 131.248 248.477 131.696 248.733 132.144C249.053 132.592 249.373 132.976 249.821 133.232C250.269 133.552 250.845 133.68 251.549 133.68V134H238.621V133.68C241.181 133.68 242.141 131.376 242.205 129.84V91.888C242.205 89.136 241.373 86.32 238.621 86.32V86H247.965C249.309 86 251.357 85.552 254.045 85.552ZM260.317 117.68C267.293 117.68 270.621 112.112 270.621 105.712C270.621 96.944 264.349 86.576 252.765 86.576C250.845 86.576 249.245 86.64 247.965 86.704L248.029 99.504C248.029 110.448 254.173 117.68 260.317 117.68ZM324.645 118C311.141 118 314.277 86.64 302.949 86.64C295.397 86.64 290.277 98.16 290.277 113.456C290.277 113.84 290.341 114.288 290.469 114.8C290.597 115.248 290.789 115.696 291.109 116.144C291.621 116.976 292.581 117.68 293.925 117.68V118H280.933V117.68C283.685 117.68 284.517 115.056 284.517 113.456V75.888C284.517 73.136 283.685 70.32 280.933 70.32V70H290.277V103.92C292.005 92.272 296.997 85.36 304.933 85.36C321.829 85.36 318.629 117.68 328.805 117.68V118H324.645ZM335.052 81.584C333.708 81.584 333.132 80.88 333.132 79.92C333.132 77.936 335.5 74.992 338.252 74.992C339.66 74.992 340.236 75.696 340.236 76.656C340.236 78.64 337.868 81.584 335.052 81.584ZM333.58 91.888C333.58 89.136 332.748 86.32 329.996 86.32V86H339.34V113.456C339.34 113.84 339.404 114.288 339.532 114.8C339.66 115.248 339.852 115.76 340.172 116.144C340.428 116.592 340.812 116.976 341.26 117.232C341.708 117.552 342.284 117.68 342.988 117.68V118H329.996V117.68C332.748 117.68 333.58 115.056 333.58 113.456V91.888ZM376.412 109.104L377.116 109.488C373.596 114.8 367.324 118.832 360.796 118.832C350.556 118.832 346.14 113.264 346.14 106.672C346.14 97.072 355.484 85.424 370.14 85.424C377.628 85.424 381.148 89.008 381.148 93.296C381.148 99.696 373.404 107.632 359.388 107.632C357.02 107.632 354.396 107.44 351.708 106.928C351.516 112.624 354.204 117.296 361.116 117.296C367.132 117.296 373.468 113.84 376.412 109.104ZM369.884 86.192C359.9 86.192 352.348 97.328 351.708 106.224C353.5 106.672 355.228 106.864 356.892 106.864C368.284 106.864 376.284 97.584 376.284 91.44C376.284 88.432 374.3 86.192 369.884 86.192Z"/>
</mask>
<path d="M7.34879 48V49H8.34879V48H7.34879ZM-2.31521 48H-3.31521V49H-2.31521V48ZM-2.31521 47.68V46.68H-3.31521V47.68H-2.31521ZM1.20478 43.904L2.2016 43.9837L2.20478 43.9439V43.904H1.20478ZM1.20478 7.232H2.20478V7.1904L2.20133 7.14895L1.20478 7.232ZM-2.31521 3.52H-3.31521V4.52H-2.31521V3.52ZM-2.31521 3.2V2.2H-3.31521V3.2H-2.31521ZM21.1088 23.168L20.9403 22.1823L20.9712 24.1585L21.1088 23.168ZM7.34879 36.096L8.32596 35.8836L6.34879 36.096H7.34879ZM7.34879 3.968V2.968H6.34879V3.968H7.34879ZM7.34879 22.784H6.34879V23.784H7.34879V22.784ZM7.34879 23.552V22.552H6.34879V23.552H7.34879ZM7.34879 30.592H6.34879V30.6133L6.34967 30.6345L7.34879 30.592ZM7.34879 47H-2.31521V49H7.34879V47ZM-1.31521 48V47.68H-3.31521V48H-1.31521ZM-2.31521 48.68C-0.751949 48.68 0.379673 47.9607 1.10776 46.9934C1.80893 46.0618 2.12653 44.9223 2.2016 43.9837L0.207981 43.8243C0.155064 44.4857 -0.0713769 45.2342 -0.49017 45.7906C-0.882107 46.3113 -1.44647 46.68 -2.31521 46.68V48.68ZM2.20478 43.904V7.232H0.204777V43.904H2.20478ZM2.20133 7.14895C2.12543 6.2383 1.80548 5.11563 1.10462 4.19448C0.377201 3.23845 -0.752712 2.52 -2.31521 2.52V4.52C-1.44574 4.52 -0.879635 4.88955 -0.487057 5.40552C-0.0679284 5.95637 0.156132 6.68969 0.208225 7.31504L2.20133 7.14895ZM-1.31521 3.52V3.2H-3.31521V3.52H-1.31521ZM-2.31521 4.2H16.3728V2.2H-2.31521V4.2ZM16.3728 4.2C26.8435 4.2 31.3728 9.09218 31.3728 13.376H33.3728C33.3728 7.41981 27.278 2.2 16.3728 2.2V4.2ZM31.3728 13.376C31.3728 16.983 28.1682 20.9467 20.9403 22.1823L21.2773 24.1537C29.0253 22.8292 33.3728 18.345 33.3728 13.376H31.3728ZM20.9712 24.1585C32.2381 25.7233 36.9408 31.6212 36.9408 36.672H38.9408C38.9408 30.2028 33.0194 23.8127 21.2463 22.1775L20.9712 24.1585ZM36.9408 36.672C36.9408 41.9475 31.9657 47.32 22.1968 47.32V49.32C32.6519 49.32 38.9408 43.4285 38.9408 36.672H36.9408ZM22.1968 47.32C19.1346 47.32 16.1208 46.5166 13.6598 44.7134C11.2116 42.9194 9.23929 40.0848 8.32596 35.8836L6.37162 36.3084C7.3783 40.9392 9.598 44.2166 12.4777 46.3266C15.3447 48.4274 18.795 49.32 22.1968 49.32V47.32ZM6.34879 36.096V48H8.34879V36.096H6.34879ZM6.34879 3.968V22.784H8.34879V3.968H6.34879ZM7.34879 23.784H14.5168V21.784H7.34879V23.784ZM14.5168 23.784C18.7592 23.784 21.9549 22.6297 24.1062 20.773C26.2621 18.9123 27.2928 16.4081 27.2928 13.888H25.2928C25.2928 15.8478 24.4994 17.7917 22.7994 19.259C21.0947 20.7303 18.4023 21.784 14.5168 21.784V23.784ZM27.2928 13.888C27.2928 8.41044 22.5577 2.968 14.5168 2.968V4.968C21.5798 4.968 25.2928 9.63755 25.2928 13.888H27.2928ZM14.5168 2.968H7.34879V4.968H14.5168V2.968ZM13.2368 22.552H7.34879V24.552H13.2368V22.552ZM6.34879 23.552V30.592H8.34879V23.552H6.34879ZM6.34967 30.6345C6.61231 36.8058 8.30933 41.1509 10.846 43.9655C13.3928 46.7914 16.6988 47.976 19.9568 47.976V45.976C17.1987 45.976 14.4568 44.9846 12.3316 42.6265C10.1962 40.2571 8.59726 36.4102 8.34787 30.5495L6.34967 30.6345ZM19.9568 47.976C24.0463 47.976 27.2951 46.6707 29.53 44.5684C31.7618 42.4689 32.9248 39.6262 32.9248 36.672H30.9248C30.9248 39.0938 29.9758 41.4031 28.1596 43.1116C26.3465 44.8173 23.6113 45.976 19.9568 45.976V47.976ZM32.9248 36.672C32.9248 29.6658 26.4517 22.552 13.2368 22.552V24.552C25.7499 24.552 30.9248 31.1342 30.9248 36.672H32.9248ZM62.2823 28.992L61.4929 29.6059L61.8016 30.0028L62.3042 29.9918L62.2823 28.992ZM61.8343 28.416L61.1835 27.6567L60.4595 28.2773L61.0449 29.0299L61.8343 28.416ZM51.5943 44.8L50.6241 45.0425L50.6282 45.0587L50.6328 45.0747L51.5943 44.8ZM52.2343 46.144L53.1025 45.6479L53.0588 45.5714L53.0025 45.5038L52.2343 46.144ZM53.3223 47.232L53.9035 46.4183L53.8623 46.3889L53.8184 46.3638L53.3223 47.232ZM55.0503 47.68H56.0503V46.68H55.0503V47.68ZM55.0503 48V49H56.0503V48H55.0503ZM42.0583 48H41.0583V49H42.0583V48ZM42.0583 47.68V46.68H41.0583V47.68H42.0583ZM42.0583 16.32H41.0583V17.32H42.0583V16.32ZM42.0583 16V15H41.0583V16H42.0583ZM51.4023 16H52.4023V15H51.4023V16ZM51.4023 32.192H50.4023L52.3935 32.3242L51.4023 32.192ZM63.0716 28.3781L62.6236 27.8021L61.0449 29.0299L61.4929 29.6059L63.0716 28.3781ZM62.4851 29.1753C64.9668 27.0481 66.0983 24.0085 66.0983 21.376H64.0983C64.0983 23.4795 63.1819 25.9439 61.1835 27.6567L62.4851 29.1753ZM66.0983 21.376C66.0983 19.9162 65.7443 18.5159 64.9972 17.45C64.2299 16.3555 63.0577 15.64 61.5783 15.64V17.64C62.3388 17.64 62.9266 17.9805 63.3594 18.598C63.8123 19.2441 64.0983 20.2118 64.0983 21.376H66.0983ZM61.5783 15.64C57.5284 15.64 54.7565 19.1162 53.0281 23.977C51.2702 28.9204 50.4023 35.7523 50.4023 43.456H52.4023C52.4023 35.8637 53.2624 29.2876 54.9125 24.647C56.592 19.9238 58.9082 17.64 61.5783 17.64V15.64ZM50.4023 43.456C50.4023 43.9458 50.4831 44.4785 50.6241 45.0425L52.5644 44.5575C52.4494 44.0975 52.4023 43.7342 52.4023 43.456H50.4023ZM50.6328 45.0747C50.7709 45.5583 51.0089 46.2355 51.4661 46.7842L53.0025 45.5038C52.8197 45.2844 52.6736 44.9377 52.5558 44.5253L50.6328 45.0747ZM51.366 46.6401C51.7106 47.2432 52.2231 47.7557 52.8261 48.1002L53.8184 46.3638C53.5255 46.1963 53.2699 45.9408 53.1025 45.6479L51.366 46.6401ZM52.741 48.0457C53.4253 48.5345 54.2383 48.68 55.0503 48.68V46.68C54.4543 46.68 54.1153 46.5695 53.9035 46.4183L52.741 48.0457ZM54.0503 47.68V48H56.0503V47.68H54.0503ZM55.0503 47H42.0583V49H55.0503V47ZM43.0583 48V47.68H41.0583V48H43.0583ZM42.0583 48.68C43.8164 48.68 45.0107 47.814 45.7227 46.7099C46.4036 45.654 46.6423 44.3968 46.6423 43.456H44.6423C44.6423 44.1152 44.465 44.97 44.0419 45.626C43.6498 46.234 43.0522 46.68 42.0583 46.68V48.68ZM46.6423 43.456V21.888H44.6423V43.456H46.6423ZM46.6423 21.888C46.6423 20.4396 46.4278 18.8604 45.7671 17.606C45.0725 16.2873 43.8664 15.32 42.0583 15.32V17.32C43.0021 17.32 43.5881 17.7607 43.9975 18.538C44.4408 19.3796 44.6423 20.5844 44.6423 21.888H46.6423ZM43.0583 16.32V16H41.0583V16.32H43.0583ZM42.0583 17H51.4023V15H42.0583V17ZM50.4023 16V32.192H52.4023V16H50.4023ZM52.3935 32.3242C53.0891 27.107 54.3407 23.0808 56.1945 20.3822C58.0105 17.7389 60.403 16.36 63.5623 16.36V14.36C59.6815 14.36 56.6981 16.1171 54.5461 19.2498C52.4319 22.3272 51.1234 26.717 50.411 32.0598L52.3935 32.3242ZM63.5623 16.36C65.8839 16.36 67.5136 17.0615 68.5533 18.0283C69.5956 18.9976 70.1143 20.2955 70.1143 21.632H72.1143C72.1143 19.7685 71.3849 17.9304 69.9153 16.5637C68.443 15.1945 66.2967 14.36 63.5623 14.36V16.36ZM70.1143 21.632C70.1143 24.5272 67.6255 27.8743 62.2603 27.9922L62.3042 29.9918C68.587 29.8537 72.1143 25.7768 72.1143 21.632H70.1143ZM75.2438 28.928L75.8634 29.7129L76.2401 29.4155L76.2437 28.9356L75.2438 28.928ZM113.26 47.68H114.26V46.68H113.26V47.68ZM113.26 48V49H114.26V48H113.26ZM98.3478 35.264L99.3018 34.9642L97.3479 35.2791L98.3478 35.264ZM75.8838 28.48L74.8859 28.4147L74.7498 30.4944L76.4572 29.2992L75.8838 28.48ZM95.2118 25.216L94.9486 26.1808L96.7946 26.6842L96.1541 24.8812L95.2118 25.216ZM97.1958 31.552L98.1686 31.3204L98.1645 31.3031L98.1598 31.2861L97.1958 31.552ZM95.5958 26.176L96.5546 25.8919L96.4036 25.3824L95.8969 25.2224L95.5958 26.176ZM72.1478 36.928C72.1478 33.8423 73.6162 31.487 75.8634 29.7129L74.6241 28.1431C72.0074 30.209 70.1478 33.1016 70.1478 36.928H72.1478ZM76.2437 28.9356C76.2743 24.9333 77.4463 21.8229 79.5861 19.7119C81.726 17.6008 84.9648 16.36 89.3878 16.36V14.36C84.5948 14.36 80.7935 15.7112 78.1815 18.2881C75.5693 20.8651 74.2773 24.5387 74.2438 28.9204L76.2437 28.9356ZM89.3878 16.36C93.2223 16.36 95.9163 18.1651 98.01 21.0036C100.138 23.889 101.6 27.7873 102.891 31.8246C104.159 35.788 105.275 39.9443 106.704 43.0482C108.114 46.1098 110.064 48.68 113.26 48.68V46.68C111.367 46.68 109.902 45.2102 108.521 42.2118C107.16 39.2557 106.113 35.332 104.796 31.2154C103.503 27.1727 101.961 22.991 99.6195 19.8164C97.2433 16.5948 94.0013 14.36 89.3878 14.36V16.36ZM112.26 47.68V48H114.26V47.68H112.26ZM113.26 47H109.1V49H113.26V47ZM109.1 47C106.569 47 104.68 45.7353 103.119 43.5676C101.532 41.3632 100.354 38.3127 99.3018 34.9642L97.3938 35.5638C98.4534 38.9353 99.7078 42.2528 101.496 44.7364C103.311 47.2567 105.742 49 109.1 49V47ZM97.3479 35.2791C97.4673 43.1611 91.9735 47.96 85.4838 47.96V49.96C93.074 49.96 99.4842 44.2629 99.3477 35.2488L97.3479 35.2791ZM85.4838 47.96C81.3823 47.96 78.0418 46.7824 75.7447 44.8438C73.4609 42.9163 72.1478 40.1893 72.1478 36.928H70.1478C70.1478 40.7706 71.7147 44.0597 74.4548 46.3722C77.1818 48.6736 81.0092 49.96 85.4838 49.96V47.96ZM76.4572 29.2992C80.0775 26.765 85.3594 25.576 89.8998 25.576V23.576C85.0962 23.576 79.37 24.819 75.3103 27.6608L76.4572 29.2992ZM89.8998 25.576C91.8086 25.576 93.6388 25.8235 94.9486 26.1808L95.4749 24.2512C93.9688 23.8405 91.9589 23.576 89.8998 23.576V25.576ZM96.1541 24.8812C95.2805 22.4222 94.2588 20.1459 92.8999 18.4734C91.5148 16.7686 89.7317 15.64 87.4038 15.64V17.64C88.9799 17.64 90.2368 18.3674 91.3477 19.7346C92.4848 21.1341 93.4151 23.1458 94.2695 25.5508L96.1541 24.8812ZM87.4038 15.64C83.7191 15.64 80.6813 16.9912 78.5135 19.3089C76.3579 21.6133 75.1219 24.8073 74.8859 28.4147L76.8816 28.5453C77.0937 25.3047 78.1936 22.5787 79.9741 20.6751C81.7423 18.7848 84.2404 17.64 87.4038 17.64V15.64ZM75.9078 36.928C75.9078 43.9679 81.4994 48.68 87.2118 48.68V46.68C82.5561 46.68 77.9078 42.8161 77.9078 36.928H75.9078ZM87.2118 48.68C92.7425 48.68 98.7078 43.4444 98.7078 35.456H96.7078C96.7078 42.4435 91.5371 46.68 87.2118 46.68V48.68ZM98.7078 35.456C98.7078 34.1414 98.5012 32.7172 98.1686 31.3204L96.223 31.7836C96.5304 33.0748 96.7078 34.3386 96.7078 35.456H98.7078ZM98.1598 31.2861C97.6452 29.421 97.057 27.5878 96.5546 25.8919L94.637 26.4601C95.1585 28.2202 95.7223 29.971 96.2318 31.8179L98.1598 31.2861ZM95.8969 25.2224C94.5678 24.8027 93.0561 24.6 91.5638 24.6V26.6C92.8874 26.6 94.1917 26.7813 95.2946 27.1296L95.8969 25.2224ZM91.5638 24.6C88.1237 24.6 84.2617 25.6232 81.232 27.6487C78.1846 29.686 75.9078 32.7979 75.9078 36.928H77.9078C77.9078 33.6341 79.6949 31.082 82.3435 29.3113C85.0099 27.5288 88.4759 26.6 91.5638 26.6V24.6ZM124.032 44.8L123.062 45.0425L123.066 45.0587L123.07 45.0747L124.032 44.8ZM124.672 46.144L125.54 45.6479L125.496 45.5714L125.44 45.5038L124.672 46.144ZM125.76 47.232L126.341 46.4183L126.3 46.3889L126.256 46.3638L125.76 47.232ZM127.488 47.68H128.488V46.68H127.488V47.68ZM127.488 48V49H128.488V48H127.488ZM114.496 48H113.496V49H114.496V48ZM114.496 47.68V46.68H113.496V47.68H114.496ZM114.496 16.32H113.496V17.32H114.496V16.32ZM114.496 16V15H113.496V16H114.496ZM123.84 16H124.84V15H123.84V16ZM123.84 33.92H122.84L124.829 34.0667L123.84 33.92ZM162.368 47.68H163.368V46.68H162.368V47.68ZM162.368 48V49H163.368V48H162.368ZM158.208 47C155.316 47 153.253 45.3593 151.569 42.5817C149.865 39.7706 148.669 35.9775 147.503 32.0362C146.356 28.1628 145.235 24.128 143.671 21.0831C142.109 18.0405 139.922 15.64 136.512 15.64V17.64C138.766 17.64 140.435 19.1595 141.892 21.9969C143.348 24.832 144.411 28.6372 145.585 32.6038C146.739 36.5025 147.998 40.5494 149.859 43.6183C151.739 46.7207 154.347 49 158.208 49V47ZM136.512 15.64C132.151 15.64 128.722 18.9672 126.437 23.891C124.133 28.854 122.84 35.713 122.84 43.456H124.84C124.84 35.903 126.106 29.354 128.251 24.733C130.414 20.0728 133.321 17.64 136.512 17.64V15.64ZM122.84 43.456C122.84 43.9458 122.921 44.4785 123.062 45.0425L125.002 44.5575C124.887 44.0975 124.84 43.7342 124.84 43.456H122.84ZM123.07 45.0747C123.208 45.5583 123.446 46.2355 123.904 46.7842L125.44 45.5038C125.257 45.2844 125.111 44.9377 124.993 44.5253L123.07 45.0747ZM123.804 46.6401C124.148 47.2432 124.661 47.7557 125.264 48.1002L126.256 46.3638C125.963 46.1963 125.707 45.9408 125.54 45.6479L123.804 46.6401ZM125.179 48.0457C125.863 48.5345 126.676 48.68 127.488 48.68V46.68C126.892 46.68 126.553 46.5695 126.341 46.4183L125.179 48.0457ZM126.488 47.68V48H128.488V47.68H126.488ZM127.488 47H114.496V49H127.488V47ZM115.496 48V47.68H113.496V48H115.496ZM114.496 48.68C116.254 48.68 117.448 47.814 118.16 46.7099C118.841 45.654 119.08 44.3968 119.08 43.456H117.08C117.08 44.1152 116.902 44.97 116.479 45.626C116.087 46.234 115.49 46.68 114.496 46.68V48.68ZM119.08 43.456V21.888H117.08V43.456H119.08ZM119.08 21.888C119.08 20.4396 118.865 18.8604 118.205 17.606C117.51 16.2873 116.304 15.32 114.496 15.32V17.32C115.44 17.32 116.026 17.7607 116.435 18.538C116.878 19.3796 117.08 20.5844 117.08 21.888H119.08ZM115.496 16.32V16H113.496V16.32H115.496ZM114.496 17H123.84V15H114.496V17ZM122.84 16V33.92H124.84V16H122.84ZM124.829 34.0667C125.679 28.3339 127.319 23.8805 129.632 20.8828C131.916 17.9216 134.865 16.36 138.496 16.36V14.36C134.19 14.36 130.676 16.2544 128.048 19.6612C125.448 23.0315 123.728 27.8581 122.851 33.7733L124.829 34.0667ZM138.496 16.36C142.33 16.36 145.024 18.1651 147.118 21.0036C149.246 23.889 150.708 27.7873 151.999 31.8246C153.267 35.788 154.383 39.9443 155.812 43.0482C157.222 46.1098 159.172 48.68 162.368 48.68V46.68C160.475 46.68 159.01 45.2102 157.629 42.2118C156.268 39.2557 155.221 35.332 153.904 31.2154C152.611 27.1727 151.069 22.991 148.728 19.8164C146.351 16.5948 143.109 14.36 138.496 14.36V16.36ZM161.368 47.68V48H163.368V47.68H161.368ZM162.368 47H158.208V49H162.368V47ZM191.957 16.64L191.543 17.5504L192.957 18.193V16.64H191.957ZM188.309 0.319996H187.309V1.32H188.309V0.319996ZM188.309 -3.99351e-06V-1H187.309V-3.99351e-06H188.309ZM197.717 -3.99351e-06H198.717V-1H197.717V-3.99351e-06ZM197.845 44.8L196.853 44.924L196.862 45.0006L196.883 45.0747L197.845 44.8ZM198.485 46.144L199.336 45.6199L199.318 45.5907L199.298 45.5628L198.485 46.144ZM201.301 47.68H202.301V46.68H201.301V47.68ZM201.301 48V49H202.301V48H201.301ZM191.957 48H190.957V49H191.957V48ZM191.957 35.904H192.957L190.984 35.6724L191.957 35.904ZM191.957 17.472H192.957V16.8254L192.367 16.5601L191.957 17.472ZM192.957 16.64V5.888H190.957V16.64H192.957ZM192.957 5.888C192.957 4.43052 192.724 2.8497 192.044 1.5955C191.332 0.282157 190.113 -0.680004 188.309 -0.680004V1.32C189.257 1.32 189.861 1.76583 190.286 2.5485C190.742 3.39029 190.957 4.59347 190.957 5.888H192.957ZM189.309 0.319996V-3.99351e-06H187.309V0.319996H189.309ZM188.309 0.999996H197.717V-1H188.309V0.999996ZM196.717 -3.99351e-06V43.456H198.717V-3.99351e-06H196.717ZM196.717 43.456C196.717 43.9197 196.793 44.4511 196.853 44.924L198.837 44.676C198.768 44.1249 198.717 43.7603 198.717 43.456H196.717ZM196.883 45.0747C197.037 45.6128 197.274 46.1689 197.671 46.7252L199.298 45.5628C199.056 45.2231 198.909 44.8832 198.806 44.5253L196.883 45.0747ZM197.633 46.6681C198.306 47.7614 199.571 48.68 201.301 48.68V46.68C200.343 46.68 199.688 46.1906 199.336 45.6199L197.633 46.6681ZM200.301 47.68V48H202.301V47.68H200.301ZM201.301 47H191.957V49H201.301V47ZM192.957 48V35.904H190.957V48H192.957ZM190.984 35.6724C189.136 43.4325 184.19 47.96 177.941 47.96V49.96C185.387 49.96 190.937 44.5035 192.93 36.1356L190.984 35.6724ZM177.941 47.96C173.193 47.96 169.837 46.4954 167.667 44.3044C165.492 42.1068 164.413 39.0798 164.413 35.776H162.413C162.413 39.5122 163.638 43.0772 166.246 45.7116C168.861 48.3526 172.768 49.96 177.941 49.96V47.96ZM164.413 35.776C164.413 26.9686 172.109 16.552 185.877 16.552V14.552C170.973 14.552 162.413 25.8954 162.413 35.776H164.413ZM185.877 16.552C188.335 16.552 190.297 16.9842 191.543 17.5504L192.371 15.7296C190.8 15.0158 188.539 14.552 185.877 14.552V16.552ZM179.669 48.68C183.147 48.68 186.49 46.6404 188.925 43.2922C191.369 39.9324 192.957 35.192 192.957 29.568H190.957C190.957 34.824 189.473 39.1396 187.308 42.1158C185.135 45.1036 182.335 46.68 179.669 46.68V48.68ZM192.957 29.568V17.472H190.957V29.568H192.957ZM192.367 16.5601C190.93 15.9135 189.12 15.576 187.221 15.576V17.576C188.905 17.576 190.423 17.8785 191.546 18.3839L192.367 16.5601ZM187.221 15.576C174.84 15.576 168.365 26.5919 168.365 35.712H170.365C170.365 27.2961 176.306 17.576 187.221 17.576V15.576ZM168.365 35.712C168.365 39.0706 169.236 42.2978 171.111 44.7097C173.011 47.1532 175.882 48.68 179.669 48.68V46.68C176.48 46.68 174.199 45.4228 172.69 43.4823C171.157 41.5102 170.365 38.7534 170.365 35.712H168.365ZM203.621 16.32H202.621V17.32H203.621V16.32ZM203.621 16V15H202.621V16H203.621ZM212.965 16H213.965V15H212.965V16ZM213.157 44.8L212.187 45.0425L212.191 45.0587L212.195 45.0747L213.157 44.8ZM213.797 46.144L214.665 45.6479L214.621 45.5714L214.565 45.5038L213.797 46.144ZM214.885 47.232L215.466 46.4183L215.425 46.3889L215.381 46.3638L214.885 47.232ZM216.613 47.68H217.613V46.68H216.613V47.68ZM216.613 48V49H217.613V48H216.613ZM203.621 48H202.621V49H203.621V48ZM203.621 47.68V46.68H202.621V47.68H203.621ZM208.677 10.584C208.172 10.584 207.971 10.4533 207.901 10.3865C207.836 10.3252 207.757 10.2003 207.757 9.92H205.757C205.757 10.5997 205.965 11.3068 206.524 11.8375C207.078 12.3627 207.838 12.584 208.677 12.584V10.584ZM207.757 9.92C207.757 9.27056 208.18 8.27271 209.009 7.40121C209.823 6.54614 210.858 5.992 211.877 5.992V3.992C210.144 3.992 208.619 4.90985 207.56 6.02278C206.517 7.11928 205.757 8.58543 205.757 9.92H207.757ZM211.877 5.992C212.425 5.992 212.643 6.12871 212.718 6.1981C212.782 6.25767 212.861 6.37675 212.861 6.656H214.861C214.861 5.97525 214.651 5.26232 214.076 4.7299C213.511 4.20729 212.736 3.992 211.877 3.992V5.992ZM212.861 6.656C212.861 7.30464 212.438 8.30158 211.603 9.17171C210.786 10.0239 209.734 10.584 208.677 10.584V12.584C210.435 12.584 211.976 11.6721 213.046 10.5563C214.1 9.45842 214.861 7.99136 214.861 6.656H212.861ZM208.205 21.888C208.205 20.4396 207.99 18.8604 207.33 17.606C206.635 16.2873 205.429 15.32 203.621 15.32V17.32C204.565 17.32 205.151 17.7607 205.56 18.538C206.003 19.3796 206.205 20.5844 206.205 21.888H208.205ZM204.621 16.32V16H202.621V16.32H204.621ZM203.621 17H212.965V15H203.621V17ZM211.965 16V43.456H213.965V16H211.965ZM211.965 43.456C211.965 43.9458 212.046 44.4785 212.187 45.0425L214.127 44.5575C214.012 44.0975 213.965 43.7342 213.965 43.456H211.965ZM212.195 45.0747C212.333 45.5583 212.571 46.2355 213.029 46.7842L214.565 45.5038C214.382 45.2844 214.236 44.9377 214.118 44.5253L212.195 45.0747ZM212.929 46.6401C213.273 47.2432 213.786 47.7557 214.389 48.1002L215.381 46.3638C215.088 46.1963 214.832 45.9408 214.665 45.6479L212.929 46.6401ZM214.304 48.0457C214.988 48.5345 215.801 48.68 216.613 48.68V46.68C216.017 46.68 215.678 46.5695 215.466 46.4183L214.304 48.0457ZM215.613 47.68V48H217.613V47.68H215.613ZM216.613 47H203.621V49H216.613V47ZM204.621 48V47.68H202.621V48H204.621ZM203.621 48.68C205.379 48.68 206.573 47.814 207.285 46.7099C207.966 45.654 208.205 44.3968 208.205 43.456H206.205C206.205 44.1152 206.027 44.97 205.604 45.626C205.212 46.234 204.615 46.68 203.621 46.68V48.68ZM208.205 43.456V21.888H206.205V43.456H208.205ZM228.469 44.8L227.499 45.0425L227.503 45.0587L227.508 45.0747L228.469 44.8ZM229.109 46.144L229.977 45.6479L229.934 45.5714L229.877 45.5038L229.109 46.144ZM230.197 47.232L230.779 46.4183L230.737 46.3889L230.693 46.3638L230.197 47.232ZM231.925 47.68H232.925V46.68H231.925V47.68ZM231.925 48V49H232.925V48H231.925ZM218.933 48H217.933V49H218.933V48ZM218.933 47.68V46.68H217.933V47.68H218.933ZM218.933 16.32H217.933V17.32H218.933V16.32ZM218.933 16V15H217.933V16H218.933ZM228.277 16H229.277V15H228.277V16ZM228.277 33.92H227.277L229.266 34.0667L228.277 33.92ZM266.805 47.68H267.805V46.68H266.805V47.68ZM266.805 48V49H267.805V48H266.805ZM262.645 47C259.754 47 257.69 45.3593 256.006 42.5817C254.303 39.7706 253.106 35.9775 251.94 32.0362C250.794 28.1628 249.673 24.128 248.109 21.0831C246.546 18.0405 244.359 15.64 240.949 15.64V17.64C243.203 17.64 244.872 19.1595 246.33 21.9969C247.786 24.832 248.849 28.6372 250.022 32.6038C251.176 36.5025 252.436 40.5494 254.296 43.6183C256.177 46.7207 258.785 49 262.645 49V47ZM240.949 15.64C236.588 15.64 233.159 18.9672 230.874 23.891C228.571 28.854 227.277 35.713 227.277 43.456H229.277C229.277 35.903 230.544 29.354 232.688 24.733C234.851 20.0728 237.758 17.64 240.949 17.64V15.64ZM227.277 43.456C227.277 43.9458 227.358 44.4785 227.499 45.0425L229.439 44.5575C229.324 44.0975 229.277 43.7342 229.277 43.456H227.277ZM227.508 45.0747C227.646 45.5583 227.884 46.2355 228.341 46.7842L229.877 45.5038C229.695 45.2844 229.549 44.9377 229.431 44.5253L227.508 45.0747ZM228.241 46.6401C228.586 47.2432 229.098 47.7557 229.701 48.1002L230.693 46.3638C230.4 46.1963 230.145 45.9408 229.977 45.6479L228.241 46.6401ZM229.616 48.0457C230.3 48.5345 231.113 48.68 231.925 48.68V46.68C231.329 46.68 230.99 46.5695 230.779 46.4183L229.616 48.0457ZM230.925 47.68V48H232.925V47.68H230.925ZM231.925 47H218.933V49H231.925V47ZM219.933 48V47.68H217.933V48H219.933ZM218.933 48.68C220.691 48.68 221.886 47.814 222.598 46.7099C223.279 45.654 223.517 44.3968 223.517 43.456H221.517C221.517 44.1152 221.34 44.97 220.917 45.626C220.525 46.234 219.927 46.68 218.933 46.68V48.68ZM223.517 43.456V21.888H221.517V43.456H223.517ZM223.517 21.888C223.517 20.4396 223.303 18.8604 222.642 17.606C221.947 16.2873 220.741 15.32 218.933 15.32V17.32C219.877 17.32 220.463 17.7607 220.873 18.538C221.316 19.3796 221.517 20.5844 221.517 21.888H223.517ZM219.933 16.32V16H217.933V16.32H219.933ZM218.933 17H228.277V15H218.933V17ZM227.277 16V33.92H229.277V16H227.277ZM229.266 34.0667C230.117 28.3339 231.757 23.8805 234.069 20.8828C236.353 17.9216 239.303 16.36 242.933 16.36V14.36C238.628 14.36 235.113 16.2544 232.485 19.6612C229.886 23.0315 228.166 27.8581 227.288 33.7733L229.266 34.0667ZM242.933 16.36C246.768 16.36 249.462 18.1651 251.556 21.0036C253.684 23.889 255.146 27.7873 256.437 31.8246C257.704 35.788 258.821 39.9443 260.25 43.0482C261.659 46.1098 263.61 48.68 266.805 48.68V46.68C264.913 46.68 263.447 45.2102 262.067 42.2118C260.706 39.2557 259.658 35.332 258.342 31.2154C257.049 27.1727 255.507 22.991 253.165 19.8164C250.789 16.5948 247.547 14.36 242.933 14.36V16.36ZM265.805 47.68V48H267.805V47.68H265.805ZM266.805 47H262.645V49H266.805V47ZM280.778 43.008L280.861 42.0115L280.82 42.008H280.778V43.008ZM289.226 57.408L290.223 57.491L290.306 56.4926L289.307 56.4113L289.226 57.408ZM289.162 58.176L289.075 59.1722L290.075 59.2597L290.159 58.259L289.162 58.176ZM277.962 42.432L278.178 43.4085L278.218 41.4652L277.962 42.432ZM295.306 15.872L295.054 16.8396L295.291 16.9014L295.529 16.8468L295.306 15.872ZM294.346 9.664L293.706 10.4322L294.616 11.1902L295.211 10.1666L294.346 9.664ZM293.962 9.344H292.962V9.81237L293.322 10.1122L293.962 9.344ZM305.29 6.72L304.29 6.70333L304.29 6.71166V6.72H305.29ZM296.586 16.256L296.294 15.2998L293.4 16.1854L296.251 17.1983L296.586 16.256ZM283.146 42.072C282.307 42.072 281.581 42.0714 280.861 42.0115L280.695 44.0045C281.512 44.0726 282.322 44.072 283.146 44.072V42.072ZM280.778 42.008C277.091 42.008 274.128 43.4062 272.085 45.1712C271.065 46.0518 270.265 47.0319 269.714 47.991C269.172 48.9346 268.834 49.9247 268.834 50.816H270.834C270.834 50.3953 271.008 49.7534 271.448 48.987C271.88 48.2361 272.531 47.4282 273.392 46.6847C275.109 45.2018 277.618 44.008 280.778 44.008V42.008ZM268.834 50.816C268.834 51.4167 268.984 52.0686 269.436 52.5816C269.908 53.1159 270.577 53.352 271.306 53.352V51.352C271.012 51.352 270.945 51.2681 270.936 51.2584C270.909 51.2274 270.834 51.1113 270.834 50.816H268.834ZM271.306 53.352C271.948 53.352 272.712 53.208 273.528 52.9951C274.357 52.7786 275.302 52.4736 276.324 52.1159C278.355 51.4055 280.804 50.4467 283.332 49.5142C288.477 47.617 294.041 45.8 298.314 45.8V43.8C293.628 43.8 287.735 45.759 282.64 47.6378C280.049 48.5933 277.681 49.5225 275.664 50.2281C274.662 50.5784 273.776 50.8634 273.023 51.0599C272.256 51.26 271.689 51.352 271.306 51.352V53.352ZM298.314 45.8C301.769 45.8 304.418 48.5233 304.418 52.672H306.418C306.418 47.6047 303.051 43.8 298.314 43.8V45.8ZM304.418 52.672C304.418 58.7784 301.161 63.7284 296.723 67.1873C292.27 70.659 286.738 72.536 282.442 72.536V74.536C287.235 74.536 293.191 72.477 297.953 68.7647C302.732 65.0396 306.418 59.5576 306.418 52.672H304.418ZM282.442 72.536C280.388 72.536 278.695 72.0949 277.546 71.2861C276.442 70.5097 275.762 69.3461 275.762 67.648H273.762C273.762 69.9819 274.747 71.7623 276.395 72.9219C277.997 74.0491 280.145 74.536 282.442 74.536V72.536ZM275.762 67.648C275.762 64.9485 277.662 62.5433 280.457 60.8098C283.239 59.0845 286.645 58.2012 289.145 58.4047L289.307 56.4113C286.304 56.1668 282.477 57.2035 279.403 59.1102C276.342 61.0087 273.762 63.9475 273.762 67.648H275.762ZM288.23 57.325L288.166 58.0929L290.159 58.259L290.223 57.491L288.23 57.325ZM289.249 57.1798C286.435 56.9335 282.816 57.9075 279.906 59.6822C277.014 61.4458 274.53 64.1913 274.53 67.648H276.53C276.53 65.2167 278.303 63.0022 280.947 61.3898C283.573 59.7885 286.77 58.9705 289.075 59.1722L289.249 57.1798ZM274.53 67.648C274.53 68.9424 275.014 69.9859 275.951 70.6656C276.834 71.3052 277.989 71.528 279.178 71.528V69.528C278.191 69.528 277.523 69.3348 277.125 69.0464C276.783 68.7981 276.53 68.4016 276.53 67.648H274.53ZM279.178 71.528C281.318 71.528 284.025 70.8145 286.825 69.6911C289.645 68.5593 292.645 66.9771 295.393 65.1625C298.137 63.3507 300.665 61.2847 302.52 59.1728C304.346 57.0928 305.65 54.819 305.65 52.608H303.65C303.65 54.077 302.747 55.8832 301.017 57.8532C299.315 59.7913 296.939 61.7453 294.291 63.4935C291.648 65.2389 288.767 66.7567 286.08 67.8349C283.372 68.9215 280.943 69.528 279.178 69.528V71.528ZM305.65 52.608C305.65 50.8377 305.119 49.4329 304.019 48.4952C302.95 47.583 301.508 47.256 299.978 47.256V49.256C301.265 49.256 302.159 49.5369 302.721 50.0168C303.254 50.4711 303.65 51.2423 303.65 52.608H305.65ZM299.978 47.256C297.846 47.256 295.274 47.8781 292.61 48.7563C289.929 49.6402 287.066 50.8144 284.331 51.9755C281.58 53.1438 278.975 54.2912 276.748 55.1535C275.638 55.5834 274.643 55.9336 273.792 56.1753C272.927 56.4209 272.271 56.536 271.818 56.536V58.536C272.549 58.536 273.416 58.3611 274.338 58.0992C275.275 57.8334 276.334 57.4586 277.47 57.0185C279.737 56.1408 282.401 54.9682 285.113 53.8165C287.842 52.6576 290.64 51.5117 293.236 50.6557C295.85 49.7939 298.175 49.256 299.978 49.256V47.256ZM271.818 56.536C270.423 56.536 269.553 56.0796 269.026 55.5066C268.482 54.916 268.21 54.1015 268.21 53.248H266.21C266.21 54.5065 266.61 55.836 267.555 56.8614C268.515 57.9044 269.949 58.536 271.818 58.536V56.536ZM268.21 53.248C268.21 51.4061 269.441 49.2182 271.434 47.2861C273.404 45.3767 275.933 43.9041 278.178 43.4085L277.747 41.4555C275.063 42.0479 272.216 43.7433 270.042 45.8499C267.892 47.9338 266.21 50.6099 266.21 53.248H268.21ZM278.218 41.4652C273.103 40.1131 270.834 36.4255 270.834 32.384H268.834C268.834 37.3025 271.685 41.8069 277.707 43.3988L278.218 41.4652ZM270.834 32.384C270.834 25.1315 277.997 16.296 290.442 16.296V14.296C277.032 14.296 268.834 23.8925 268.834 32.384H270.834ZM290.442 16.296C292.162 16.296 293.676 16.4802 295.054 16.8396L295.559 14.9044C293.993 14.4958 292.306 14.296 290.442 14.296V16.296ZM295.529 16.8468C298.34 16.2033 300.67 14.945 302.315 13.4834C303.921 12.0552 305.01 10.3012 305.01 8.64H303.01C303.01 9.4748 302.403 10.7288 300.986 11.9886C299.606 13.215 297.584 14.3247 295.083 14.8972L295.529 16.8468ZM305.01 8.64C305.01 7.34839 304.571 6.27364 303.739 5.53315C302.926 4.80862 301.849 4.504 300.746 4.504V6.504C301.5 6.504 302.055 6.71138 302.409 7.02684C302.746 7.32635 303.01 7.81961 303.01 8.64H305.01ZM300.746 4.504C298.168 4.504 295.236 6.14344 293.482 9.16138L295.211 10.1666C296.656 7.68055 298.972 6.504 300.746 6.504V4.504ZM294.986 8.89578L294.602 8.57578L293.322 10.1122L293.706 10.4322L294.986 8.89578ZM294.962 9.344C294.962 7.26606 295.831 5.49484 297.067 4.23707C298.319 2.96347 299.883 2.28 301.194 2.28V0.279999C299.242 0.279999 297.189 1.26053 295.641 2.83493C294.078 4.42515 292.962 6.68593 292.962 9.344H294.962ZM301.194 2.28C302.067 2.28 302.812 2.58424 303.346 3.20965C303.892 3.84886 304.32 4.94301 304.29 6.70333L306.29 6.73666C306.325 4.65699 305.824 3.03114 304.866 1.91035C303.897 0.775756 302.561 0.279999 301.194 0.279999V2.28ZM304.29 6.72C304.29 8.59072 303.75 10.2556 302.531 11.6772C301.299 13.1145 299.311 14.3761 296.294 15.2998L296.879 17.2122C300.134 16.2158 302.498 14.7895 304.05 12.9788C305.615 11.1524 306.29 9.00928 306.29 6.72H304.29ZM296.251 17.1983C300.699 18.7783 302.69 22.1641 302.69 26.048H304.69C304.69 21.3559 302.202 17.1897 296.921 15.3137L296.251 17.1983ZM302.69 26.048C302.69 33.2384 295.59 42.072 283.146 42.072V44.072C296.559 44.072 304.69 34.4736 304.69 26.048H302.69ZM290.186 15.128C285.371 15.128 281.439 17.7843 278.749 21.3407C276.065 24.8889 274.53 29.4346 274.53 33.472H276.53C276.53 29.8934 277.908 25.7671 280.344 22.5473C282.773 19.3357 286.169 17.128 290.186 17.128V15.128ZM274.53 33.472C274.53 36.0202 275.157 38.4595 276.623 40.2826C278.115 42.1387 280.385 43.24 283.402 43.24V41.24C280.915 41.24 279.249 40.3573 278.182 39.0294C277.087 37.6685 276.53 35.7238 276.53 33.472H274.53ZM283.402 43.24C288.133 43.24 292.063 40.5235 294.768 36.9384C297.471 33.3572 299.058 28.781 299.058 24.768H297.058C297.058 28.307 295.637 32.4668 293.172 35.7336C290.71 38.9965 287.311 41.24 283.402 41.24V43.24ZM299.058 24.768C299.058 22.2194 298.431 19.8074 296.959 18.0137C295.462 16.189 293.192 15.128 290.186 15.128V17.128C292.685 17.128 294.35 17.987 295.413 19.2823C296.501 20.6086 297.058 22.5166 297.058 24.768H299.058ZM354.733 22.336L354.759 23.3356L355.594 23.3134L355.721 22.4881L354.733 22.336ZM363.821 33.856L363.177 33.0911L363.132 33.1287L363.092 33.1713L363.821 33.856ZM354.349 33.344L355.13 33.9687L355.873 33.0389L354.829 32.4669L354.349 33.344ZM354.093 33.664L353.632 34.5518L354.361 34.9295L354.874 34.2887L354.093 33.664ZM383.981 24.64L383.534 25.5344L384.456 25.9958L384.889 25.0591L383.981 24.64ZM383.725 24.512L382.767 24.2247L382.525 25.0303L383.278 25.4064L383.725 24.512ZM365.485 32.064L364.735 31.4024L365.97 32.9382L365.485 32.064ZM349.805 22.016L349.895 23.0119L349.805 21.016V22.016ZM354.349 16L353.379 15.7575L353.172 16.5837L353.955 16.9191L354.349 16ZM354.477 15.488L354.861 14.5649L353.789 14.1179L353.507 15.2455L354.477 15.488ZM354.861 21.504L355.849 21.6561L356.03 20.4799L354.84 20.5042L354.861 21.504ZM354.706 21.3363C342.263 21.6673 334.789 29.9279 334.789 37.568H336.789C336.789 31.2561 343.138 23.6447 354.759 23.3356L354.706 21.3363ZM334.789 37.568C334.789 40.597 335.994 43.4916 338.513 45.6129C341.02 47.7244 344.743 49 349.677 49V47C345.075 47 341.854 45.8116 339.801 44.0831C337.76 42.3644 336.789 40.043 336.789 37.568H334.789ZM349.677 49C363.67 49 369.749 40.0949 369.749 35.008H367.749C367.749 38.753 362.819 47 349.677 47V49ZM369.749 35.008C369.749 34.103 369.543 33.2248 369.061 32.5428C368.555 31.8272 367.778 31.384 366.829 31.384V33.384C367.096 33.384 367.278 33.4848 367.428 33.6972C367.602 33.9432 367.749 34.377 367.749 35.008H369.749ZM366.829 31.384C365.709 31.384 364.457 32.0127 363.177 33.0911L364.465 34.6209C365.616 33.6513 366.413 33.384 366.829 33.384V31.384ZM363.092 33.1713C361.127 35.2631 359.153 37.1222 357.201 38.454C355.243 39.7902 353.393 40.536 351.661 40.536V42.536C353.96 42.536 356.207 41.5538 358.328 40.106C360.457 38.6537 362.547 36.6729 364.55 34.5407L363.092 33.1713ZM351.661 40.536C344.996 40.536 342.805 37.604 342.805 35.712H340.805C340.805 39.324 344.629 42.536 351.661 42.536V40.536ZM342.805 35.712C342.805 34.1065 344.246 32.296 347.437 32.296V30.296C343.459 30.296 340.805 32.7095 340.805 35.712H342.805ZM347.437 32.296C349.154 32.296 351.294 32.811 353.868 34.2211L354.829 32.4669C352.028 30.933 349.56 30.296 347.437 30.296V32.296ZM353.568 32.7193L353.312 33.0393L354.874 34.2887L355.13 33.9687L353.568 32.7193ZM354.553 32.7762C352.715 31.8233 351.022 31.384 349.485 31.384V33.384C350.636 33.384 352.014 33.7127 353.632 34.5518L354.553 32.7762ZM349.485 31.384C345.605 31.384 343.301 34.2637 343.301 36.992H345.301C345.301 35.3683 346.709 33.384 349.485 33.384V31.384ZM343.301 36.992C343.301 38.1151 343.685 39.2389 344.559 40.0803C345.435 40.9233 346.697 41.384 348.269 41.384V39.384C347.088 39.384 346.367 39.0447 345.946 38.6397C345.524 38.2331 345.301 37.6609 345.301 36.992H343.301ZM348.269 41.384C351.019 41.384 353.639 39.688 356.075 37.4623C358.539 35.2119 361.018 32.2242 363.466 29.3159C365.939 26.3768 368.386 23.5111 370.848 21.3755C373.327 19.2253 375.662 17.96 377.901 17.96V15.96C374.924 15.96 372.122 17.6227 369.538 19.8645C366.936 22.1209 364.39 25.1112 361.936 28.0281C359.455 30.9758 357.071 33.8441 354.726 35.9857C352.355 38.152 350.222 39.384 348.269 39.384V41.384ZM377.901 17.96C380.268 17.96 381.679 18.5583 382.487 19.287C383.288 20.0085 383.621 20.9662 383.621 21.952H385.621C385.621 20.5058 385.121 18.9675 383.826 17.801C382.539 16.6417 380.59 15.96 377.901 15.96V17.96ZM383.621 21.952C383.621 22.7306 383.414 23.4823 383.073 24.2209L384.889 25.0591C385.316 24.1337 385.621 23.0934 385.621 21.952H383.621ZM384.428 23.7456L384.172 23.6176L383.278 25.4064L383.534 25.5344L384.428 23.7456ZM384.683 24.7993C384.896 24.0874 385.045 23.2853 385.045 22.464H383.045C383.045 23.0507 382.937 23.6566 382.767 24.2247L384.683 24.7993ZM385.045 22.464C385.045 21.2282 384.739 19.9134 383.978 18.8796C383.19 17.8067 381.962 17.112 380.333 17.112V19.112C381.327 19.112 381.956 19.5053 382.367 20.0644C382.807 20.6626 383.045 21.5238 383.045 22.464H385.045ZM380.333 17.112C379.064 17.112 377.808 17.7163 376.623 18.5591C375.421 19.4138 374.173 20.6016 372.9 21.955C370.388 24.6274 367.548 28.2137 364.735 31.4024L366.235 32.7256C369.181 29.3863 371.846 25.9966 374.357 23.325C375.597 22.0064 376.74 20.9302 377.782 20.1889C378.841 19.4357 379.681 19.112 380.333 19.112V17.112ZM365.97 32.9382C366.404 32.6972 366.814 32.616 367.085 32.616V30.616C366.46 30.616 365.717 30.7908 364.999 31.1898L365.97 32.9382ZM367.085 32.616C367.461 32.616 367.721 32.7603 367.92 33.0384C368.144 33.3519 368.325 33.8931 368.325 34.688H370.325C370.325 33.6269 370.089 32.6321 369.546 31.8736C368.977 31.0797 368.116 30.616 367.085 30.616V32.616ZM368.325 34.688C368.325 39.269 362.367 49.176 346.669 49.176V51.176C363.227 51.176 370.325 40.603 370.325 34.688H368.325ZM346.669 49.176C340.968 49.176 336.885 47.774 334.251 45.723C331.632 43.6833 330.389 40.9632 330.389 38.144H328.389C328.389 41.5968 329.93 44.8927 333.022 47.301C336.1 49.698 340.657 51.176 346.669 51.176V49.176ZM330.389 38.144C330.389 31.7493 336.818 24.2008 349.895 23.0119L349.714 21.0201C336.04 22.2632 328.389 30.3307 328.389 38.144H330.389ZM349.805 21.016C346.827 21.016 344.752 20.2715 343.443 19.2079C342.151 18.1575 341.525 16.7354 341.525 15.168H339.525C339.525 17.3126 340.403 19.3145 342.182 20.7601C343.945 22.1925 346.511 23.016 349.805 23.016V21.016ZM341.525 15.168C341.525 10.5248 347.388 3.88 359.341 3.88V1.88C346.846 1.88 339.525 8.93122 339.525 15.168H341.525ZM359.341 3.88C363.67 3.88 366.608 4.75428 368.431 5.95506C370.23 7.14087 370.949 8.63828 370.949 10.048H372.949C372.949 7.87372 371.811 5.78713 369.531 4.28494C367.274 2.79771 363.908 1.88 359.341 1.88V3.88ZM370.949 10.048C370.949 13.0851 367.636 16.664 361.773 16.664V18.664C368.326 18.664 372.949 14.5629 372.949 10.048H370.949ZM361.773 16.664C359.686 16.664 357.324 16.187 354.743 15.0809L353.955 16.9191C356.75 18.117 359.38 18.664 361.773 18.664V16.664ZM355.319 16.2425L355.447 15.7305L353.507 15.2455L353.379 15.7575L355.319 16.2425ZM354.092 16.4111C355.753 17.103 357.356 17.384 358.829 17.384V15.384C357.614 15.384 356.273 15.153 354.861 14.5649L354.092 16.4111ZM358.829 17.384C364.437 17.384 368.341 13.1581 368.341 9.088H366.341C366.341 11.9299 363.46 15.384 358.829 15.384V17.384ZM368.341 9.088C368.341 7.36312 367.641 5.69206 366.117 4.47465C364.613 3.27352 362.398 2.584 359.469 2.584V4.584C362.107 4.584 363.828 5.20647 364.869 6.03735C365.889 6.85193 366.341 7.93287 366.341 9.088H368.341ZM359.469 2.584C355.309 2.584 351.694 4.33753 349.125 6.76986C346.575 9.18414 344.965 12.3589 344.965 15.296H346.965C346.965 13.0491 348.234 10.3679 350.5 8.22214C352.747 6.09447 355.885 4.584 359.469 4.584V2.584ZM344.965 15.296C344.965 17.2946 345.734 19.1825 347.441 20.5291C349.123 21.856 351.604 22.5707 354.881 22.5038L354.84 20.5042C351.846 20.5653 349.878 19.904 348.68 18.9589C347.507 18.0335 346.965 16.7533 346.965 15.296H344.965ZM353.872 21.3519L353.744 22.1839L355.721 22.4881L355.849 21.6561L353.872 21.3519ZM-1.94171 86.32H-2.94171V87.32H-1.94171V86.32ZM-1.94171 86V85H-2.94171V86H-1.94171ZM7.40229 86H8.40229V85H7.40229V86ZM7.59427 114.8L6.62415 115.043L6.62818 115.059L6.63275 115.075L7.59427 114.8ZM8.23429 116.144L9.10251 115.648L9.05884 115.571L9.00251 115.504L8.23429 116.144ZM9.3223 117.232L9.90354 116.418L9.86234 116.389L9.81842 116.364L9.3223 117.232ZM11.0503 117.68H12.0503V116.68H11.0503V117.68ZM11.0503 118V119H12.0503V118H11.0503ZM-1.94171 118H-2.94171V119H-1.94171V118ZM-1.94171 117.68V116.68H-2.94171V117.68H-1.94171ZM3.11429 80.584C2.60947 80.584 2.40894 80.4533 2.33854 80.3865C2.27393 80.3252 2.19428 80.2003 2.19428 79.92H0.194279C0.194279 80.5997 0.402622 81.3068 0.962009 81.8375C1.51563 82.3627 2.27509 82.584 3.11429 82.584V80.584ZM2.19428 79.92C2.19428 79.2706 2.61786 78.2727 3.44684 77.4012C4.2602 76.5461 5.29523 75.992 6.31427 75.992V73.992C4.58133 73.992 3.05637 74.9098 1.99771 76.0228C0.954716 77.1193 0.194279 78.5854 0.194279 79.92H2.19428ZM6.31427 75.992C6.86267 75.992 7.08023 76.1287 7.15525 76.1981C7.21964 76.2577 7.29828 76.3768 7.29828 76.656H9.29828C9.29828 75.9752 9.08893 75.2623 8.51334 74.7299C7.94834 74.2073 7.17389 73.992 6.31427 73.992V75.992ZM7.29828 76.656C7.29828 77.3046 6.87543 78.3016 6.04065 79.1717C5.22315 80.0239 4.17157 80.584 3.11429 80.584V82.584C4.87299 82.584 6.41342 81.6721 7.48392 80.5563C8.53714 79.4584 9.29828 77.9914 9.29828 76.656H7.29828ZM2.64228 91.888C2.64228 90.4396 2.4278 88.8604 1.76706 87.606C1.07248 86.2873 -0.133572 85.32 -1.94171 85.32V87.32C-0.99786 87.32 -0.411892 87.7607 -0.00249875 88.538C0.440769 89.3796 0.642277 90.5844 0.642277 91.888H2.64228ZM-0.941708 86.32V86H-2.94171V86.32H-0.941708ZM-1.94171 87H7.40229V85H-1.94171V87ZM6.40229 86V113.456H8.40229V86H6.40229ZM6.40229 113.456C6.40229 113.946 6.48313 114.478 6.62415 115.043L8.56443 114.557C8.44944 114.097 8.40229 113.734 8.40229 113.456H6.40229ZM6.63275 115.075C6.77094 115.558 7.00885 116.236 7.46607 116.784L9.00251 115.504C8.81971 115.284 8.67365 114.938 8.55582 114.525L6.63275 115.075ZM7.36603 116.64C7.71064 117.243 8.22312 117.756 8.82614 118.1L9.81842 116.364C9.52545 116.196 9.26993 115.941 9.10251 115.648L7.36603 116.64ZM8.74103 118.046C9.42527 118.534 10.2383 118.68 11.0503 118.68V116.68C10.4543 116.68 10.1153 116.57 9.90354 116.418L8.74103 118.046ZM10.0503 117.68V118H12.0503V117.68H10.0503ZM11.0503 117H-1.94171V119H11.0503V117ZM-0.941708 118V117.68H-2.94171V118H-0.941708ZM-1.94171 118.68C-0.18359 118.68 1.01075 117.814 1.72269 116.71C2.4036 115.654 2.64228 114.397 2.64228 113.456H0.642277C0.642277 114.115 0.464969 114.97 0.0418738 115.626C-0.350185 116.234 -0.947842 116.68 -1.94171 116.68V118.68ZM2.64228 113.456V91.888H0.642277V113.456H2.64228ZM22.9068 114.8L21.9366 115.043L21.9407 115.059L21.9453 115.075L22.9068 114.8ZM23.5468 116.144L24.415 115.648L24.3713 115.571L24.315 115.504L23.5468 116.144ZM24.6348 117.232L25.216 116.418L25.1748 116.389L25.1309 116.364L24.6348 117.232ZM26.3628 117.68H27.3628V116.68H26.3628V117.68ZM26.3628 118V119H27.3628V118H26.3628ZM13.3708 118H12.3708V119H13.3708V118ZM13.3708 117.68V116.68H12.3708V117.68H13.3708ZM13.3708 86.32H12.3708V87.32H13.3708V86.32ZM13.3708 86V85H12.3708V86H13.3708ZM22.7148 86H23.7148V85H22.7148V86ZM22.7148 103.92H21.7148L23.704 104.067L22.7148 103.92ZM61.2428 117.68H62.2428V116.68H61.2428V117.68ZM61.2428 118V119H62.2428V118H61.2428ZM57.0828 117C54.191 117 52.1275 115.359 50.444 112.582C48.7401 109.771 47.544 105.978 46.3777 102.036C45.2314 98.1627 44.1102 94.128 42.5463 91.0831C40.9836 88.0405 38.7968 85.64 35.3868 85.64V87.64C37.6408 87.64 39.31 89.1595 40.7672 91.9969C42.2234 94.832 43.2861 98.6372 44.4599 102.604C45.6136 106.502 46.8734 110.549 48.7336 113.618C50.614 116.721 53.2225 119 57.0828 119V117ZM35.3868 85.64C31.0256 85.64 27.5969 88.9672 25.3117 93.891C23.0083 98.854 21.7148 105.713 21.7148 113.456H23.7148C23.7148 105.903 24.9812 99.354 27.1259 94.733C29.2887 90.0728 32.1959 87.64 35.3868 87.64V85.64ZM21.7148 113.456C21.7148 113.946 21.7956 114.478 21.9366 115.043L23.8769 114.557C23.7619 114.097 23.7148 113.734 23.7148 113.456H21.7148ZM21.9453 115.075C22.0834 115.558 22.3214 116.236 22.7786 116.784L24.315 115.504C24.1322 115.284 23.9861 114.938 23.8683 114.525L21.9453 115.075ZM22.6785 116.64C23.0231 117.243 23.5356 117.756 24.1386 118.1L25.1309 116.364C24.838 116.196 24.5824 115.941 24.415 115.648L22.6785 116.64ZM24.0535 118.046C24.7378 118.534 25.5508 118.68 26.3628 118.68V116.68C25.7668 116.68 25.4278 116.57 25.216 116.418L24.0535 118.046ZM25.3628 117.68V118H27.3628V117.68H25.3628ZM26.3628 117H13.3708V119H26.3628V117ZM14.3708 118V117.68H12.3708V118H14.3708ZM13.3708 118.68C15.1289 118.68 16.3232 117.814 17.0352 116.71C17.7161 115.654 17.9548 114.397 17.9548 113.456H15.9548C15.9548 114.115 15.7775 114.97 15.3544 115.626C14.9623 116.234 14.3647 116.68 13.3708 116.68V118.68ZM17.9548 113.456V91.888H15.9548V113.456H17.9548ZM17.9548 91.888C17.9548 90.4396 17.7403 88.8604 17.0796 87.606C16.385 86.2873 15.1789 85.32 13.3708 85.32V87.32C14.3146 87.32 14.9006 87.7607 15.31 88.538C15.7533 89.3796 15.9548 90.5844 15.9548 91.888H17.9548ZM14.3708 86.32V86H12.3708V86.32H14.3708ZM13.3708 87H22.7148V85H13.3708V87ZM21.7148 86V103.92H23.7148V86H21.7148ZM23.704 104.067C24.5544 98.3339 26.1943 93.8805 28.5066 90.8828C30.7907 87.9216 33.7403 86.36 37.3708 86.36V84.36C33.0653 84.36 29.5509 86.2544 26.923 89.6612C24.3233 93.0315 22.6031 97.8581 21.7256 103.773L23.704 104.067ZM37.3708 86.36C41.2053 86.36 43.8993 88.1651 45.993 91.0036C48.1213 93.8889 49.5832 97.7873 50.8743 101.825C52.1418 105.788 53.2584 109.944 54.6874 113.048C56.097 116.11 58.0474 118.68 61.2428 118.68V116.68C59.3502 116.68 57.8846 115.21 56.5042 112.212C55.1432 109.256 54.0958 105.332 52.7793 101.215C51.4864 97.1727 49.9442 92.991 47.6025 89.8164C45.2263 86.5948 41.9843 84.36 37.3708 84.36V86.36ZM60.2428 117.68V118H62.2428V117.68H60.2428ZM61.2428 117H57.0828V119H61.2428V117ZM63.7773 114.032L64.7409 114.299L64.7415 114.297L63.7773 114.032ZM71.2653 86.768L72.2296 87.0328L72.5769 85.768H71.2653V86.768ZM65.9533 86.768H64.9533V87.768H65.9533V86.768ZM65.9533 86V85H64.9533V86H65.9533ZM74.3373 86V87L74.6206 85.041L74.3373 86ZM70.4973 80.688L69.508 80.5414L69.5068 80.5504L70.4973 80.688ZM90.7853 76.272L91.7765 76.4042L91.7776 76.396L90.7853 76.272ZM84.3853 82.608L83.9381 83.5024L84.3003 83.6835L84.6864 83.5616L84.3853 82.608ZM84.0013 82.416L83.454 81.579L81.9969 82.5318L83.554 83.3104L84.0013 82.416ZM74.6573 82.032L73.6679 81.8862L73.6656 81.9023L73.6637 81.9184L74.6573 82.032ZM88.1613 86H89.1613V85H88.1613V86ZM88.1613 86.768V87.768H89.1613V86.768H88.1613ZM76.9613 86.768V85.768H76.2015L75.9978 86.5L76.9613 86.768ZM69.5373 113.456L70.5001 113.726L70.5007 113.724L69.5373 113.456ZM50.4013 121.776L50.9158 120.919L50.5426 120.695L50.1244 120.815L50.4013 121.776ZM50.7213 121.968L51.4572 122.645L52.2881 121.742L51.2358 121.11L50.7213 121.968ZM64.7415 114.297L72.2296 87.0328L70.301 86.5032L62.813 113.767L64.7415 114.297ZM71.2653 85.768H65.9533V87.768H71.2653V85.768ZM66.9533 86.768V86H64.9533V86.768H66.9533ZM65.9533 87H74.3373V85H65.9533V87ZM74.6206 85.041C72.2228 84.3325 71.2436 82.5834 71.4878 80.8256L69.5068 80.5504C69.1109 83.4006 70.8197 86.0035 74.0539 86.959L74.6206 85.041ZM71.4865 80.8345C71.7995 78.7219 73.5862 76.9014 76.2336 75.5739C78.848 74.2629 82.0695 73.56 84.7693 73.56V71.56C81.773 71.56 78.2426 72.3291 75.337 73.7861C72.4644 75.2266 69.9631 77.4701 69.5081 80.5414L71.4865 80.8345ZM84.7693 73.56C86.484 73.56 87.8726 73.8403 88.7562 74.3305C89.1867 74.5693 89.4601 74.8369 89.6173 75.1103C89.7684 75.3732 89.8485 75.7035 89.793 76.148L91.7776 76.396C91.882 75.5605 91.7382 74.7868 91.3513 74.1137C90.9704 73.4511 90.3918 72.9507 89.7264 72.5815C88.4179 71.8557 86.6386 71.56 84.7693 71.56V73.56ZM89.794 76.1398C89.7039 76.8161 89.1615 77.9284 88.1238 79.0483C87.1093 80.143 85.7163 81.139 84.0841 81.6544L84.6864 83.5616C86.7022 82.925 88.3812 81.713 89.5908 80.4077C90.7771 79.1275 91.6107 77.6479 91.7765 76.4042L89.794 76.1398ZM84.8325 81.7136L84.4485 81.5216L83.554 83.3104L83.9381 83.5024L84.8325 81.7136ZM84.5486 83.253C85.4855 82.6403 86.5014 81.6907 87.2906 80.6034C88.0683 79.5318 88.7133 78.2051 88.7133 76.848H86.7133C86.7133 77.6029 86.3342 78.5162 85.672 79.4286C85.0211 80.3253 84.1811 81.1036 83.454 81.579L84.5486 83.253ZM88.7133 76.848C88.7133 75.4081 88.0814 74.2378 87.057 73.4539C86.0585 72.6897 84.7406 72.328 83.3613 72.328V74.328C84.414 74.328 85.2721 74.6063 85.8415 75.0421C86.3852 75.4582 86.7133 76.0479 86.7133 76.848H88.7133ZM83.3613 72.328C79.4733 72.328 74.6363 75.3155 73.6679 81.8862L75.6466 82.1778C76.4703 76.5885 80.4652 74.328 83.3613 74.328V72.328ZM73.6637 81.9184C73.5241 83.1398 73.6237 84.3745 74.1695 85.3458C74.759 86.3952 75.7942 87 77.1533 87V85C76.4644 85 76.1236 84.7407 75.9131 84.3662C75.6588 83.9135 75.5344 83.1642 75.6508 82.1455L73.6637 81.9184ZM77.1533 87H88.1613V85H77.1533V87ZM87.1613 86V86.768H89.1613V86H87.1613ZM88.1613 85.768H76.9613V87.768H88.1613V85.768ZM75.9978 86.5L68.5739 113.188L70.5007 113.724L77.9247 87.036L75.9978 86.5ZM68.5745 113.186C66.8413 119.362 64.4889 123.734 61.7416 126.55C59.0164 129.342 55.8787 130.632 52.4493 130.632V132.632C56.4438 132.632 60.0901 131.106 63.173 127.946C66.2337 124.81 68.7133 120.094 70.5001 113.726L68.5745 113.186ZM52.4493 130.632C50.0862 130.632 48.3918 130.115 47.3216 129.406C46.2651 128.706 45.8333 127.843 45.8333 127.024H43.8333C43.8333 128.637 44.7134 130.078 46.217 131.074C47.7067 132.061 49.8204 132.632 52.4493 132.632V130.632ZM45.8333 127.024C45.8333 125.691 47.0934 123.77 50.6782 122.737L50.1244 120.815C46.1571 121.958 43.8333 124.389 43.8333 127.024H45.8333ZM49.8868 122.633L50.2068 122.825L51.2358 121.11L50.9158 120.919L49.8868 122.633ZM49.9854 121.291C48.4169 122.996 47.6093 124.699 47.6093 126.32H49.6093C49.6093 125.381 50.0817 124.14 51.4572 122.645L49.9854 121.291ZM47.6093 126.32C47.6093 128.012 48.4876 129.381 49.7531 130.292C51.0049 131.193 52.6576 131.672 54.3693 131.672V129.672C53.0089 129.672 51.7816 129.287 50.9214 128.668C50.075 128.059 49.6093 127.252 49.6093 126.32H47.6093ZM54.3693 131.672C57.1125 131.672 58.9582 129.855 60.4431 126.96C61.9221 124.077 63.211 119.813 64.7409 114.299L62.8137 113.765C61.2716 119.323 60.0324 123.379 58.6635 126.048C57.3004 128.705 55.978 129.672 54.3693 129.672V131.672ZM98.0463 117.832C93.1038 117.832 89.7096 116.491 87.5591 114.492C85.4132 112.497 84.3903 109.741 84.3903 106.672H82.3903C82.3903 110.195 83.5753 113.519 86.1975 115.956C88.8149 118.389 92.7487 119.832 98.0463 119.832V117.832ZM84.3903 106.672C84.3903 97.637 93.2738 86.424 107.39 86.424V84.424C92.1948 84.424 82.3903 96.507 82.3903 106.672H84.3903ZM107.39 86.424C112.299 86.424 115.677 87.7646 117.82 89.7633C119.959 91.7582 120.982 94.5147 120.982 97.584H122.982C122.982 94.0613 121.797 90.7378 119.184 88.3007C116.575 85.8674 112.657 84.424 107.39 84.424V86.424ZM120.982 97.584C120.982 106.559 112.095 117.832 98.0463 117.832V119.832C113.181 119.832 122.982 107.681 122.982 97.584H120.982ZM107.134 85.192C101.468 85.192 96.6282 88.5568 93.25 93.003C89.8715 97.4497 87.8303 103.13 87.8303 108.08H89.8303C89.8303 103.622 91.693 98.3582 94.8425 94.213C97.9924 90.0672 102.305 87.192 107.134 87.192V85.192ZM87.8303 108.08C87.8303 111.018 88.5722 113.772 90.2999 115.807C92.0502 117.869 94.7025 119.064 98.2382 119.064V117.064C95.182 117.064 93.1303 116.051 91.8246 114.513C90.4964 112.948 89.8303 110.71 89.8303 108.08H87.8303ZM98.2382 119.064C103.935 119.064 108.79 115.702 112.177 111.263C115.564 106.824 117.606 101.159 117.606 96.24H115.606C115.606 100.665 113.744 105.912 110.587 110.049C107.43 114.186 103.102 117.064 98.2382 117.064V119.064ZM117.606 96.24C117.606 93.2723 116.866 90.5012 115.128 88.4565C113.369 86.3851 110.699 85.192 107.134 85.192V87.192C110.225 87.192 112.292 88.2069 113.604 89.7514C114.939 91.3227 115.606 93.5757 115.606 96.24H117.606ZM138.278 113.008L138.361 112.011L138.32 112.008H138.278V113.008ZM146.726 127.408L147.723 127.491L147.806 126.493L146.807 126.411L146.726 127.408ZM146.662 128.176L146.575 129.172L147.575 129.26L147.659 128.259L146.662 128.176ZM135.462 112.432L135.678 113.408L135.718 111.465L135.462 112.432ZM152.806 85.872L152.554 86.8396L152.791 86.9014L153.029 86.8468L152.806 85.872ZM151.846 79.664L151.206 80.4322L152.116 81.1902L152.711 80.1666L151.846 79.664ZM151.462 79.344H150.462V79.8124L150.822 80.1122L151.462 79.344ZM162.79 76.72L161.79 76.7033L161.79 76.7117V76.72H162.79ZM154.086 86.256L153.794 85.2998L150.9 86.1854L153.751 87.1983L154.086 86.256ZM140.646 112.072C139.807 112.072 139.081 112.071 138.361 112.011L138.195 114.005C139.012 114.073 139.822 114.072 140.646 114.072V112.072ZM138.278 112.008C134.591 112.008 131.628 113.406 129.585 115.171C128.565 116.052 127.765 117.032 127.214 117.991C126.672 118.935 126.334 119.925 126.334 120.816H128.334C128.334 120.395 128.508 119.753 128.948 118.987C129.38 118.236 130.031 117.428 130.892 116.685C132.609 115.202 135.118 114.008 138.278 114.008V112.008ZM126.334 120.816C126.334 121.417 126.484 122.069 126.936 122.582C127.408 123.116 128.077 123.352 128.806 123.352V121.352C128.512 121.352 128.445 121.268 128.436 121.258C128.409 121.227 128.334 121.111 128.334 120.816H126.334ZM128.806 123.352C129.448 123.352 130.212 123.208 131.028 122.995C131.857 122.779 132.802 122.474 133.824 122.116C135.855 121.405 138.304 120.447 140.832 119.514C145.977 117.617 151.541 115.8 155.814 115.8V113.8C151.128 113.8 145.235 115.759 140.14 117.638C137.549 118.593 135.181 119.523 133.164 120.228C132.163 120.578 131.276 120.863 130.523 121.06C129.756 121.26 129.189 121.352 128.806 121.352V123.352ZM155.814 115.8C159.269 115.8 161.918 118.523 161.918 122.672H163.918C163.918 117.605 160.551 113.8 155.814 113.8V115.8ZM161.918 122.672C161.918 128.778 158.661 133.728 154.223 137.187C149.77 140.659 144.238 142.536 139.942 142.536V144.536C144.735 144.536 150.691 142.477 155.453 138.765C160.232 135.04 163.918 129.558 163.918 122.672H161.918ZM139.942 142.536C137.888 142.536 136.195 142.095 135.046 141.286C133.942 140.51 133.262 139.346 133.262 137.648H131.262C131.262 139.982 132.247 141.762 133.895 142.922C135.497 144.049 137.645 144.536 139.942 144.536V142.536ZM133.262 137.648C133.262 134.949 135.162 132.543 137.957 130.81C140.739 129.084 144.145 128.201 146.645 128.405L146.807 126.411C143.804 126.167 139.977 127.203 136.903 129.11C133.842 131.009 131.262 133.947 131.262 137.648H133.262ZM145.73 127.325L145.666 128.093L147.659 128.259L147.723 127.491L145.73 127.325ZM146.749 127.18C143.935 126.933 140.316 127.907 137.406 129.682C134.514 131.446 132.03 134.191 132.03 137.648H134.03C134.03 135.217 135.803 133.002 138.447 131.39C141.073 129.789 144.27 128.97 146.575 129.172L146.749 127.18ZM132.03 137.648C132.03 138.942 132.514 139.986 133.451 140.666C134.334 141.305 135.489 141.528 136.678 141.528V139.528C135.691 139.528 135.023 139.335 134.625 139.046C134.283 138.798 134.03 138.402 134.03 137.648H132.03ZM136.678 141.528C138.818 141.528 141.525 140.815 144.325 139.691C147.145 138.559 150.145 136.977 152.893 135.163C155.637 133.351 158.165 131.285 160.02 129.173C161.846 127.093 163.15 124.819 163.15 122.608H161.15C161.15 124.077 160.247 125.883 158.517 127.853C156.815 129.791 154.439 131.745 151.791 133.493C149.148 135.239 146.267 136.757 143.58 137.835C140.872 138.921 138.443 139.528 136.678 139.528V141.528ZM163.15 122.608C163.15 120.838 162.619 119.433 161.519 118.495C160.45 117.583 159.008 117.256 157.478 117.256V119.256C158.765 119.256 159.659 119.537 160.221 120.017C160.754 120.471 161.15 121.242 161.15 122.608H163.15ZM157.478 117.256C155.346 117.256 152.774 117.878 150.11 118.756C147.429 119.64 144.566 120.814 141.831 121.976C139.08 123.144 136.475 124.291 134.248 125.153C133.138 125.583 132.143 125.934 131.292 126.175C130.427 126.421 129.771 126.536 129.318 126.536V128.536C130.049 128.536 130.916 128.361 131.838 128.099C132.775 127.833 133.834 127.459 134.97 127.019C137.237 126.141 139.901 124.968 142.613 123.816C145.342 122.658 148.14 121.512 150.736 120.656C153.35 119.794 155.675 119.256 157.478 119.256V117.256ZM129.318 126.536C127.923 126.536 127.053 126.08 126.526 125.507C125.982 124.916 125.71 124.101 125.71 123.248H123.71C123.71 124.507 124.11 125.836 125.055 126.861C126.015 127.904 127.449 128.536 129.318 128.536V126.536ZM125.71 123.248C125.71 121.406 126.941 119.218 128.934 117.286C130.904 115.377 133.433 113.904 135.678 113.408L135.247 111.456C132.563 112.048 129.716 113.743 127.542 115.85C125.392 117.934 123.71 120.61 123.71 123.248H125.71ZM135.718 111.465C130.603 110.113 128.334 106.425 128.334 102.384H126.334C126.334 107.303 129.185 111.807 135.207 113.399L135.718 111.465ZM128.334 102.384C128.334 95.1315 135.497 86.296 147.942 86.296V84.296C134.532 84.296 126.334 93.8925 126.334 102.384H128.334ZM147.942 86.296C149.662 86.296 151.176 86.4802 152.554 86.8396L153.059 84.9044C151.493 84.4958 149.806 84.296 147.942 84.296V86.296ZM153.029 86.8468C155.84 86.2033 158.17 84.945 159.815 83.4834C161.421 82.0552 162.51 80.3012 162.51 78.64H160.51C160.51 79.4748 159.903 80.7288 158.486 81.9886C157.106 83.215 155.084 84.3247 152.583 84.8972L153.029 86.8468ZM162.51 78.64C162.51 77.3484 162.071 76.2736 161.239 75.5332C160.426 74.8086 159.349 74.504 158.246 74.504V76.504C159 76.504 159.555 76.7114 159.909 77.0268C160.246 77.3264 160.51 77.8196 160.51 78.64H162.51ZM158.246 74.504C155.668 74.504 152.736 76.1434 150.982 79.1614L152.711 80.1666C154.156 77.6806 156.472 76.504 158.246 76.504V74.504ZM152.486 78.8958L152.102 78.5758L150.822 80.1122L151.206 80.4322L152.486 78.8958ZM152.462 79.344C152.462 77.2661 153.331 75.4948 154.567 74.2371C155.819 72.9635 157.383 72.28 158.694 72.28V70.28C156.742 70.28 154.689 71.2605 153.141 72.8349C151.578 74.4251 150.462 76.6859 150.462 79.344H152.462ZM158.694 72.28C159.567 72.28 160.312 72.5842 160.846 73.2096C161.392 73.8488 161.82 74.943 161.79 76.7033L163.79 76.7367C163.825 74.657 163.324 73.0311 162.366 71.9103C161.397 70.7758 160.061 70.28 158.694 70.28V72.28ZM161.79 76.72C161.79 78.5907 161.25 80.2556 160.031 81.6772C158.799 83.1145 156.811 84.3761 153.794 85.2998L154.379 87.2122C157.634 86.2158 159.998 84.7895 161.55 82.9788C163.115 81.1524 163.79 79.0093 163.79 76.72H161.79ZM153.751 87.1983C158.199 88.7783 160.19 92.1641 160.19 96.048H162.19C162.19 91.3559 159.702 87.1897 154.421 85.3137L153.751 87.1983ZM160.19 96.048C160.19 103.238 153.09 112.072 140.646 112.072V114.072C154.059 114.072 162.19 104.474 162.19 96.048H160.19ZM147.686 85.128C142.871 85.128 138.939 87.7843 136.249 91.3407C133.565 94.8889 132.03 99.4346 132.03 103.472H134.03C134.03 99.8934 135.408 95.7671 137.844 92.5473C140.273 89.3357 143.669 87.128 147.686 87.128V85.128ZM132.03 103.472C132.03 106.02 132.657 108.459 134.123 110.283C135.615 112.139 137.885 113.24 140.902 113.24V111.24C138.415 111.24 136.749 110.357 135.682 109.029C134.587 107.669 134.03 105.724 134.03 103.472H132.03ZM140.902 113.24C145.633 113.24 149.563 110.523 152.268 106.938C154.971 103.357 156.558 98.781 156.558 94.768H154.558C154.558 98.307 153.137 102.467 150.672 105.734C148.21 108.996 144.811 111.24 140.902 111.24V113.24ZM156.558 94.768C156.558 92.2194 155.931 89.8074 154.459 88.0137C152.962 86.189 150.692 85.128 147.686 85.128V87.128C150.185 87.128 151.85 87.987 152.913 89.2823C154.001 90.6086 154.558 92.5166 154.558 94.768H156.558ZM186.407 98.992L185.618 99.6059L185.927 100.003L186.429 99.9918L186.407 98.992ZM185.959 98.416L185.308 97.6567L184.584 98.2773L185.17 99.0299L185.959 98.416ZM175.719 114.8L174.749 115.043L174.753 115.059L174.758 115.075L175.719 114.8ZM176.359 116.144L177.228 115.648L177.184 115.571L177.127 115.504L176.359 116.144ZM177.447 117.232L178.029 116.418L177.987 116.389L177.943 116.364L177.447 117.232ZM179.175 117.68H180.175V116.68H179.175V117.68ZM179.175 118V119H180.175V118H179.175ZM166.183 118H165.183V119H166.183V118ZM166.183 117.68V116.68H165.183V117.68H166.183ZM166.183 86.32H165.183V87.32H166.183V86.32ZM166.183 86V85H165.183V86H166.183ZM175.527 86H176.527V85H175.527V86ZM175.527 102.192H174.527L176.519 102.324L175.527 102.192ZM187.197 98.3781L186.749 97.802L185.17 99.0299L185.618 99.6059L187.197 98.3781ZM186.61 99.1752C189.092 97.0481 190.223 94.0085 190.223 91.376H188.223C188.223 93.4795 187.307 95.9439 185.308 97.6567L186.61 99.1752ZM190.223 91.376C190.223 89.9162 189.869 88.5159 189.122 87.45C188.355 86.3555 187.183 85.64 185.703 85.64V87.64C186.464 87.64 187.052 87.9805 187.484 88.598C187.937 89.2441 188.223 90.2118 188.223 91.376H190.223ZM185.703 85.64C181.653 85.64 178.882 89.1162 177.153 93.977C175.395 98.9204 174.527 105.752 174.527 113.456H176.527C176.527 105.864 177.387 99.2876 179.037 94.647C180.717 89.9238 183.033 87.64 185.703 87.64V85.64ZM174.527 113.456C174.527 113.946 174.608 114.478 174.749 115.043L176.689 114.557C176.574 114.097 176.527 113.734 176.527 113.456H174.527ZM174.758 115.075C174.896 115.558 175.134 116.236 175.591 116.784L177.127 115.504C176.945 115.284 176.799 114.938 176.681 114.525L174.758 115.075ZM175.491 116.64C175.836 117.243 176.348 117.756 176.951 118.1L177.943 116.364C177.65 116.196 177.395 115.941 177.228 115.648L175.491 116.64ZM176.866 118.046C177.55 118.534 178.363 118.68 179.175 118.68V116.68C178.579 116.68 178.24 116.57 178.029 116.418L176.866 118.046ZM178.175 117.68V118H180.175V117.68H178.175ZM179.175 117H166.183V119H179.175V117ZM167.183 118V117.68H165.183V118H167.183ZM166.183 118.68C167.941 118.68 169.136 117.814 169.848 116.71C170.529 115.654 170.767 114.397 170.767 113.456H168.767C168.767 114.115 168.59 114.97 168.167 115.626C167.775 116.234 167.177 116.68 166.183 116.68V118.68ZM170.767 113.456V91.888H168.767V113.456H170.767ZM170.767 91.888C170.767 90.4396 170.553 88.8604 169.892 87.606C169.197 86.2873 167.991 85.32 166.183 85.32V87.32C167.127 87.32 167.713 87.7607 168.123 88.538C168.566 89.3796 168.767 90.5844 168.767 91.888H170.767ZM167.183 86.32V86H165.183V86.32H167.183ZM166.183 87H175.527V85H166.183V87ZM174.527 86V102.192H176.527V86H174.527ZM176.519 102.324C177.214 97.107 178.466 93.0808 180.32 90.3822C182.135 87.7389 184.528 86.36 187.687 86.36V84.36C183.807 84.36 180.823 86.1171 178.671 89.2498C176.557 92.3272 175.248 96.717 174.536 102.06L176.519 102.324ZM187.687 86.36C190.009 86.36 191.639 87.0614 192.678 88.0283C193.721 88.9976 194.239 90.2955 194.239 91.632H196.239C196.239 89.7685 195.51 87.9304 194.04 86.5637C192.568 85.1945 190.422 84.36 187.687 84.36V86.36ZM194.239 91.632C194.239 94.5272 191.751 97.8743 186.385 97.9922L186.429 99.9918C192.712 99.8537 196.239 95.7768 196.239 91.632H194.239ZM199.369 98.928L199.988 99.7129L200.365 99.4155L200.369 98.9356L199.369 98.928ZM237.385 117.68H238.385V116.68H237.385V117.68ZM237.385 118V119H238.385V118H237.385ZM222.473 105.264L223.427 104.964L221.473 105.279L222.473 105.264ZM200.009 98.48L199.011 98.4147L198.875 100.494L200.582 99.2992L200.009 98.48ZM219.337 95.216L219.074 96.1808L220.92 96.6842L220.279 94.8812L219.337 95.216ZM221.321 101.552L222.294 101.32L222.289 101.303L222.285 101.286L221.321 101.552ZM219.721 96.176L220.68 95.8919L220.529 95.3824L220.022 95.2224L219.721 96.176ZM196.273 106.928C196.273 103.842 197.741 101.487 199.988 99.7129L198.749 98.1431C196.132 100.209 194.273 103.102 194.273 106.928H196.273ZM200.369 98.9356C200.399 94.9333 201.571 91.8229 203.711 89.7119C205.851 87.6008 209.09 86.36 213.513 86.36V84.36C208.72 84.36 204.919 85.7112 202.306 88.2881C199.694 90.8651 198.402 94.5387 198.369 98.9204L200.369 98.9356ZM213.513 86.36C217.347 86.36 220.041 88.1651 222.135 91.0036C224.263 93.8889 225.725 97.7873 227.016 101.825C228.284 105.788 229.4 109.944 230.829 113.048C232.239 116.11 234.189 118.68 237.385 118.68V116.68C235.492 116.68 234.027 115.21 232.646 112.212C231.285 109.256 230.238 105.332 228.921 101.215C227.628 97.1727 226.086 92.991 223.745 89.8164C221.368 86.5948 218.126 84.36 213.513 84.36V86.36ZM236.385 117.68V118H238.385V117.68H236.385ZM237.385 117H233.225V119H237.385V117ZM233.225 117C230.694 117 228.805 115.735 227.244 113.568C225.657 111.363 224.479 108.313 223.427 104.964L221.519 105.564C222.578 108.935 223.833 112.253 225.621 114.736C227.436 117.257 229.867 119 233.225 119V117ZM221.473 105.279C221.592 113.161 216.099 117.96 209.609 117.96V119.96C217.199 119.96 223.609 114.263 223.473 105.249L221.473 105.279ZM209.609 117.96C205.507 117.96 202.167 116.782 199.87 114.844C197.586 112.916 196.273 110.189 196.273 106.928H194.273C194.273 110.771 195.84 114.06 198.58 116.372C201.307 118.674 205.134 119.96 209.609 119.96V117.96ZM200.582 99.2992C204.203 96.765 209.484 95.576 214.025 95.576V93.576C209.221 93.576 203.495 94.819 199.435 97.6608L200.582 99.2992ZM214.025 95.576C215.934 95.576 217.764 95.8235 219.074 96.1808L219.6 94.2512C218.094 93.8405 216.084 93.576 214.025 93.576V95.576ZM220.279 94.8812C219.405 92.4222 218.384 90.1459 217.025 88.4734C215.64 86.7686 213.857 85.64 211.529 85.64V87.64C213.105 87.64 214.362 88.3673 215.473 89.7346C216.61 91.1341 217.54 93.1458 218.394 95.5508L220.279 94.8812ZM211.529 85.64C207.844 85.64 204.806 86.9912 202.638 89.3089C200.483 91.6133 199.247 94.8073 199.011 98.4147L201.007 98.5453C201.219 95.3047 202.319 92.5786 204.099 90.6751C205.867 88.7848 208.365 87.64 211.529 87.64V85.64ZM200.033 106.928C200.033 113.968 205.624 118.68 211.337 118.68V116.68C206.681 116.68 202.033 112.816 202.033 106.928H200.033ZM211.337 118.68C216.868 118.68 222.833 113.444 222.833 105.456H220.833C220.833 112.444 215.662 116.68 211.337 116.68V118.68ZM222.833 105.456C222.833 104.141 222.626 102.717 222.294 101.32L220.348 101.784C220.655 103.075 220.833 104.339 220.833 105.456H222.833ZM222.285 101.286C221.77 99.421 221.182 97.5878 220.68 95.8919L218.762 96.4601C219.284 98.2202 219.847 99.971 220.357 101.818L222.285 101.286ZM220.022 95.2224C218.693 94.8027 217.181 94.6 215.689 94.6V96.6C217.012 96.6 218.317 96.7813 219.42 97.1296L220.022 95.2224ZM215.689 94.6C212.249 94.6 208.387 95.6232 205.357 97.6487C202.31 99.686 200.033 102.798 200.033 106.928H202.033C202.033 103.634 203.82 101.082 206.469 99.3113C209.135 97.5288 212.601 96.6 215.689 96.6V94.6ZM247.965 105.904L248.938 105.672L246.965 105.904H247.965ZM247.965 129.968H246.965V130.091L246.995 130.211L247.965 129.968ZM248.157 130.8L247.176 130.996L247.184 131.036L247.195 131.075L248.157 130.8ZM248.733 132.144L247.865 132.64L247.89 132.684L247.919 132.725L248.733 132.144ZM249.821 133.232L250.402 132.418L250.361 132.389L250.317 132.364L249.821 133.232ZM251.549 133.68H252.549V132.68H251.549V133.68ZM251.549 134V135H252.549V134H251.549ZM238.621 134H237.621V135H238.621V134ZM238.621 133.68V132.68H237.621V133.68H238.621ZM242.205 129.84L243.204 129.882L243.205 129.861V129.84H242.205ZM238.621 86.32H237.621V87.32H238.621V86.32ZM238.621 86V85H237.621V86H238.621ZM247.965 86.704L247.915 85.7052L246.96 85.753L246.965 86.709L247.965 86.704ZM248.029 99.504H249.029V99.499L248.029 99.504ZM254.045 86.552C267.813 86.552 275.509 96.9686 275.509 105.776H277.509C277.509 95.8954 268.949 84.552 254.045 84.552V86.552ZM275.509 105.776C275.509 109.08 274.43 112.107 272.254 114.304C270.085 116.495 266.728 117.96 261.981 117.96V119.96C267.153 119.96 271.061 118.353 273.675 115.712C276.284 113.077 277.509 109.512 277.509 105.776H275.509ZM261.981 117.96C255.731 117.96 250.785 113.432 248.938 105.672L246.992 106.136C248.984 114.503 254.534 119.96 261.981 119.96V117.96ZM246.965 105.904V129.968H248.965V105.904H246.965ZM246.995 130.211C247.059 130.467 247.117 130.702 247.176 130.996L249.137 130.604C249.068 130.258 248.999 129.981 248.935 129.725L246.995 130.211ZM247.195 131.075C247.348 131.608 247.573 132.13 247.865 132.64L249.601 131.648C249.381 131.262 249.222 130.888 249.118 130.525L247.195 131.075ZM247.919 132.725C248.256 133.197 248.679 133.732 249.325 134.1L250.317 132.364C250.066 132.22 249.85 131.987 249.547 131.563L247.919 132.725ZM249.24 134.046C249.924 134.534 250.737 134.68 251.549 134.68V132.68C250.953 132.68 250.614 132.57 250.402 132.418L249.24 134.046ZM250.549 133.68V134H252.549V133.68H250.549ZM251.549 133H238.621V135H251.549V133ZM239.621 134V133.68H237.621V134H239.621ZM238.621 134.68C240.25 134.68 241.416 133.927 242.153 132.931C242.862 131.972 243.165 130.809 243.204 129.882L241.206 129.798C241.18 130.407 240.972 131.164 240.545 131.741C240.145 132.281 239.551 132.68 238.621 132.68V134.68ZM243.205 129.84V91.888H241.205V129.84H243.205ZM243.205 91.888C243.205 90.4396 242.99 88.8604 242.33 87.606C241.635 86.2873 240.429 85.32 238.621 85.32V87.32C239.565 87.32 240.151 87.7607 240.56 88.538C241.003 89.3796 241.205 90.5844 241.205 91.888H243.205ZM239.621 86.32V86H237.621V86.32H239.621ZM238.621 87H247.965V85H238.621V87ZM247.965 87C248.709 87 249.64 86.877 250.61 86.77C251.614 86.6593 252.756 86.552 254.045 86.552V84.552C252.646 84.552 251.419 84.6687 250.391 84.782C249.33 84.899 248.565 85 247.965 85V87ZM260.317 118.68C264.104 118.68 266.975 117.153 268.874 114.71C270.749 112.298 271.621 109.071 271.621 105.712H269.621C269.621 108.753 268.828 111.51 267.295 113.482C265.787 115.423 263.506 116.68 260.317 116.68V118.68ZM271.621 105.712C271.621 96.5892 265.08 85.576 252.765 85.576V87.576C263.618 87.576 269.621 97.2988 269.621 105.712H271.621ZM252.765 85.576C250.822 85.576 249.204 85.6408 247.915 85.7052L248.015 87.7027C249.285 87.6392 250.867 87.576 252.765 87.576V85.576ZM246.965 86.709L247.029 99.509L249.029 99.499L248.965 86.699L246.965 86.709ZM247.029 99.504C247.029 105.159 248.616 109.915 251.059 113.283C253.495 116.64 256.838 118.68 260.317 118.68V116.68C257.651 116.68 254.851 115.104 252.678 112.109C250.514 109.125 249.029 104.793 249.029 99.504H247.029ZM290.469 114.8L289.499 115.043L289.503 115.059L289.508 115.075L290.469 114.8ZM291.109 116.144L291.961 115.62L291.943 115.591L291.923 115.563L291.109 116.144ZM293.925 117.68H294.925V116.68H293.925V117.68ZM293.925 118V119H294.925V118H293.925ZM280.933 118H279.933V119H280.933V118ZM280.933 117.68V116.68H279.933V117.68H280.933ZM280.933 70.32H279.933V71.32H280.933V70.32ZM280.933 70V69H279.933V70H280.933ZM290.277 70H291.277V69H290.277V70ZM290.277 103.92H289.277L291.266 104.067L290.277 103.92ZM328.805 117.68H329.805V116.68H328.805V117.68ZM328.805 118V119H329.805V118H328.805ZM324.645 117C321.754 117 319.69 115.359 318.006 112.582C316.303 109.771 315.106 105.978 313.94 102.036C312.794 98.1627 311.673 94.128 310.109 91.0831C308.546 88.0405 306.359 85.64 302.949 85.64V87.64C305.203 87.64 306.872 89.1595 308.33 91.9969C309.786 94.832 310.849 98.6372 312.022 102.604C313.176 106.502 314.436 110.549 316.296 113.618C318.177 116.721 320.785 119 324.645 119V117ZM302.949 85.64C298.588 85.64 295.159 88.9672 292.874 93.891C290.571 98.854 289.277 105.713 289.277 113.456H291.277C291.277 105.903 292.544 99.354 294.688 94.733C296.851 90.0728 299.758 87.64 302.949 87.64V85.64ZM289.277 113.456C289.277 113.946 289.358 114.478 289.499 115.043L291.439 114.557C291.324 114.097 291.277 113.734 291.277 113.456H289.277ZM289.508 115.075C289.661 115.613 289.898 116.169 290.296 116.725L291.923 115.563C291.68 115.223 291.533 114.883 291.431 114.525L289.508 115.075ZM290.258 116.668C290.93 117.761 292.195 118.68 293.925 118.68V116.68C292.967 116.68 292.312 116.191 291.961 115.62L290.258 116.668ZM292.925 117.68V118H294.925V117.68H292.925ZM293.925 117H280.933V119H293.925V117ZM281.933 118V117.68H279.933V118H281.933ZM280.933 118.68C282.691 118.68 283.886 117.814 284.598 116.71C285.279 115.654 285.517 114.397 285.517 113.456H283.517C283.517 114.115 283.34 114.97 282.917 115.626C282.525 116.234 281.927 116.68 280.933 116.68V118.68ZM285.517 113.456V75.888H283.517V113.456H285.517ZM285.517 75.888C285.517 74.4396 285.303 72.8604 284.642 71.606C283.947 70.2873 282.741 69.32 280.933 69.32V71.32C281.877 71.32 282.463 71.7607 282.873 72.538C283.316 73.3796 283.517 74.5844 283.517 75.888H285.517ZM281.933 70.32V70H279.933V70.32H281.933ZM280.933 71H290.277V69H280.933V71ZM289.277 70V103.92H291.277V70H289.277ZM291.266 104.067C292.117 98.3339 293.757 93.8805 296.069 90.8828C298.353 87.9216 301.303 86.36 304.933 86.36V84.36C300.628 84.36 297.113 86.2544 294.485 89.6612C291.886 93.0315 290.166 97.8581 289.288 103.773L291.266 104.067ZM304.933 86.36C308.768 86.36 311.462 88.1651 313.555 91.0036C315.684 93.8889 317.146 97.7873 318.437 101.825C319.704 105.788 320.821 109.944 322.25 113.048C323.659 116.11 325.61 118.68 328.805 118.68V116.68C326.913 116.68 325.447 115.21 324.067 112.212C322.706 109.256 321.658 105.332 320.342 101.215C319.049 97.1727 317.507 92.991 315.165 89.8164C312.789 86.5948 309.547 84.36 304.933 84.36V86.36ZM327.805 117.68V118H329.805V117.68H327.805ZM328.805 117H324.645V119H328.805V117ZM329.996 86.32H328.996V87.32H329.996V86.32ZM329.996 86V85H328.996V86H329.996ZM339.34 86H340.34V85H339.34V86ZM339.532 114.8L338.562 115.043L338.566 115.059L338.57 115.075L339.532 114.8ZM340.172 116.144L341.04 115.648L340.996 115.571L340.94 115.504L340.172 116.144ZM341.26 117.232L341.841 116.418L341.8 116.389L341.756 116.364L341.26 117.232ZM342.988 117.68H343.988V116.68H342.988V117.68ZM342.988 118V119H343.988V118H342.988ZM329.996 118H328.996V119H329.996V118ZM329.996 117.68V116.68H328.996V117.68H329.996ZM335.052 80.584C334.547 80.584 334.346 80.4533 334.276 80.3865C334.211 80.3252 334.132 80.2003 334.132 79.92H332.132C332.132 80.5997 332.34 81.3068 332.899 81.8375C333.453 82.3627 334.213 82.584 335.052 82.584V80.584ZM334.132 79.92C334.132 79.2706 334.555 78.2727 335.384 77.4012C336.198 76.5461 337.233 75.992 338.252 75.992V73.992C336.519 73.992 334.994 74.9098 333.935 76.0228C332.892 77.1193 332.132 78.5854 332.132 79.92H334.132ZM338.252 75.992C338.8 75.992 339.018 76.1287 339.093 76.1981C339.157 76.2577 339.236 76.3768 339.236 76.656H341.236C341.236 75.9752 341.026 75.2623 340.451 74.7299C339.886 74.2073 339.111 73.992 338.252 73.992V75.992ZM339.236 76.656C339.236 77.3046 338.813 78.3016 337.978 79.1717C337.161 80.0239 336.109 80.584 335.052 80.584V82.584C336.81 82.584 338.351 81.6721 339.421 80.5563C340.475 79.4584 341.236 77.9914 341.236 76.656H339.236ZM334.58 91.888C334.58 90.4396 334.365 88.8604 333.705 87.606C333.01 86.2873 331.804 85.32 329.996 85.32V87.32C330.94 87.32 331.526 87.7607 331.935 88.538C332.378 89.3796 332.58 90.5844 332.58 91.888H334.58ZM330.996 86.32V86H328.996V86.32H330.996ZM329.996 87H339.34V85H329.996V87ZM338.34 86V113.456H340.34V86H338.34ZM338.34 113.456C338.34 113.946 338.421 114.478 338.562 115.043L340.502 114.557C340.387 114.097 340.34 113.734 340.34 113.456H338.34ZM338.57 115.075C338.708 115.558 338.946 116.236 339.404 116.784L340.94 115.504C340.757 115.284 340.611 114.938 340.493 114.525L338.57 115.075ZM339.304 116.64C339.648 117.243 340.161 117.756 340.764 118.1L341.756 116.364C341.463 116.196 341.207 115.941 341.04 115.648L339.304 116.64ZM340.679 118.046C341.363 118.534 342.176 118.68 342.988 118.68V116.68C342.392 116.68 342.053 116.57 341.841 116.418L340.679 118.046ZM341.988 117.68V118H343.988V117.68H341.988ZM342.988 117H329.996V119H342.988V117ZM330.996 118V117.68H328.996V118H330.996ZM329.996 118.68C331.754 118.68 332.948 117.814 333.66 116.71C334.341 115.654 334.58 114.397 334.58 113.456H332.58C332.58 114.115 332.402 114.97 331.979 115.626C331.587 116.234 330.99 116.68 329.996 116.68V118.68ZM334.58 113.456V91.888H332.58V113.456H334.58ZM376.412 109.104L376.891 108.226L376.062 107.774L375.563 108.576L376.412 109.104ZM377.116 109.488L377.95 110.04L378.552 109.132L377.595 108.61L377.116 109.488ZM351.708 106.928L351.895 105.946L350.748 105.727L350.709 106.894L351.708 106.928ZM351.708 106.224L350.711 106.152L350.651 106.99L351.466 107.194L351.708 106.224ZM375.933 109.982L376.637 110.366L377.595 108.61L376.891 108.226L375.933 109.982ZM376.283 108.936C372.912 114.023 366.928 117.832 360.796 117.832V119.832C367.72 119.832 374.281 115.577 377.95 110.04L376.283 108.936ZM360.796 117.832C355.854 117.832 352.46 116.491 350.309 114.492C348.163 112.497 347.14 109.741 347.14 106.672H345.14C345.14 110.195 346.325 113.519 348.947 115.956C351.565 118.389 355.499 119.832 360.796 119.832V117.832ZM347.14 106.672C347.14 97.637 356.024 86.424 370.14 86.424V84.424C354.945 84.424 345.14 96.507 345.14 106.672H347.14ZM370.14 86.424C373.736 86.424 376.245 87.2851 377.833 88.5372C379.4 89.773 380.148 91.4474 380.148 93.296H382.148C382.148 90.8566 381.136 88.595 379.071 86.9668C377.027 85.3549 374.033 84.424 370.14 84.424V86.424ZM380.148 93.296C380.148 96.0989 378.435 99.4142 374.922 102.066C371.429 104.702 366.208 106.632 359.388 106.632V108.632C366.585 108.632 372.243 106.594 376.127 103.662C379.99 100.746 382.148 96.8931 382.148 93.296H380.148ZM359.388 106.632C357.073 106.632 354.512 106.444 351.895 105.946L351.521 107.91C354.28 108.436 356.968 108.632 359.388 108.632V106.632ZM350.709 106.894C350.608 109.891 351.258 112.748 352.969 114.875C354.706 117.034 357.418 118.296 361.116 118.296V116.296C357.903 116.296 355.815 115.222 354.528 113.621C353.214 111.988 352.617 109.661 352.708 106.962L350.709 106.894ZM361.116 118.296C367.457 118.296 374.124 114.679 377.262 109.632L375.563 108.576C372.812 113.001 366.807 116.296 361.116 116.296V118.296ZM369.884 85.192C364.501 85.192 359.858 88.1924 356.521 92.2354C353.185 96.2773 351.047 101.479 350.711 106.152L352.706 106.296C353.009 102.073 354.968 97.2587 358.063 93.5086C361.158 89.7596 365.284 87.192 369.884 87.192V85.192ZM351.466 107.194C353.341 107.663 355.15 107.864 356.892 107.864V105.864C355.306 105.864 353.66 105.681 351.951 105.254L351.466 107.194ZM356.892 107.864C362.867 107.864 367.947 105.43 371.53 102.199C375.079 98.998 377.284 94.8927 377.284 91.44H375.284C375.284 94.1313 373.49 97.738 370.191 100.713C366.925 103.658 362.309 105.864 356.892 105.864V107.864ZM377.284 91.44C377.284 89.7089 376.706 88.1032 375.406 86.9422C374.12 85.793 372.252 85.192 369.884 85.192V87.192C371.933 87.192 373.265 87.711 374.074 88.4338C374.87 89.1448 375.284 90.163 375.284 91.44H377.284Z" fill="#FF0000" fill-opacity="0.6" mask="url(#path-1-outside-1_530_401)"/>
</svg>
