<svg width="52" height="52" viewBox="0 0 52 52" fill="none" xmlns="http://www.w3.org/2000/svg">
<path d="M51.9393 6.77965V0C43.2852 4.3309 34.6335 8.66423 25.9599 12.9951C25.394 12.752 7.51983 3.80565 0 0.0413393V6.82099L5.57915 9.61504L5.6593 29.9564L12.2294 33.2757C10.0459 36.0892 7.84287 38.9027 5.6593 41.7162C7.37895 42.5673 9.11561 43.416 10.8353 44.2671C12.9581 41.4536 15.1004 38.6206 17.2232 35.8071L22.6008 38.5185V50.2978C22.6008 50.2978 25.9769 51.9976 25.9964 51.9976C25.9964 51.9976 29.3725 50.3172 29.3919 50.2978V38.4966L34.7501 35.7853C34.7501 35.7853 39.0978 41.5946 41.24 44.4082C42.9597 43.557 44.6963 42.7084 46.416 41.8573C44.213 39.0438 42.0294 36.2108 39.824 33.3973V33.2149L46.314 29.937V9.65395V9.63449L51.9951 6.77965H51.9344H51.9393ZM22.2 31.5152L17.59 29.2074C15.8509 28.3369 14.0924 27.4663 12.3533 26.5958V12.9951L22.5838 18.1163V31.7194L22.2 31.5176V31.5152ZM39.5447 13.7028V26.5958L29.3555 31.6975V18.0945L39.5447 12.9927V13.7003V13.7028Z" fill="#EEEEEE"/>
</svg>
