<svg width="93" height="51" viewBox="0 0 93 51" fill="none" xmlns="http://www.w3.org/2000/svg">
<path d="M25.0046 1.31903C25.0834 0.742622 25.9166 0.742607 25.9954 1.31903L28.1742 17.2654C28.5693 20.1569 30.843 22.4306 33.7344 22.8256L49.6808 25.0044C50.2572 25.0832 50.2572 25.9165 49.6808 25.9952L33.7344 28.174C30.843 28.5691 28.5693 30.8428 28.1742 33.7342L25.9954 49.6806C25.9166 50.257 25.0834 50.257 25.0046 49.6806L22.8258 33.7342C22.4307 30.8428 20.157 28.5691 17.2656 28.174L1.31921 25.9952C0.742805 25.9165 0.74279 25.0832 1.31922 25.0044L17.2656 22.8256C20.157 22.4306 22.4307 20.1569 22.8258 17.2654L25.0046 1.31903Z" stroke="white"/>
<path d="M67.0046 1.31903C67.0834 0.742622 67.9166 0.742607 67.9954 1.31903L70.1742 17.2654C70.5693 20.1569 72.843 22.4306 75.7344 22.8256L91.6808 25.0044C92.2572 25.0832 92.2572 25.9165 91.6808 25.9952L75.7344 28.174C72.843 28.5691 70.5693 30.8428 70.1742 33.7342L67.9954 49.6806C67.9166 50.257 67.0834 50.257 67.0046 49.6806L64.8258 33.7342C64.4307 30.8428 62.157 28.5691 59.2656 28.174L43.3192 25.9952C42.7428 25.9165 42.7428 25.0832 43.3192 25.0044L59.2656 22.8256C62.157 22.4306 64.4307 20.1569 64.8258 17.2654L67.0046 1.31903Z" fill="white" stroke="white"/>
</svg>
